<?xml version="1.0" encoding="utf-8"?>
<!-- Generator: Adobe Illustrator 23.0.1, SVG Export Plug-In . SVG Version: 6.00 Build 0)  -->
<svg version="1.1" id="Layer_1" xmlns="http://www.w3.org/2000/svg" xmlns:xlink="http://www.w3.org/1999/xlink" x="0px" y="0px"
	 viewBox="0 0 72 17.8" enable-background="new 0 0 72 17.8" xml:space="preserve">
<g>
	<g>
		<g>
			<path fill="#4AC2C4" d="M46.3,12.2h1.6V5.2h-1.6V12.2z M36.9,9.3c0,0.8-0.4,1.3-1.1,1.3c-0.7,0-1.1-0.5-1.1-1.3V7h-1.6v2.4
				c0,1.5,1,2.6,2.3,2.6c0.5,0,1-0.2,1.4-0.5l0,0v0.2c0,0.8-0.5,1.3-1.2,1.3c-0.5,0-0.9-0.3-1.2-0.6L33.2,13
				c0.5,0.8,1.3,1.2,2.5,1.2c1.8,0,2.8-0.9,2.8-2.5V7h-1.6L36.9,9.3z M42.9,6.8c-0.7,0-1.2,0.2-1.6,0.6l0,0V7h-1.6v7.1h1.6v-2.3l0,0
				c0.4,0.4,1,0.6,1.6,0.6c1.5,0,2.6-1.2,2.6-2.8C45.5,8,44.4,6.8,42.9,6.8z M42.6,11c-0.7,0-1.3-0.5-1.3-1.4c0-0.8,0.6-1.4,1.3-1.4
				c0.8,0,1.3,0.6,1.3,1.4C43.9,10.4,43.3,11,42.6,11z M28,9.6L28,9.6L28,9.6l-2.4-4.4h-1.7v7.1h1.6V8.6l0.1,0.1l1.9,3.6h1.1
				l1.9-3.5l0.1-0.1v3.6H32V5.2h-1.7L28,9.6z M71.6,10.7c-0.2,0.1-0.5,0.2-0.8,0.2c-0.5,0-0.7-0.3-0.7-0.8V8.3h1.6V7h-1.6V5.2
				l-1.6,0.3V7h-1v1.3h1v2.1c0,1.4,0.7,2.1,2.1,2.1c0.6,0,1.1-0.2,1.4-0.4L71.6,10.7z M64.6,6.8c-1.6,0-2.8,1.2-2.8,2.8
				c0,1.6,1.2,2.8,2.8,2.8c1.2,0,2.2-0.6,2.6-1.6l-1.5-0.3c-0.3,0.5-0.8,0.6-1.2,0.6c-0.6,0-1-0.4-1.2-1.1l0,0h3.9V9.6
				C67.3,8,66.2,6.8,64.6,6.8z M63.4,9L63.4,9c0.2-0.6,0.7-0.9,1.2-0.9c0.5,0,1,0.3,1.1,0.9l0,0H63.4z M53,7.4L53,7.4
				c-0.5-0.4-1-0.6-1.7-0.6c-1.5,0-2.6,1.2-2.6,2.8c0,1.6,1.1,2.8,2.6,2.8c0.7,0,1.2-0.2,1.6-0.6l0,0v0.5h1.6V7H53V7.4z M51.6,11
				c-0.8,0-1.3-0.6-1.3-1.4c0-0.8,0.5-1.4,1.3-1.4c0.8,0,1.3,0.6,1.3,1.4C53,10.5,52.3,11,51.6,11z M59,6.8c-0.6,0-1.2,0.2-1.6,0.7
				l-0.1,0.1V7h-1.6v5.3h1.6V9.8c0-1,0.4-1.5,1.1-1.5c0.6,0,0.9,0.4,0.9,1.1v2.9h1.6V9C61.1,7.7,60.2,6.8,59,6.8z"/>
		</g>
	</g>
	<g>
		<defs>
			<path id="SVGID_1_" d="M0,0v17.8h17.8V0H0z M11.3,12.2H6.5V11h4.8V12.2z M11.3,9.9h-1V7.7l0,0.1L9.2,9.9H8.6L7.5,7.8l0-0.1v2.2
				h-1V5.7h1l1.4,2.6l0,0l0,0l1.4-2.6h1V9.9z"/>
		</defs>
		<clipPath id="SVGID_2_">
			<use xlink:href="#SVGID_1_"  overflow="visible"/>
		</clipPath>
		<g clip-path="url(#SVGID_2_)">
			<defs>
				<rect id="SVGID_3_" x="-0.9" y="-1.6" width="19.5" height="19.5"/>
			</defs>
			<clipPath id="SVGID_4_">
				<use xlink:href="#SVGID_3_"  overflow="visible"/>
			</clipPath>
			<rect x="-0.9" y="-1.6" clip-path="url(#SVGID_4_)" fill="#F6CECD" width="19.5" height="19.5"/>
			<path clip-path="url(#SVGID_4_)" fill="#4AC2C4" d="M17.3,18.7c0,0-0.4-6.8-8.1-6.4C1.2,12.7-0.4,8.7-1.1,0.5
				c-0.7-7.4-0.7,18.9-0.7,18.9L17.3,18.7z"/>
			<g clip-path="url(#SVGID_4_)">
				<circle fill="#F15B30" cx="-6.3" cy="-3.3" r="0.3"/>
				<circle fill="#F15B30" cx="-6.3" cy="-2.4" r="0.3"/>
				<circle fill="#F15B30" cx="-5.5" cy="-2.9" r="0.3"/>
				<circle fill="#F15B30" cx="-5.3" cy="-2.1" r="0.1"/>
				<circle fill="#F15B30" cx="-4.7" cy="-4.5" r="0.3"/>
				<circle fill="#F15B30" cx="-5" cy="-3.6" r="0.3"/>
				<circle fill="#F15B30" cx="-4.1" cy="-3.8" r="0.3"/>
				<circle fill="#F15B30" cx="-4.4" cy="-2.8" r="0.2"/>
				<circle fill="#F15B30" cx="-4.4" cy="-1.9" r="0.3"/>
				<circle fill="#F15B30" cx="-4.4" cy="-1" r="0.3"/>
				<circle fill="#F15B30" cx="-3.7" cy="-1.5" r="0.3"/>
				<circle fill="#F15B30" cx="-3.7" cy="-0.6" r="0.2"/>
				<circle fill="#F15B30" cx="-3.4" cy="-2.6" r="0.3"/>
				<circle fill="#F15B30" cx="-2.7" cy="-1.5" r="0.2"/>
				<circle fill="#F15B30" cx="-6.8" cy="-0.3" r="0.3"/>
				<circle fill="#F15B30" cx="-6.6" cy="0.4" r="0.1"/>
				<circle fill="#F15B30" cx="-6.3" cy="-1.1" r="0.3"/>
				<circle fill="#F15B30" cx="-5.6" cy="-1.3" r="0.3"/>
				<circle fill="#F15B30" cx="-5.4" cy="-0.3" r="0.3"/>
				<circle fill="#F15B30" cx="-5.7" cy="0.6" r="0.3"/>
				<circle fill="#F15B30" cx="-5.7" cy="1.5" r="0.3"/>
				<circle fill="#F15B30" cx="-5" cy="1" r="0.3"/>
				<circle fill="#F15B30" cx="-4.1" cy="1.3" r="0.2"/>
				<circle fill="#F15B30" cx="-4.4" cy="-0.1" r="0.3"/>
				<circle fill="#F15B30" cx="0.7" cy="1.5" r="0.3"/>
				<circle fill="#F15B30" cx="0.4" cy="0.7" r="0.3"/>
				<circle fill="#F15B30" cx="-0.2" cy="1.3" r="0.3"/>
				<circle fill="#F15B30" cx="-0.5" cy="0.7" r="0.1"/>
				<circle fill="#F15B30" cx="-6.1" cy="3.4" r="0.3"/>
				<circle fill="#F15B30" cx="-0.4" cy="2.2" r="0.3"/>
				<circle fill="#F15B30" cx="-1.2" cy="2.6" r="0.3"/>
				<circle fill="#F15B30" cx="-1.2" cy="1.5" r="0.3"/>
				<circle fill="#F15B30" cx="-1.4" cy="0.7" r="0.2"/>
				<circle fill="#F15B30" cx="-1.5" cy="-0.1" r="0.3"/>
				<circle fill="#F15B30" cx="-2.2" cy="0.8" r="0.3"/>
				<circle fill="#F15B30" cx="-2.6" cy="-0.3" r="0.2"/>
				<circle fill="#F15B30" cx="-3.3" cy="0.5" r="0.3"/>
				<circle fill="#F15B30" cx="0.3" cy="-1.5" r="0.3"/>
				<circle fill="#F15B30" cx="0" cy="-2.1" r="0.1"/>
				<circle fill="#F15B30" cx="0.1" cy="-0.6" r="0.3"/>
				<circle fill="#F15B30" cx="-0.5" cy="-0.2" r="0.3"/>
				<circle fill="#F15B30" cx="-1" cy="-1.1" r="0.3"/>
				<circle fill="#F15B30" cx="-0.9" cy="-2.1" r="0.3"/>
				<circle fill="#F15B30" cx="-1.2" cy="-2.9" r="0.3"/>
				<circle fill="#F15B30" cx="-1.8" cy="-2.3" r="0.3"/>
				<circle fill="#F15B30" cx="-2" cy="-3.1" r="0.3"/>
				<circle fill="#F15B30" cx="-2" cy="-1" r="0.3"/>
				<circle fill="#F15B30" cx="-5" cy="2.3" r="0.3"/>
				<circle fill="#F15B30" cx="-4.8" cy="3.3" r="0.3"/>
				<circle fill="#F15B30" cx="-4" cy="2.9" r="0.3"/>
				<circle fill="#F15B30" cx="-3.9" cy="3.6" r="0.1"/>
				<circle fill="#F15B30" cx="-3.3" cy="1.3" r="0.3"/>
				<circle fill="#F15B30" cx="-3.6" cy="2.1" r="0.3"/>
				<circle fill="#F15B30" cx="-2.4" cy="2" r="0.3"/>
				<circle fill="#F15B30" cx="-3" cy="3" r="0.2"/>
				<circle fill="#F15B30" cx="-3" cy="3.8" r="0.3"/>
				<circle fill="#F15B30" cx="-3" cy="4.7" r="0.3"/>
				<circle fill="#F15B30" cx="-2.2" cy="4.3" r="0.3"/>
				<circle fill="#F15B30" cx="-2.2" cy="5.1" r="0.2"/>
				<circle fill="#F15B30" cx="-1.9" cy="3.2" r="0.3"/>
				<circle fill="#F15B30" cx="-1.3" cy="4.3" r="0.2"/>
				<circle fill="#F15B30" cx="-5.3" cy="5.4" r="0.3"/>
				<circle fill="#F15B30" cx="-5.2" cy="6.2" r="0.1"/>
				<circle fill="#F15B30" cx="-4.9" cy="4.6" r="0.3"/>
				<circle fill="#F15B30" cx="-4.2" cy="4.4" r="0.3"/>
				<circle fill="#F15B30" cx="-4" cy="5.4" r="0.3"/>
				<circle fill="#F15B30" cx="-4.3" cy="6.4" r="0.3"/>
				<circle fill="#F15B30" cx="-4.3" cy="7.2" r="0.3"/>
				<circle fill="#F15B30" cx="-3.5" cy="6.8" r="0.3"/>
				<circle fill="#F15B30" cx="-3.5" cy="7.7" r="0.3"/>
				<circle fill="#F15B30" cx="-3" cy="5.7" r="0.3"/>
				<circle fill="#F15B30" cx="2.4" cy="7.5" r="0.3"/>
				<circle fill="#F15B30" cx="1.9" cy="6.4" r="0.3"/>
				<circle fill="#F15B30" cx="1.2" cy="7.1" r="0.3"/>
				<circle fill="#F15B30" cx="0.9" cy="6.4" r="0.1"/>
				<circle fill="#F15B30" cx="1" cy="8.8" r="0.3"/>
				<circle fill="#F15B30" cx="1" cy="8" r="0.2"/>
				<circle fill="#F15B30" cx="0.1" cy="8.3" r="0.3"/>
				<circle fill="#F15B30" cx="0.2" cy="7.3" r="0.3"/>
				<circle fill="#F15B30" cx="0" cy="6.5" r="0.2"/>
				<circle fill="#F15B30" cx="0" cy="5.6" r="0.3"/>
				<circle fill="#F15B30" cx="-0.9" cy="6.3" r="0.3"/>
				<circle fill="#F15B30" cx="-1.1" cy="5.4" r="0.2"/>
				<circle fill="#F15B30" cx="-1.9" cy="6.3" r="0.3"/>
				<circle fill="#F15B30" cx="1.8" cy="4.3" r="0.3"/>
				<circle fill="#F15B30" cx="1.4" cy="3.6" r="0.1"/>
				<circle fill="#F15B30" cx="1.6" cy="5.2" r="0.3"/>
				<circle fill="#F15B30" cx="1" cy="5.6" r="0.3"/>
				<circle fill="#F15B30" cx="0.3" cy="4.7" r="0.2"/>
				<circle fill="#F15B30" cx="0.6" cy="3.7" r="0.2"/>
				<circle fill="#F15B30" cx="0.3" cy="2.6" r="0.2"/>
				<circle fill="#F15B30" cx="-0.7" cy="3.7" r="0.3"/>
				<circle fill="#F15B30" cx="-1.3" cy="7.4" r="0.3"/>
				<circle fill="#F15B30" cx="-0.6" cy="4.7" r="0.3"/>
			</g>
			<path clip-path="url(#SVGID_4_)" fill="#2B2B49" d="M-0.7-2.7c0,0,3.3,2.1,3,5.1C2.1,5.2,4.5,9,10,7.2c5.8-2,8.7,3.3,9.4,7.6
				l3.5-1.3L22.7-6L-0.9-5.3L-0.7-2.7z"/>
			<path clip-path="url(#SVGID_4_)" fill="#F15B30" d="M19,8c0,0-1.7-1-1.6-2.4c0.1-1.5-0.5-3.2-2.6-3.2S9.1,3.2,7.4-0.9
				S2.1-3.6,2.1-3.6v-1.2h18.7V8H19z"/>
			<path clip-path="url(#SVGID_4_)" fill="#2B2B49" d="M4.8,16.3c0,0,3.1-1.8,2.6-0.6c-0.5,1.1-0.2,1.3,1.4,0.4
				c1.6-0.9,2.4-1.7,0.5,0.4c-0.9,1.1,0.7,0.1,1.4-0.3c0.7-0.4,1-0.4,0.4,0.6c-0.6,1,1-0.2,0.9,0.3c-0.1,0.5-1.6,2.7-1.6,2.7
				l-4.7,0.6L4.8,16.3z"/>
			<path clip-path="url(#SVGID_4_)" fill="#C1E5E1" d="M-1.2,0.9c0,0,2.5,1.1,1.9,4.3s-1.2,4.4,1.1,6.6s4.2,1.4,4.6,7.3h-8.5
				L-1.2,0.9z"/>
			<circle clip-path="url(#SVGID_4_)" fill="#F15B30" cx="16" cy="8.4" r="1.3"/>
			<path clip-path="url(#SVGID_4_)" fill="#F15B30" d="M3.6,13.4c-0.6,0.9-1.4,0.5-1.9,0.7c-0.5,0.2-0.3,1.5-1.5,1.1
				c-0.1,0-0.2-0.1-0.3-0.1l0.2-1.3c0,0-2.3,0-3.6,0.2c-1.3,0.3-1,1.3-1.1,2.3c-0.1,1-0.5,1.4-1.3,1.9c-0.8,0.5,0.2,1.5,0.9,0.5
				c0.6-0.9,1.4-0.5,1.9-0.7c0.5-0.2,0.3-1.5,1.5-1.1c0.1,0,0.2,0.1,0.3,0.1l-0.2,1.3c0,0,2.3,0,3.6-0.2s1-1.3,1.1-2.3
				s0.5-1.4,1.3-1.9C5.2,13.4,4.3,12.4,3.6,13.4z"/>
			<g clip-path="url(#SVGID_4_)">
				<circle fill="#FEEEE9" cx="-2.7" cy="18.6" r="0.1"/>
				<circle fill="#FEEEE9" cx="-2.2" cy="18.6" r="0.1"/>
				<circle fill="#FEEEE9" cx="-2.4" cy="18.2" r="0.1"/>
				<circle fill="#FEEEE9" cx="-2.1" cy="18.2" r="0.1"/>
				<circle fill="#FEEEE9" cx="-3.3" cy="17.8" r="0.1"/>
				<circle fill="#FEEEE9" cx="-2.8" cy="18" r="0.1"/>
				<circle fill="#FEEEE9" cx="-2.9" cy="17.5" r="0.1"/>
				<circle fill="#FEEEE9" cx="-2.4" cy="17.7" r="0.1"/>
				<circle fill="#FEEEE9" cx="-2" cy="17.7" r="0.1"/>
				<circle fill="#FEEEE9" cx="-1.5" cy="17.7" r="0.1"/>
				<circle fill="#FEEEE9" cx="-1.7" cy="17.3" r="0.1"/>
				<circle fill="#FEEEE9" cx="-1.3" cy="17.3" r="0.1"/>
				<circle fill="#FEEEE9" cx="-2.3" cy="17.1" r="0.1"/>
				<circle fill="#FEEEE9" cx="-1.7" cy="16.8" r="0.1"/>
				<circle fill="#FEEEE9" cx="-1.1" cy="18.9" r="0.1"/>
				<circle fill="#FEEEE9" cx="-0.8" cy="18.8" r="0.1"/>
				<circle fill="#FEEEE9" cx="-1.5" cy="18.7" r="0.1"/>
				<circle fill="#FEEEE9" cx="-1.7" cy="18.3" r="0.1"/>
				<circle fill="#FEEEE9" cx="-1.1" cy="18.2" r="0.1"/>
				<circle fill="#FEEEE9" cx="-0.7" cy="18.4" r="0.1"/>
				<circle fill="#FEEEE9" cx="-0.2" cy="18.4" r="0.1"/>
				<circle fill="#FEEEE9" cx="-0.4" cy="18" r="0.1"/>
				<circle fill="#FEEEE9" cx="-0.3" cy="17.5" r="0.1"/>
				<circle fill="#FEEEE9" cx="-1" cy="17.7" r="0.1"/>
				<circle fill="#FEEEE9" cx="-0.2" cy="15.1" r="0.1"/>
				<circle fill="#FEEEE9" cx="-0.6" cy="15.2" r="0.1"/>
				<circle fill="#FEEEE9" cx="-0.3" cy="15.5" r="0.1"/>
				<circle fill="#FEEEE9" cx="-0.6" cy="15.7" r="0.1"/>
				<circle fill="#FEEEE9" cx="0.8" cy="18.5" r="0.1"/>
				<circle fill="#FEEEE9" cx="0.2" cy="15.6" r="0.1"/>
				<circle fill="#FEEEE9" cx="0.4" cy="16" r="0.1"/>
				<circle fill="#FEEEE9" cx="-0.2" cy="16" r="0.1"/>
				<circle fill="#FEEEE9" cx="-0.6" cy="16.2" r="0.1"/>
				<circle fill="#FEEEE9" cx="-1" cy="16.2" r="0.1"/>
				<circle fill="#FEEEE9" cx="-0.6" cy="16.6" r="0.1"/>
				<circle fill="#FEEEE9" cx="-1.1" cy="16.7" r="0.1"/>
				<circle fill="#FEEEE9" cx="-0.7" cy="17.1" r="0.1"/>
				<circle fill="#FEEEE9" cx="-1.7" cy="15.2" r="0.1"/>
				<circle fill="#FEEEE9" cx="-2.1" cy="15.4" r="0.1"/>
				<circle fill="#FEEEE9" cx="-1.3" cy="15.3" r="0.1"/>
				<circle fill="#FEEEE9" cx="-1.1" cy="15.7" r="0.1"/>
				<circle fill="#FEEEE9" cx="-1.5" cy="15.9" r="0.1"/>
				<circle fill="#FEEEE9" cx="-2" cy="15.9" r="0.1"/>
				<circle fill="#FEEEE9" cx="-2.5" cy="16" r="0.1"/>
				<circle fill="#FEEEE9" cx="-2.1" cy="16.3" r="0.1"/>
				<circle fill="#FEEEE9" cx="-2.6" cy="16.5" r="0.1"/>
				<circle fill="#FEEEE9" cx="-1.5" cy="16.5" r="0.1"/>
				<circle fill="#FEEEE9" cx="0.2" cy="18" r="0.1"/>
				<circle fill="#FEEEE9" cx="0.7" cy="17.9" r="0.1"/>
				<circle fill="#FEEEE9" cx="0.5" cy="17.5" r="0.1"/>
				<circle fill="#FEEEE9" cx="0.9" cy="17.4" r="0.1"/>
				<circle fill="#FEEEE9" cx="-0.3" cy="17.1" r="0.1"/>
				<circle fill="#FEEEE9" cx="0.1" cy="17.3" r="0.1"/>
				<circle fill="#FEEEE9" cx="0" cy="16.7" r="0.1"/>
				<circle fill="#FEEEE9" cx="0.6" cy="17" r="0.1"/>
				<circle fill="#FEEEE9" cx="1" cy="17" r="0.1"/>
				<circle fill="#FEEEE9" cx="1.4" cy="17" r="0.1"/>
				<circle fill="#FEEEE9" cx="1.2" cy="16.6" r="0.1"/>
				<circle fill="#FEEEE9" cx="1.7" cy="16.6" r="0.1"/>
				<circle fill="#FEEEE9" cx="0.6" cy="16.4" r="0.1"/>
				<circle fill="#FEEEE9" cx="1.2" cy="16.1" r="0.1"/>
				<circle fill="#FEEEE9" cx="1.8" cy="18.2" r="0.1"/>
				<circle fill="#FEEEE9" cx="2.2" cy="18.1" r="0.1"/>
				<circle fill="#FEEEE9" cx="1.4" cy="17.9" r="0.1"/>
				<circle fill="#FEEEE9" cx="1.3" cy="17.6" r="0.1"/>
				<circle fill="#FEEEE9" cx="1.8" cy="17.5" r="0.1"/>
				<circle fill="#FEEEE9" cx="2.3" cy="17.6" r="0.1"/>
				<circle fill="#FEEEE9" cx="2.7" cy="17.6" r="0.1"/>
				<circle fill="#FEEEE9" cx="2.5" cy="17.2" r="0.1"/>
				<circle fill="#FEEEE9" cx="3" cy="17.2" r="0.1"/>
				<circle fill="#FEEEE9" cx="1.9" cy="16.9" r="0.1"/>
				<circle fill="#FEEEE9" cx="2.9" cy="14.2" r="0.1"/>
				<circle fill="#FEEEE9" cx="2.3" cy="14.5" r="0.1"/>
				<circle fill="#FEEEE9" cx="2.7" cy="14.8" r="0.1"/>
				<circle fill="#FEEEE9" cx="2.3" cy="15" r="0.1"/>
				<circle fill="#FEEEE9" cx="3.6" cy="14.9" r="0.1"/>
				<circle fill="#FEEEE9" cx="3.1" cy="14.9" r="0.1"/>
				<circle fill="#FEEEE9" cx="3.3" cy="15.4" r="0.1"/>
				<circle fill="#FEEEE9" cx="2.8" cy="15.3" r="0.1"/>
				<circle fill="#FEEEE9" cx="2.4" cy="15.4" r="0.1"/>
				<circle fill="#FEEEE9" cx="1.9" cy="15.4" r="0.1"/>
				<circle fill="#FEEEE9" cx="2.3" cy="15.9" r="0.1"/>
				<circle fill="#FEEEE9" cx="1.8" cy="16" r="0.1"/>
				<circle fill="#FEEEE9" cx="2.2" cy="16.4" r="0.1"/>
				<circle fill="#FEEEE9" cx="1.2" cy="14.5" r="0.1"/>
				<circle fill="#FEEEE9" cx="0.9" cy="14.7" r="0.1"/>
				<circle fill="#FEEEE9" cx="1.7" cy="14.6" r="0.1"/>
				<circle fill="#FEEEE9" cx="1.9" cy="14.9" r="0.1"/>
				<circle fill="#FEEEE9" cx="1.4" cy="15.2" r="0.1"/>
				<circle fill="#FEEEE9" cx="0.9" cy="15.2" r="0.1"/>
				<circle fill="#FEEEE9" cx="0.5" cy="15.3" r="0.1"/>
				<circle fill="#FEEEE9" cx="0.9" cy="15.8" r="0.1"/>
				<circle fill="#FEEEE9" cx="2.8" cy="16.1" r="0.1"/>
				<circle fill="#FEEEE9" cx="1.4" cy="15.7" r="0.1"/>
			</g>
		</g>
	</g>
</g>
</svg>
