<?xml version="1.0" encoding="utf-8"?>
<!-- Generator: Adobe Illustrator 23.0.1, SVG Export Plug-In . SVG Version: 6.00 Build 0)  -->
<svg version="1.1" id="Layer_1" xmlns="http://www.w3.org/2000/svg" xmlns:xlink="http://www.w3.org/1999/xlink" x="0px" y="0px"
	 viewBox="0 0 72 72" enable-background="new 0 0 72 72" xml:space="preserve">
<g>
	<defs>
		<path id="SVGID_1_" d="M0,0v72h72V0H0z M45.7,49.1H26.3v-4.6h19.4V49.1z M45.7,40h-3.9v-8.8l-0.1,0.3L37.3,40h-2.5l-4.4-8.6
			l-0.1-0.3V40h-3.9V22.9h4L36,33.5l0.1,0.1l0.1-0.1l5.7-10.7h4V40z"/>
	</defs>
	<clipPath id="SVGID_2_">
		<use xlink:href="#SVGID_1_"  overflow="visible"/>
	</clipPath>
	<g clip-path="url(#SVGID_2_)">
		<defs>
			<rect id="SVGID_3_" x="-3.5" y="-6.6" width="78.6" height="78.6"/>
		</defs>
		<clipPath id="SVGID_4_">
			<use xlink:href="#SVGID_3_"  overflow="visible"/>
		</clipPath>
		<rect x="-3.5" y="-6.6" clip-path="url(#SVGID_4_)" fill="#F6CECD" width="78.6" height="78.6"/>
		<path clip-path="url(#SVGID_4_)" fill="#4AC2C4" d="M69.8,75.3c0,0-1.8-27.3-32.8-25.6C5,51.4-1.4,35-4.6,1.9
			c-2.8-29.8-2.9,76.2-2.9,76.2L69.8,75.3z"/>
		<g clip-path="url(#SVGID_4_)">
			<circle fill="#F15B30" cx="-25.2" cy="-13.3" r="1"/>
			<circle fill="#F15B30" cx="-25.2" cy="-9.8" r="1"/>
			<circle fill="#F15B30" cx="-22" cy="-11.5" r="1"/>
			<circle fill="#F15B30" cx="-21.5" cy="-8.5" r="0.5"/>
			<circle fill="#F15B30" cx="-19" cy="-18" r="1"/>
			<circle fill="#F15B30" cx="-20.3" cy="-14.6" r="1"/>
			<circle fill="#F15B30" cx="-16.7" cy="-15.2" r="1"/>
			<circle fill="#F15B30" cx="-17.9" cy="-11.2" r="0.8"/>
			<circle fill="#F15B30" cx="-17.9" cy="-7.8" r="1"/>
			<circle fill="#F15B30" cx="-17.9" cy="-4.2" r="1"/>
			<circle fill="#F15B30" cx="-14.8" cy="-6" r="1"/>
			<circle fill="#F15B30" cx="-14.8" cy="-2.5" r="0.9"/>
			<circle fill="#F15B30" cx="-13.6" cy="-10.4" r="1"/>
			<circle fill="#F15B30" cx="-11" cy="-5.9" r="0.7"/>
			<circle fill="#F15B30" cx="-27.3" cy="-1.3" r="1"/>
			<circle fill="#F15B30" cx="-26.8" cy="1.7" r="0.5"/>
			<circle fill="#F15B30" cx="-25.5" cy="-4.4" r="1"/>
			<circle fill="#F15B30" cx="-22.7" cy="-5.3" r="1"/>
			<circle fill="#F15B30" cx="-21.9" cy="-1.3" r="1"/>
			<circle fill="#F15B30" cx="-23.2" cy="2.4" r="1"/>
			<circle fill="#F15B30" cx="-23.2" cy="6" r="1"/>
			<circle fill="#F15B30" cx="-20" cy="4.2" r="1"/>
			<circle fill="#F15B30" cx="-16.5" cy="5.4" r="0.6"/>
			<circle fill="#F15B30" cx="-17.7" cy="-0.2" r="1.2"/>
			<circle fill="#F15B30" cx="2.8" cy="6.2" r="1"/>
			<circle fill="#F15B30" cx="1.8" cy="2.8" r="1"/>
			<circle fill="#F15B30" cx="-0.8" cy="5.4" r="1"/>
			<circle fill="#F15B30" cx="-2.2" cy="2.7" r="0.5"/>
			<circle fill="#F15B30" cx="-24.5" cy="13.8" r="1"/>
			<circle fill="#F15B30" cx="-1.6" cy="8.9" r="1"/>
			<circle fill="#F15B30" cx="-4.9" cy="10.4" r="1"/>
			<circle fill="#F15B30" cx="-4.8" cy="6.2" r="1"/>
			<circle fill="#F15B30" cx="-5.8" cy="3" r="0.7"/>
			<circle fill="#F15B30" cx="-5.9" cy="-0.4" r="1"/>
			<circle fill="#F15B30" cx="-9.1" cy="3.2" r="1"/>
			<circle fill="#F15B30" cx="-10.4" cy="-1.2" r="0.9"/>
			<circle fill="#F15B30" cx="-13.3" cy="2.2" r="1"/>
			<circle fill="#F15B30" cx="1.3" cy="-5.9" r="1"/>
			<circle fill="#F15B30" cx="0" cy="-8.6" r="0.5"/>
			<circle fill="#F15B30" cx="0.5" cy="-2.4" r="1"/>
			<circle fill="#F15B30" cx="-1.9" cy="-0.7" r="1"/>
			<circle fill="#F15B30" cx="-3.8" cy="-4.4" r="1"/>
			<circle fill="#F15B30" cx="-3.7" cy="-8.3" r="1"/>
			<circle fill="#F15B30" cx="-4.7" cy="-11.7" r="1"/>
			<circle fill="#F15B30" cx="-7.2" cy="-9.1" r="1"/>
			<circle fill="#F15B30" cx="-8.2" cy="-12.5" r="1"/>
			<circle fill="#F15B30" cx="-8.2" cy="-4.2" r="1.2"/>
			<circle fill="#F15B30" cx="-20" cy="9.4" r="1"/>
			<circle fill="#F15B30" cx="-19.5" cy="13.4" r="1"/>
			<circle fill="#F15B30" cx="-16.3" cy="11.7" r="1"/>
			<circle fill="#F15B30" cx="-15.8" cy="14.7" r="0.5"/>
			<circle fill="#F15B30" cx="-13.2" cy="5.3" r="1"/>
			<circle fill="#F15B30" cx="-14.5" cy="8.6" r="1"/>
			<circle fill="#F15B30" cx="-9.9" cy="8" r="1"/>
			<circle fill="#F15B30" cx="-12.2" cy="12" r="0.8"/>
			<circle fill="#F15B30" cx="-12.2" cy="15.4" r="1"/>
			<circle fill="#F15B30" cx="-12.2" cy="19" r="1"/>
			<circle fill="#F15B30" cx="-9" cy="17.2" r="1"/>
			<circle fill="#F15B30" cx="-9" cy="20.7" r="0.9"/>
			<circle fill="#F15B30" cx="-7.8" cy="12.8" r="1"/>
			<circle fill="#F15B30" cx="-5.2" cy="17.3" r="0.7"/>
			<circle fill="#F15B30" cx="-21.5" cy="21.9" r="1"/>
			<circle fill="#F15B30" cx="-21" cy="24.9" r="0.5"/>
			<circle fill="#F15B30" cx="-19.8" cy="18.8" r="1"/>
			<circle fill="#F15B30" cx="-17" cy="17.9" r="1"/>
			<circle fill="#F15B30" cx="-16.2" cy="21.9" r="1"/>
			<circle fill="#F15B30" cx="-17.4" cy="25.6" r="1"/>
			<circle fill="#F15B30" cx="-17.4" cy="29.2" r="1"/>
			<circle fill="#F15B30" cx="-14.2" cy="27.4" r="1"/>
			<circle fill="#F15B30" cx="-14.2" cy="31" r="1"/>
			<circle fill="#F15B30" cx="-11.9" cy="23" r="1.2"/>
			<circle fill="#F15B30" cx="9.8" cy="30.1" r="1"/>
			<circle fill="#F15B30" cx="7.5" cy="26" r="1"/>
			<circle fill="#F15B30" cx="5" cy="28.6" r="1"/>
			<circle fill="#F15B30" cx="3.6" cy="25.9" r="0.5"/>
			<circle fill="#F15B30" cx="3.9" cy="35.6" r="1"/>
			<circle fill="#F15B30" cx="4.2" cy="32.1" r="0.8"/>
			<circle fill="#F15B30" cx="0.2" cy="33.6" r="1"/>
			<circle fill="#F15B30" cx="0.9" cy="29.4" r="1"/>
			<circle fill="#F15B30" cx="0" cy="26.2" r="0.7"/>
			<circle fill="#F15B30" cx="-0.2" cy="22.8" r="1"/>
			<circle fill="#F15B30" cx="-3.6" cy="25.4" r="1"/>
			<circle fill="#F15B30" cx="-4.6" cy="22" r="0.9"/>
			<circle fill="#F15B30" cx="-7.6" cy="25.4" r="1"/>
			<circle fill="#F15B30" cx="7.1" cy="17.3" r="1"/>
			<circle fill="#F15B30" cx="5.7" cy="14.6" r="0.5"/>
			<circle fill="#F15B30" cx="6.3" cy="20.8" r="1"/>
			<circle fill="#F15B30" cx="3.9" cy="22.5" r="1"/>
			<circle fill="#F15B30" cx="1.3" cy="18.9" r="1"/>
			<circle fill="#F15B30" cx="2.5" cy="14.8" r="1"/>
			<circle fill="#F15B30" cx="1.2" cy="10.5" r="1"/>
			<circle fill="#F15B30" cx="-2.6" cy="15.1" r="1"/>
			<circle fill="#F15B30" cx="-5.1" cy="30" r="1"/>
			<circle fill="#F15B30" cx="-2.4" cy="19" r="1.2"/>
		</g>
		<path clip-path="url(#SVGID_4_)" fill="#2B2B49" d="M-2.7-10.7c0,0,13.3,8.6,12.3,20.7c-1,10.9,8.5,26.4,30.7,18.9
			c23.5-7.9,35.1,13.5,38.1,30.5l14.2-5.2l-1.2-78.6l-94.9,3L-2.7-10.7z"/>
		<path clip-path="url(#SVGID_4_)" fill="#F15B30" d="M76.5,32.3c0,0-6.8-3.9-6.3-9.8c0.5-6.1-1.9-12.8-10.5-13
			C51,9.3,36.6,13,30-3.7S8.6-14.4,8.6-14.4v-4.9h75.3v51.6H76.5z"/>
		<path clip-path="url(#SVGID_4_)" fill="#2B2B49" d="M19.3,65.8c0,0,12.6-7.3,10.5-2.3c-1.9,4.6-0.7,5.1,5.6,1.6
			c6.3-3.5,9.6-6.9,2.2,1.6c-3.7,4.3,2.8,0.4,5.7-1.2c2.7-1.5,3.9-1.5,1.5,2.4s3.9-0.8,3.7,1.2c-0.2,2-6.3,10.7-6.3,10.7l-18.9,2.6
			L19.3,65.8z"/>
		<path clip-path="url(#SVGID_4_)" fill="#C1E5E1" d="M-5,3.7c0,0,10,4.6,7.5,17.2S-2.4,38.5,7,47.7s16.9,5.5,18.6,29.5H-8.6L-5,3.7
			z"/>
		<circle clip-path="url(#SVGID_4_)" fill="#F15B30" cx="64.4" cy="33.9" r="5.4"/>
		<path clip-path="url(#SVGID_4_)" fill="#F15B30" d="M14.7,54.2c-2.4,3.7-5.7,2-7.8,2.8c-2.1,0.9-1.3,6.2-5.9,4.3
			c-0.4-0.2-0.8-0.3-1.2-0.3l0.7-5.3c0,0-9.5-0.2-14.6,0.9s-4,5.2-4.4,9.2c-0.4,4-2.1,5.5-5.2,7.5c-3,2,0.6,6.1,3.4,1.8
			c2.4-3.7,5.7-2,7.8-2.8c2.1-0.9,1.3-6.2,5.9-4.3c0.4,0.2,0.8,0.3,1.2,0.3L-6,73.7c0,0,9.5,0.2,14.6-0.9s4-5.2,4.4-9.2
			c0.4-4,2.1-5.5,5.2-7.5C21.2,54.1,17.5,50,14.7,54.2z"/>
		<g clip-path="url(#SVGID_4_)">
			<circle fill="#FEEEE9" cx="-10.8" cy="75.2" r="0.5"/>
			<circle fill="#FEEEE9" cx="-8.9" cy="75.2" r="0.5"/>
			<circle fill="#FEEEE9" cx="-9.8" cy="73.5" r="0.5"/>
			<circle fill="#FEEEE9" cx="-8.3" cy="73.3" r="0.3"/>
			<circle fill="#FEEEE9" cx="-13.1" cy="72" r="0.5"/>
			<circle fill="#FEEEE9" cx="-11.4" cy="72.6" r="0.5"/>
			<circle fill="#FEEEE9" cx="-11.7" cy="70.8" r="0.5"/>
			<circle fill="#FEEEE9" cx="-9.6" cy="71.4" r="0.4"/>
			<circle fill="#FEEEE9" cx="-7.9" cy="71.4" r="0.5"/>
			<circle fill="#FEEEE9" cx="-6.1" cy="71.4" r="0.5"/>
			<circle fill="#FEEEE9" cx="-7" cy="69.8" r="0.5"/>
			<circle fill="#FEEEE9" cx="-5.2" cy="69.8" r="0.5"/>
			<circle fill="#FEEEE9" cx="-9.3" cy="69.2" r="0.5"/>
			<circle fill="#FEEEE9" cx="-7" cy="67.8" r="0.4"/>
			<circle fill="#FEEEE9" cx="-4.6" cy="76.2" r="0.5"/>
			<circle fill="#FEEEE9" cx="-3.1" cy="75.9" r="0.3"/>
			<circle fill="#FEEEE9" cx="-6.2" cy="75.3" r="0.5"/>
			<circle fill="#FEEEE9" cx="-6.7" cy="73.9" r="0.5"/>
			<circle fill="#FEEEE9" cx="-4.6" cy="73.5" r="0.5"/>
			<circle fill="#FEEEE9" cx="-2.7" cy="74.1" r="0.5"/>
			<circle fill="#FEEEE9" cx="-0.9" cy="74.1" r="0.5"/>
			<circle fill="#FEEEE9" cx="-1.8" cy="72.5" r="0.5"/>
			<circle fill="#FEEEE9" cx="-1.2" cy="70.7" r="0.3"/>
			<circle fill="#FEEEE9" cx="-4" cy="71.3" r="0.6"/>
			<circle fill="#FEEEE9" cx="-0.7" cy="60.8" r="0.5"/>
			<circle fill="#FEEEE9" cx="-2.5" cy="61.3" r="0.5"/>
			<circle fill="#FEEEE9" cx="-1.1" cy="62.6" r="0.5"/>
			<circle fill="#FEEEE9" cx="-2.6" cy="63.3" r="0.3"/>
			<circle fill="#FEEEE9" cx="3.1" cy="74.8" r="0.5"/>
			<circle fill="#FEEEE9" cx="0.6" cy="63" r="0.5"/>
			<circle fill="#FEEEE9" cx="1.4" cy="64.7" r="0.5"/>
			<circle fill="#FEEEE9" cx="-0.7" cy="64.7" r="0.5"/>
			<circle fill="#FEEEE9" cx="-2.4" cy="65.2" r="0.4"/>
			<circle fill="#FEEEE9" cx="-4.2" cy="65.2" r="0.5"/>
			<circle fill="#FEEEE9" cx="-2.3" cy="66.9" r="0.5"/>
			<circle fill="#FEEEE9" cx="-4.6" cy="67.5" r="0.5"/>
			<circle fill="#FEEEE9" cx="-2.8" cy="69.1" r="0.5"/>
			<circle fill="#FEEEE9" cx="-6.9" cy="61.5" r="0.5"/>
			<circle fill="#FEEEE9" cx="-8.3" cy="62.2" r="0.3"/>
			<circle fill="#FEEEE9" cx="-5.2" cy="61.9" r="0.5"/>
			<circle fill="#FEEEE9" cx="-4.3" cy="63.2" r="0.5"/>
			<circle fill="#FEEEE9" cx="-6.2" cy="64.2" r="0.5"/>
			<circle fill="#FEEEE9" cx="-8.2" cy="64.1" r="0.5"/>
			<circle fill="#FEEEE9" cx="-9.9" cy="64.6" r="0.5"/>
			<circle fill="#FEEEE9" cx="-8.6" cy="65.9" r="0.5"/>
			<circle fill="#FEEEE9" cx="-10.3" cy="66.4" r="0.5"/>
			<circle fill="#FEEEE9" cx="-6.1" cy="66.4" r="0.6"/>
			<circle fill="#FEEEE9" cx="0.9" cy="72.5" r="0.5"/>
			<circle fill="#FEEEE9" cx="3" cy="72.2" r="0.5"/>
			<circle fill="#FEEEE9" cx="2" cy="70.6" r="0.5"/>
			<circle fill="#FEEEE9" cx="3.6" cy="70.3" r="0.3"/>
			<circle fill="#FEEEE9" cx="-1.2" cy="69" r="0.5"/>
			<circle fill="#FEEEE9" cx="0.5" cy="69.7" r="0.5"/>
			<circle fill="#FEEEE9" cx="0.2" cy="67.3" r="0.5"/>
			<circle fill="#FEEEE9" cx="2.2" cy="68.5" r="0.4"/>
			<circle fill="#FEEEE9" cx="4" cy="68.5" r="0.5"/>
			<circle fill="#FEEEE9" cx="5.8" cy="68.5" r="0.5"/>
			<circle fill="#FEEEE9" cx="4.9" cy="66.8" r="0.5"/>
			<circle fill="#FEEEE9" cx="6.7" cy="66.8" r="0.5"/>
			<circle fill="#FEEEE9" cx="2.6" cy="66.2" r="0.5"/>
			<circle fill="#FEEEE9" cx="4.9" cy="64.9" r="0.4"/>
			<circle fill="#FEEEE9" cx="7.3" cy="73.3" r="0.5"/>
			<circle fill="#FEEEE9" cx="8.8" cy="73" r="0.3"/>
			<circle fill="#FEEEE9" cx="5.7" cy="72.4" r="0.5"/>
			<circle fill="#FEEEE9" cx="5.2" cy="70.9" r="0.5"/>
			<circle fill="#FEEEE9" cx="7.3" cy="70.5" r="0.5"/>
			<circle fill="#FEEEE9" cx="9.2" cy="71.2" r="0.5"/>
			<circle fill="#FEEEE9" cx="11" cy="71.2" r="0.5"/>
			<circle fill="#FEEEE9" cx="10.1" cy="69.5" r="0.5"/>
			<circle fill="#FEEEE9" cx="11.9" cy="69.5" r="0.5"/>
			<circle fill="#FEEEE9" cx="7.9" cy="68.3" r="0.6"/>
			<circle fill="#FEEEE9" cx="11.5" cy="57.2" r="0.5"/>
			<circle fill="#FEEEE9" cx="9.4" cy="58.4" r="0.5"/>
			<circle fill="#FEEEE9" cx="10.7" cy="59.7" r="0.5"/>
			<circle fill="#FEEEE9" cx="9.3" cy="60.4" r="0.3"/>
			<circle fill="#FEEEE9" cx="14.3" cy="60.2" r="0.5"/>
			<circle fill="#FEEEE9" cx="12.5" cy="60.1" r="0.4"/>
			<circle fill="#FEEEE9" cx="13.3" cy="62.1" r="0.5"/>
			<circle fill="#FEEEE9" cx="11.2" cy="61.7" r="0.5"/>
			<circle fill="#FEEEE9" cx="9.5" cy="62.2" r="0.4"/>
			<circle fill="#FEEEE9" cx="7.7" cy="62.3" r="0.5"/>
			<circle fill="#FEEEE9" cx="9.1" cy="64.1" r="0.5"/>
			<circle fill="#FEEEE9" cx="7.3" cy="64.6" r="0.5"/>
			<circle fill="#FEEEE9" cx="9.1" cy="66.1" r="0.5"/>
			<circle fill="#FEEEE9" cx="5" cy="58.6" r="0.5"/>
			<circle fill="#FEEEE9" cx="3.5" cy="59.3" r="0.3"/>
			<circle fill="#FEEEE9" cx="6.7" cy="59" r="0.5"/>
			<circle fill="#FEEEE9" cx="7.6" cy="60.2" r="0.5"/>
			<circle fill="#FEEEE9" cx="5.7" cy="61.2" r="0.5"/>
			<circle fill="#FEEEE9" cx="3.7" cy="61.1" r="0.5"/>
			<circle fill="#FEEEE9" cx="2" cy="61.7" r="0.5"/>
			<circle fill="#FEEEE9" cx="3.8" cy="63.6" r="0.5"/>
			<circle fill="#FEEEE9" cx="11.5" cy="64.8" r="0.5"/>
			<circle fill="#FEEEE9" cx="5.8" cy="63.5" r="0.6"/>
		</g>
	</g>
</g>
</svg>
