<?xml version="1.0" encoding="utf-8"?>
<!-- Generator: Adobe Illustrator 23.0.1, SVG Export Plug-In . SVG Version: 6.00 Build 0)  -->
<svg version="1.1" id="Layer_1" xmlns="http://www.w3.org/2000/svg" xmlns:xlink="http://www.w3.org/1999/xlink" x="0px" y="0px"
	 viewBox="0 0 4000 4000" enable-background="new 0 0 4000 4000" xml:space="preserve">
<g>
	<defs>
		<rect id="SVGID_1_" y="0" width="4000" height="4000"/>
	</defs>
	<clipPath id="SVGID_2_">
		<use xlink:href="#SVGID_1_"  overflow="visible"/>
	</clipPath>
	<rect y="0" clip-path="url(#SVGID_2_)" fill="#F7CDCD" width="4000" height="4000"/>
	<path clip-path="url(#SVGID_2_)" fill="#47C1C3" d="M3730,4168c0,0-92.1-1391.3-1669-1304C435,2954,105,2120-54,434
		c-143.2-1518.2-147,3877-147,3877S3730,4168,3730,4168z"/>
	<g clip-path="url(#SVGID_2_)">
		<circle fill="#F25930" cx="-1104.9" cy="-340.6" r="52.3"/>
		<circle fill="#F25930" cx="-1104.9" cy="-160.3" r="52.3"/>
		<circle fill="#F25930" cx="-942.6" cy="-250.5" r="52.3"/>
		<circle fill="#F25930" cx="-916.5" cy="-96.3" r="26.1"/>
		
			<ellipse transform="matrix(0.9994 -3.542652e-02 3.542652e-02 0.9994 19.9451 -28.3591)" fill="#F25930" cx="-790.3" cy="-577" rx="52.3" ry="52.3"/>
		
			<ellipse transform="matrix(0.122 -0.9925 0.9925 0.122 -344.6789 -1206.3201)" fill="#F25930" cx="-854.1" cy="-408.3" rx="52.3" ry="52.3"/>
		
			<ellipse transform="matrix(0.122 -0.9925 0.9925 0.122 -156.7169 -1047.5457)" fill="#F25930" cx="-670.4" cy="-435.2" rx="52.3" ry="52.3"/>
		
			<ellipse transform="matrix(9.615061e-02 -0.9954 0.9954 9.615061e-02 -434.2807 -939.2059)" fill="#F25930" cx="-734.3" cy="-230.5" rx="40.6" ry="40.6"/>
		<circle fill="#F25930" cx="-734.3" cy="-58.4" r="52.3"/>
		<circle fill="#F25930" cx="-734.3" cy="122" r="52.3"/>
		<circle fill="#F25930" cx="-572" cy="31.8" r="52.3"/>
		<circle fill="#F25930" cx="-572" cy="212.1" r="45.1"/>
		
			<ellipse transform="matrix(0.2803 -0.9599 0.9599 0.2803 -183.5292 -632.7496)" fill="#F25930" cx="-513.7" cy="-194" rx="52.3" ry="52.3"/>
		
			<ellipse transform="matrix(0.596 -0.803 0.803 0.596 -181.8255 -291.3589)" fill="#F25930" cx="-380.4" cy="35" rx="35.5" ry="35.5"/>
		<circle fill="#F25930" cx="-1209.5" cy="268.9" r="52.3"/>
		<circle fill="#F25930" cx="-1183.4" cy="423.1" r="26.1"/>
		
			<ellipse transform="matrix(0.228 -0.9736 0.9736 0.228 -973.498 -1005.8003)" fill="#F25930" cx="-1121" cy="111" rx="52.3" ry="52.3"/>
		
			<ellipse transform="matrix(0.5992 -0.8006 0.8006 0.5992 -443.6463 -756.4529)" fill="#F25930" cx="-977.3" cy="64.9" rx="52.3" ry="52.3"/>
		
			<ellipse transform="matrix(0.8804 -0.4743 0.4743 0.8804 -241.2107 -411.7131)" fill="#F25930" cx="-936.8" cy="272.3" rx="52.3" ry="52.3"/>
		<circle fill="#F25930" cx="-1001.2" cy="461" r="52.3"/>
		<circle fill="#F25930" cx="-1001.2" cy="641.3" r="52.3"/>
		<circle fill="#F25930" cx="-838.9" cy="551.2" r="52.3"/>
		<circle fill="#F25930" cx="-663.1" cy="612.5" r="31.6"/>
		
			<ellipse transform="matrix(0.4806 -0.8769 0.8769 0.4806 -660.5018 -464.1618)" fill="#F25930" cx="-722.1" cy="325.5" rx="58.6" ry="58.6"/>
		
			<ellipse transform="matrix(0.9901 -0.1404 0.1404 0.9901 -88.5145 51.295)" fill="#F25930" cx="319.2" cy="652.9" rx="52.3" ry="52.3"/>
		
			<ellipse transform="matrix(0.996 -8.908035e-02 8.908035e-02 0.996 -41.696 25.7734)" fill="#F25930" cx="267.9" cy="480" rx="52.3" ry="52.3"/>
		
			<ellipse transform="matrix(0.4124 -0.911 0.911 0.4124 -477.0647 485.7029)" fill="#F25930" cx="138" cy="612.7" rx="52.3" ry="52.3"/>
		
			<ellipse transform="matrix(0.5887 -0.8083 0.8083 0.5887 -353.3972 250.0468)" fill="#F25930" cx="69" cy="472.3" rx="26.1" ry="26.1"/>
		
			<ellipse transform="matrix(0.1315 -0.9913 0.9913 0.1315 -1956.4596 -157.0118)" fill="#F25930" cx="-1067.8" cy="1038.1" rx="52.3" ry="52.3"/>
		
			<ellipse transform="matrix(0.4788 -0.8779 0.8779 0.4788 -641.7446 497.4924)" fill="#F25930" cx="98.1" cy="789.2" rx="52.3" ry="52.3"/>
		
			<ellipse transform="matrix(0.7071 -0.7071 0.7071 0.7071 -633.8564 204.267)" fill="#F25930" cx="-70.4" cy="867.3" rx="52.3" ry="52.3"/>
		
			<ellipse transform="matrix(0.6351 -0.7725 0.7725 0.6351 -528.8843 186.161)" fill="#F25930" cx="-67.4" cy="652.8" rx="52.3" ry="52.3"/>
		
			<ellipse transform="matrix(0.9804 -0.1968 0.1968 0.9804 -98.2912 -13.3602)" fill="#F25930" cx="-116.4" cy="487.9" rx="36.1" ry="36.1"/>
		
			<ellipse transform="matrix(0.8267 -0.5626 0.5626 0.8267 -198.2572 -14.2876)" fill="#F25930" cx="-122.3" cy="314.7" rx="52.3" ry="52.3"/>
		
			<ellipse transform="matrix(0.5725 -0.8199 0.8199 0.5725 -528.6591 -18.3816)" fill="#F25930" cx="-282" cy="497.8" rx="52.3" ry="52.3"/>
		
			<ellipse transform="matrix(0.9042 -0.4272 0.4272 0.9042 -150.8042 -122.7388)" fill="#F25930" cx="-349" cy="274.7" rx="45.1" ry="45.1"/>
		
			<ellipse transform="matrix(0.5981 -0.8014 0.8014 0.5981 -558.7614 -221.071)" fill="#F25930" cx="-499.8" cy="446.5" rx="52.3" ry="52.3"/>
		
			<ellipse transform="matrix(0.8348 -0.5506 0.5506 0.8348 19.2769 141.845)" fill="#F25930" cx="246" cy="38.8" rx="52.3" ry="52.3"/>
		
			<ellipse transform="matrix(0.4765 -0.8791 0.8791 0.4765 181.9521 102.4649)" fill="#F25930" cx="177" cy="-101.6" rx="26.1" ry="26.1"/>
		
			<ellipse transform="matrix(0.7794 -0.6265 0.6265 0.7794 -89.4563 176.6399)" fill="#F25930" cx="206.1" cy="215.4" rx="52.3" ry="52.3"/>
		
			<ellipse transform="matrix(0.8093 -0.5874 0.5874 0.8093 -160.9998 105.1784)" fill="#F25930" cx="81.5" cy="300.5" rx="52.3" ry="52.3"/>
		
			<ellipse transform="matrix(0.1694 -0.9855 0.9855 0.1694 -125.2524 77.8147)" fill="#F25930" cx="-16.5" cy="113.2" rx="52.3" ry="52.3"/>
		
			<ellipse transform="matrix(0.1497 -0.9887 0.9887 0.1497 77.9313 -81.4097)" fill="#F25930" cx="-8.4" cy="-86" rx="52.3" ry="52.3"/>
		
			<ellipse transform="matrix(0.9883 -0.1523 0.1523 0.9883 38.7443 -12.118)" fill="#F25930" cx="-59.7" cy="-258.9" rx="52.3" ry="52.3"/>
		
			<ellipse transform="matrix(0.9831 -0.1831 0.1831 0.9831 19.911 -36.8571)" fill="#F25930" cx="-189.6" cy="-126.2" rx="52.3" ry="52.3"/>
		
			<ellipse transform="matrix(0.3713 -0.9285 0.9285 0.3713 126.2452 -411.8001)" fill="#F25930" cx="-241" cy="-299.1" rx="52.3" ry="52.3"/>
		
			<ellipse transform="matrix(0.9908 -0.1351 0.1351 0.9908 -18.8442 -30.9505)" fill="#F25930" cx="-237.4" cy="123.3" rx="58.6" ry="58.6"/>
		<circle fill="#F25930" cx="-838.9" cy="815.4" r="52.3"/>
		<circle fill="#F25930" cx="-811.9" cy="1020" r="52.3"/>
		<circle fill="#F25930" cx="-649.6" cy="929.9" r="52.3"/>
		<circle fill="#F25930" cx="-623.4" cy="1084.1" r="26.1"/>
		
			<ellipse transform="matrix(0.8151 -0.5793 0.5793 0.8151 -443.7287 -172.8878)" fill="#F25930" cx="-492.7" cy="608.7" rx="52.3" ry="52.3"/>
		
			<ellipse transform="matrix(4.155951e-02 -0.9991 0.9991 4.155951e-02 -1309.0833 179.2807)" fill="#F25930" cx="-561.1" cy="772" rx="52.3" ry="52.3"/>
		
			<ellipse transform="matrix(0.2311 -0.9729 0.9729 0.2311 -973.4552 258.1017)" fill="#F25930" cx="-323.4" cy="744.9" rx="52.3" ry="52.3"/>
		
			<ellipse transform="matrix(0.7071 -0.7071 0.7071 0.7071 -800.8789 -33.8004)" fill="#F25930" cx="-441.2" cy="949.8" rx="40.6" ry="40.6"/>
		<circle fill="#F25930" cx="-441.3" cy="1121.9" r="52.3"/>
		<circle fill="#F25930" cx="-441.3" cy="1302.3" r="52.3"/>
		<circle fill="#F25930" cx="-279" cy="1212.1" r="52.3"/>
		<circle fill="#F25930" cx="-279" cy="1392.4" r="45.1"/>
		
			<ellipse transform="matrix(0.4442 -0.8959 0.8959 0.4442 -1006.3098 350.4676)" fill="#F25930" cx="-220.7" cy="986.3" rx="52.3" ry="52.3"/>
		
			<ellipse transform="matrix(0.5789 -0.8154 0.8154 0.5789 -1027.8154 440.5616)" fill="#F25930" cx="-87.4" cy="1215.3" rx="35.5" ry="35.5"/>
		<circle fill="#F25930" cx="-916.5" cy="1449.3" r="52.3"/>
		<circle fill="#F25930" cx="-890.3" cy="1603.4" r="26.1"/>
		
			<ellipse transform="matrix(0.7071 -0.7071 0.7071 0.7071 -1155.6387 -207.2546)" fill="#F25930" cx="-828" cy="1291.4" rx="52.3" ry="52.3"/>
		
			<ellipse transform="matrix(0.2311 -0.9729 0.9729 0.2311 -1737.6307 291.7013)" fill="#F25930" cx="-684.3" cy="1245.2" rx="52.3" ry="52.3"/>
		
			<ellipse transform="matrix(0.9986 -5.327580e-02 5.327580e-02 0.9986 -78.3041 -32.2311)" fill="#F25930" cx="-643.7" cy="1452.6" rx="52.3" ry="52.3"/>
		<circle fill="#F25930" cx="-708.2" cy="1641.3" r="52.3"/>
		<circle fill="#F25930" cx="-708.2" cy="1821.7" r="52.3"/>
		<circle fill="#F25930" cx="-545.9" cy="1731.5" r="52.3"/>
		<circle fill="#F25930" cx="-545.9" cy="1911.8" r="52.3"/>
		
			<ellipse transform="matrix(0.4806 -0.8769 0.8769 0.4806 -1543.3582 405.8691)" fill="#F25930" cx="-429" cy="1505.8" rx="58.6" ry="58.6"/>
		
			<ellipse transform="matrix(0.9901 -0.1404 0.1404 0.9901 -255.6815 113.6709)" fill="#F25930" cx="677.7" cy="1868.7" rx="52.3" ry="52.3"/>
		
			<ellipse transform="matrix(0.9901 -0.1404 0.1404 0.9901 -227.5796 95.2158)" fill="#F25930" cx="561" cy="1660.4" rx="52.3" ry="52.3"/>
		
			<ellipse transform="matrix(0.4198 -0.9076 0.9076 0.4198 -1377.2454 1431.4158)" fill="#F25930" cx="431" cy="1793" rx="52.3" ry="52.3"/>
		
			<ellipse transform="matrix(0.9888 -0.1491 0.1491 0.9888 -242.3497 72.4543)" fill="#F25930" cx="362.1" cy="1652.6" rx="26.1" ry="26.1"/>
		
			<ellipse transform="matrix(0.5025 -0.8646 0.8646 0.5025 -1670.3334 1396.2217)" fill="#F25930" cx="378" cy="2149.4" rx="52.3" ry="52.3"/>
		
			<ellipse transform="matrix(0.9727 -0.2319 0.2319 0.9727 -445.9985 144.3678)" fill="#F25930" cx="391.2" cy="1969.5" rx="40.6" ry="40.6"/>
		
			<ellipse transform="matrix(0.7071 -0.7071 0.7071 0.7071 -1392.5074 734.227)" fill="#F25930" cx="190" cy="2048" rx="52.3" ry="52.3"/>
		
			<ellipse transform="matrix(0.9981 -6.197703e-02 6.197703e-02 0.9981 -113.1799 17.5084)" fill="#F25930" cx="225.6" cy="1833.2" rx="52.3" ry="52.3"/>
		
			<ellipse transform="matrix(0.7954 -0.6061 0.6061 0.7954 -974.9434 448.4301)" fill="#F25930" cx="176.7" cy="1668.2" rx="36.1" ry="36.1"/>
		
			<ellipse transform="matrix(0.887 -0.4618 0.4618 0.887 -671.0813 247.7877)" fill="#F25930" cx="170.7" cy="1495" rx="52.3" ry="52.3"/>
		
			<ellipse transform="matrix(0.8267 -0.5626 0.5626 0.8267 -916.7281 279.5388)" fill="#F25930" cx="-4.6" cy="1627.9" rx="52.3" ry="52.3"/>
		
			<ellipse transform="matrix(0.9262 -0.3771 0.3771 0.9262 -552.853 86.3461)" fill="#F25930" cx="-55.9" cy="1455.1" rx="45.1" ry="45.1"/>
		
			<ellipse transform="matrix(0.5981 -0.8014 0.8014 0.5981 -1386.9407 488.2084)" fill="#F25930" cx="-206.7" cy="1626.9" rx="52.3" ry="52.3"/>
		
			<ellipse transform="matrix(0.8267 -0.5626 0.5626 0.8267 -592.5085 514.5455)" fill="#F25930" cx="539" cy="1219.1" rx="52.3" ry="52.3"/>
		
			<ellipse transform="matrix(0.7643 -0.6449 0.6449 0.7643 -584.8901 557.4697)" fill="#F25930" cx="470.1" cy="1078.8" rx="26.1" ry="26.1"/>
		
			<ellipse transform="matrix(0.8334 -0.5527 0.5527 0.8334 -688.239 508.4633)" fill="#F25930" cx="499.2" cy="1395.7" rx="52.3" ry="52.3"/>
		
			<ellipse transform="matrix(0.8683 -0.4961 0.4961 0.8683 -685.319 380.8888)" fill="#F25930" cx="374.5" cy="1480.9" rx="52.3" ry="52.3"/>
		
			<ellipse transform="matrix(0.9992 -3.886368e-02 3.886368e-02 0.9992 -50.258 10.5788)" fill="#F25930" cx="247" cy="1298" rx="49.6" ry="49.6"/>
		
			<ellipse transform="matrix(0.1783 -0.984 0.984 0.1783 -818.6536 1197.4576)" fill="#F25930" cx="307.7" cy="1088.9" rx="49.6" ry="49.6"/>
		
			<ellipse transform="matrix(0.996 -8.908035e-02 8.908035e-02 0.996 -76.5221 25.0087)" fill="#F25930" cx="241.9" cy="869.8" rx="49.6" ry="49.6"/>
		
			<ellipse transform="matrix(0.1992 -0.98 0.98 0.1992 -1046.9457 928.3343)" fill="#F25930" cx="44.6" cy="1104.8" rx="52.3" ry="52.3"/>
		
			<ellipse transform="matrix(0.4198 -0.9076 0.9076 0.4198 -1738.3416 1009.0185)" fill="#F25930" cx="-79.9" cy="1864.2" rx="52.3" ry="52.3"/>
		
			<ellipse transform="matrix(0.9461 -0.3238 0.3238 0.9461 -419.0606 88.2332)" fill="#F25930" cx="55.7" cy="1303.6" rx="58.6" ry="58.6"/>
	</g>
	<path clip-path="url(#SVGID_2_)" fill="#2A2A49" d="M42-208c0,0,679,438,625,1054c-48.5,553.6,433.6,1342.3,1563,964
		c1197-401,1786,687,1938,1554l723-267l-62-4001L0-752L42-208z"/>
	<path clip-path="url(#SVGID_2_)" fill="#F25930" d="M4070,1982c0,0-348.1-199-322-501c27-312-97-651-535-660S2042,999,1703,151
		S614-394,614-394v-250h3831v2626H4070z"/>
	<path clip-path="url(#SVGID_2_)" fill="#2A2A49" d="M1159,3682.6c0,0,638.7-372.7,533.5-116.5c-96.9,236-35.9,259.1,284.7,80.6
		s490-349.7,112.6,81.5c-189.4,216.4,141.4,19.6,288.4-63.1c139.9-78.6,196.8-78.6,74.3,122.3c-122.5,200.9,199.3-39.8,188.2,63.1
		c-11.1,102.9-320.6,544.5-320.6,544.5L1358.3,4525L1159,3682.6z"/>
	<path clip-path="url(#SVGID_2_)" fill="#BDEFE7" d="M-74,525c0,0,509,232,384,875S59,2298,533,2764s858,281,947,1499H-261L-74,525z
		"/>
	<circle clip-path="url(#SVGID_2_)" fill="#F25930" cx="3453.5" cy="2060.5" r="276.5"/>
	<path clip-path="url(#SVGID_2_)" fill="#F25930" d="M926.4,3096.9C802.9,3282.9,637,3197,530,3241s-68,313-300,221
		c-21.9-8.7-42.4-13.8-61.5-15.9l34.8-269c0,0-482-9-741,46s-205,267-223,470s-107,278-264,382c-154.8,102.6,32,308,174.6,93.1
		c123.5-186,289.4-100.1,396.4-144.1s68-313,300-221c21.9,8.7,42.4,13.8,61.5,15.9l-34.8,269c0,0,482,9,741-46s205-267,223-470
		s107-278,264-382C1255.8,3087.4,1069,2882,926.4,3096.9z"/>
	<g clip-path="url(#SVGID_2_)">
		<circle fill="#FFEDE9" cx="-368.6" cy="4160.3" r="26.8"/>
		<circle fill="#FFEDE9" cx="-276.2" cy="4160.3" r="26.8"/>
		<circle fill="#FFEDE9" cx="-322.4" cy="4077.1" r="26.8"/>
		<circle fill="#FFEDE9" cx="-243.3" cy="4063.7" r="13.4"/>
		
			<ellipse transform="matrix(0.9994 -3.542650e-02 3.542650e-02 0.9994 -141.9771 -14.8437)" fill="#FFEDE9" cx="-489.9" cy="3999" rx="26.8" ry="26.8"/>
		
			<ellipse transform="matrix(0.122 -0.9925 0.9925 0.122 -4355.8086 3139.6697)" fill="#FFEDE9" cx="-403.4" cy="4031.7" rx="26.8" ry="26.8"/>
		
			<ellipse transform="matrix(0.122 -0.9925 0.9925 0.122 -4274.3931 3043.2871)" fill="#FFEDE9" cx="-417.1" cy="3937.5" rx="26.8" ry="26.8"/>
		
			<ellipse transform="matrix(9.615063e-02 -0.9954 0.9954 9.615063e-02 -4234.019 3277.7998)" fill="#FFEDE9" cx="-312.2" cy="3970.3" rx="20.8" ry="20.8"/>
		<circle fill="#FFEDE9" cx="-223.9" cy="3970.3" r="26.8"/>
		<circle fill="#FFEDE9" cx="-131.4" cy="3970.3" r="26.8"/>
		<circle fill="#FFEDE9" cx="-177.7" cy="3887.1" r="26.8"/>
		<circle fill="#FFEDE9" cx="-85.2" cy="3887.1" r="23.1"/>
		
			<ellipse transform="matrix(0.2803 -0.9599 0.9599 0.2803 -3913.7708 2494.4016)" fill="#FFEDE9" cx="-293.5" cy="3857.2" rx="26.8" ry="26.8"/>
		
			<ellipse transform="matrix(0.596 -0.803 0.803 0.596 -3113.6077 1389.4879)" fill="#FFEDE9" cx="-176" cy="3788.8" rx="18.2" ry="18.2"/>
		<circle fill="#FFEDE9" cx="-56.1" cy="4214" r="26.8"/>
		<circle fill="#FFEDE9" cx="23" cy="4200.5" r="13.4"/>
		
			<ellipse transform="matrix(0.228 -0.9736 0.9736 0.228 -4164.5342 3084.4998)" fill="#FFEDE9" cx="-137" cy="4168.6" rx="26.8" ry="26.8"/>
		
			<ellipse transform="matrix(0.5992 -0.8006 0.8006 0.5992 -3342.8125 1512.5942)" fill="#FFEDE9" cx="-160.7" cy="4094.9" rx="26.8" ry="26.8"/>
		
			<ellipse transform="matrix(0.8804 -0.4743 0.4743 0.8804 -1938.7648 461.5916)" fill="#FFEDE9" cx="-54.4" cy="4074.1" rx="26.8" ry="26.8"/>
		<circle fill="#FFEDE9" cx="42.4" cy="4107.1" r="26.8"/>
		<circle fill="#FFEDE9" cx="134.9" cy="4107.1" r="26.8"/>
		<circle fill="#FFEDE9" cx="88.6" cy="4023.9" r="26.8"/>
		<circle fill="#FFEDE9" cx="120.1" cy="3933.8" r="16.2"/>
		
			<ellipse transform="matrix(0.4806 -0.8769 0.8769 0.4806 -3490.2275 2035.1188)" fill="#FFEDE9" cx="-27.1" cy="3964" rx="30.1" ry="30.1"/>
		
			<ellipse transform="matrix(0.9901 -0.1404 0.1404 0.9901 -480.231 53.7539)" fill="#FFEDE9" cx="140.8" cy="3430" rx="26.8" ry="26.8"/>
		
			<ellipse transform="matrix(0.996 -8.908035e-02 8.908035e-02 0.996 -307.6863 18.3877)" fill="#FFEDE9" cx="52.2" cy="3456.4" rx="26.8" ry="26.8"/>
		
			<ellipse transform="matrix(0.4124 -0.911 0.911 0.4124 -3138.8074 2179.543)" fill="#FFEDE9" cx="120.2" cy="3523" rx="26.8" ry="26.8"/>
		
			<ellipse transform="matrix(0.5887 -0.8083 0.8083 0.5887 -2856.5286 1502.4614)" fill="#FFEDE9" cx="48.2" cy="3558.3" rx="13.4" ry="13.4"/>
		
			<ellipse transform="matrix(0.1315 -0.9913 0.9913 0.1315 -3811.5071 3932.0518)" fill="#FFEDE9" cx="338.3" cy="4141.3" rx="26.8" ry="26.8"/>
		
			<ellipse transform="matrix(0.4788 -0.8779 0.8779 0.4788 -3001.0466 2031.8546)" fill="#FFEDE9" cx="210.7" cy="3543.4" rx="26.8" ry="26.8"/>
		
			<ellipse transform="matrix(0.7071 -0.7071 0.7071 0.7071 -2493.2273 1240.4407)" fill="#FFEDE9" cx="250.7" cy="3629.8" rx="26.8" ry="26.8"/>
		
			<ellipse transform="matrix(0.6351 -0.7725 0.7725 0.6351 -2751.3123 1432.8005)" fill="#FFEDE9" cx="140.8" cy="3628.3" rx="26.8" ry="26.8"/>
		
			<ellipse transform="matrix(0.9804 -0.1968 0.1968 0.9804 -717.9301 82.5115)" fill="#FFEDE9" cx="56.2" cy="3653.4" rx="18.5" ry="18.5"/>
		
			<ellipse transform="matrix(0.8267 -0.5626 0.5626 0.8267 -2062.895 615.2896)" fill="#FFEDE9" cx="-32.6" cy="3656.5" rx="26.8" ry="26.8"/>
		
			<ellipse transform="matrix(0.5725 -0.8199 0.8199 0.5725 -3038.8396 1648.3145)" fill="#FFEDE9" cx="61.3" cy="3738.3" rx="26.8" ry="26.8"/>
		
			<ellipse transform="matrix(0.9042 -0.4272 0.4272 0.9042 -1616.6638 338.8485)" fill="#FFEDE9" cx="-53.1" cy="3772.7" rx="23.1" ry="23.1"/>
		
			<ellipse transform="matrix(0.5981 -0.8014 0.8014 0.5981 -3071.5203 1575.5021)" fill="#FFEDE9" cx="35" cy="3850" rx="26.8" ry="26.8"/>
		
			<ellipse transform="matrix(0.8348 -0.5506 0.5506 0.8348 -1937.9517 477.0594)" fill="#FFEDE9" cx="-174.1" cy="3467.6" rx="26.8" ry="26.8"/>
		<circle fill="#FFEDE9" cx="-246.1" cy="3503" r="13.4"/>
		
			<ellipse transform="matrix(0.7794 -0.6265 0.6265 0.7794 -2203.7297 717.0726)" fill="#FFEDE9" cx="-83.6" cy="3488" rx="26.8" ry="26.8"/>
		
			<ellipse transform="matrix(0.8093 -0.5874 0.5874 0.8093 -2094.0835 653.9892)" fill="#FFEDE9" cx="-39.9" cy="3552" rx="26.8" ry="26.8"/>
		
			<ellipse transform="matrix(0.1694 -0.9855 0.9855 0.1694 -3662.9897 2857.8848)" fill="#FFEDE9" cx="-135.9" cy="3602.2" rx="26.8" ry="26.8"/>
		
			<ellipse transform="matrix(0.1497 -0.9887 0.9887 0.1497 -3759.9321 2824.0159)" fill="#FFEDE9" cx="-238.1" cy="3598" rx="26.8" ry="26.8"/>
		
			<ellipse transform="matrix(0.9883 -0.1523 0.1523 0.9883 -555.9717 -7.4706)" fill="#FFEDE9" cx="-326.7" cy="3624.4" rx="26.8" ry="26.8"/>
		
			<ellipse transform="matrix(0.9831 -0.1831 0.1831 0.9831 -680.2322 15.0317)" fill="#FFEDE9" cx="-258.7" cy="3691" rx="26.8" ry="26.8"/>
		
			<ellipse transform="matrix(0.3713 -0.9285 0.9285 0.3713 -3669.9541 2014.5424)" fill="#FFEDE9" cx="-347.4" cy="3717.3" rx="26.8" ry="26.8"/>
		
			<ellipse transform="matrix(0.9908 -0.1351 0.1351 0.9908 -503.3256 16.4166)" fill="#FFEDE9" cx="-130.7" cy="3715.5" rx="30.1" ry="30.1"/>
		<circle fill="#FFEDE9" cx="224.1" cy="4023.9" r="26.8"/>
		<circle fill="#FFEDE9" cx="329.1" cy="4010" r="26.8"/>
		<circle fill="#FFEDE9" cx="282.8" cy="3926.8" r="26.8"/>
		<circle fill="#FFEDE9" cx="361.9" cy="3913.4" r="13.4"/>
		
			<ellipse transform="matrix(0.8151 -0.5793 0.5793 0.8151 -2206.3425 779.5729)" fill="#FFEDE9" cx="118.2" cy="3846.4" rx="26.8" ry="26.8"/>
		
			<ellipse transform="matrix(4.155951e-02 -0.9991 0.9991 4.155951e-02 -3684.6204 3921.833)" fill="#FFEDE9" cx="201.9" cy="3881.5" rx="26.8" ry="26.8"/>
		
			<ellipse transform="matrix(0.2311 -0.9729 0.9729 0.2311 -3513.2822 3073.7397)" fill="#FFEDE9" cx="188" cy="3759.6" rx="26.8" ry="26.8"/>
		
			<ellipse transform="matrix(0.7071 -0.7071 0.7071 0.7071 -2615.3027 1326.0859)" fill="#FFEDE9" cx="293.1" cy="3820" rx="20.8" ry="20.8"/>
		<circle fill="#FFEDE9" cx="381.3" cy="3820" r="26.8"/>
		<circle fill="#FFEDE9" cx="473.8" cy="3820" r="26.8"/>
		<circle fill="#FFEDE9" cx="427.6" cy="3736.8" r="26.8"/>
		<circle fill="#FFEDE9" cx="520" cy="3736.8" r="23.1"/>
		
			<ellipse transform="matrix(0.4442 -0.8959 0.8959 0.4442 -3147.7573 2339.4851)" fill="#FFEDE9" cx="311.8" cy="3706.9" rx="26.8" ry="26.8"/>
		
			<ellipse transform="matrix(0.5789 -0.8154 0.8154 0.5789 -2786.2126 1882.3265)" fill="#FFEDE9" cx="429.2" cy="3638.5" rx="18.2" ry="18.2"/>
		<circle fill="#FFEDE9" cx="549.2" cy="4063.7" r="26.8"/>
		<circle fill="#FFEDE9" cx="628.2" cy="4050.3" r="13.4"/>
		
			<ellipse transform="matrix(0.7975 -0.6033 0.6033 0.7975 -2329.3667 1096.0353)" fill="#FFEDE9" cx="468.2" cy="4018.3" rx="26.8" ry="26.8"/>
		
			<ellipse transform="matrix(0.2311 -0.9729 0.9729 0.2311 -3496.0532 3465.5911)" fill="#FFEDE9" cx="444.5" cy="3944.6" rx="26.8" ry="26.8"/>
		
			<ellipse transform="matrix(0.9986 -5.327580e-02 5.327580e-02 0.9986 -208.2619 34.9216)" fill="#FFEDE9" cx="550.9" cy="3923.8" rx="26.8" ry="26.8"/>
		<circle fill="#FFEDE9" cx="647.6" cy="3956.9" r="26.8"/>
		<circle fill="#FFEDE9" cx="740.1" cy="3956.9" r="26.8"/>
		<circle fill="#FFEDE9" cx="693.9" cy="3873.6" r="26.8"/>
		<circle fill="#FFEDE9" cx="786.4" cy="3873.6" r="26.8"/>
		
			<ellipse transform="matrix(0.4806 -0.8769 0.8769 0.4806 -3044.0959 2487.8269)" fill="#FFEDE9" cx="578.2" cy="3813.7" rx="30.1" ry="30.1"/>
		
			<ellipse transform="matrix(0.9901 -0.1404 0.1404 0.9901 -448.246 139.4732)" fill="#FFEDE9" cx="764.3" cy="3246.2" rx="26.8" ry="26.8"/>
		
			<ellipse transform="matrix(0.9901 -0.1404 0.1404 0.9901 -457.7094 125.0633)" fill="#FFEDE9" cx="657.4" cy="3306.1" rx="26.8" ry="26.8"/>
		
			<ellipse transform="matrix(0.4198 -0.9076 0.9076 0.4198 -2640.196 2615.072)" fill="#FFEDE9" cx="725.4" cy="3372.7" rx="26.8" ry="26.8"/>
		
			<ellipse transform="matrix(0.9888 -0.1491 0.1491 0.9888 -500.8183 135.5165)" fill="#FFEDE9" cx="653.4" cy="3408.1" rx="13.4" ry="13.4"/>
		
			<ellipse transform="matrix(0.5025 -0.8646 0.8646 0.5025 -2487.7305 2476.8491)" fill="#FFEDE9" cx="908.2" cy="3399.9" rx="26.8" ry="26.8"/>
		
			<ellipse transform="matrix(0.9727 -0.2319 0.2319 0.9727 -764.4984 281.6525)" fill="#FFEDE9" cx="816" cy="3393.2" rx="20.8" ry="20.8"/>
		
			<ellipse transform="matrix(0.7071 -0.7071 0.7071 0.7071 -2221.4761 1629.4592)" fill="#FFEDE9" cx="856.2" cy="3496.3" rx="26.8" ry="26.8"/>
		
			<ellipse transform="matrix(0.9981 -6.197703e-02 6.197703e-02 0.9981 -214.124 52.9222)" fill="#FFEDE9" cx="746" cy="3478" rx="26.8" ry="26.8"/>
		
			<ellipse transform="matrix(0.7954 -0.6061 0.6061 0.7954 -1987.9397 1117.6953)" fill="#FFEDE9" cx="661.4" cy="3503.1" rx="18.5" ry="18.5"/>
		
			<ellipse transform="matrix(0.887 -0.4618 0.4618 0.887 -1554.3865 660.6538)" fill="#FFEDE9" cx="572.6" cy="3506.2" rx="26.8" ry="26.8"/>
		
			<ellipse transform="matrix(0.8267 -0.5626 0.5626 0.8267 -1912.2277 983.7047)" fill="#FFEDE9" cx="640.8" cy="3596.1" rx="26.8" ry="26.8"/>
		
			<ellipse transform="matrix(0.9262 -0.3771 0.3771 0.9262 -1325.2891 475.6715)" fill="#FFEDE9" cx="552.1" cy="3622.4" rx="23.1" ry="23.1"/>
		
			<ellipse transform="matrix(0.5981 -0.8014 0.8014 0.5981 -2707.8184 2000.1732)" fill="#FFEDE9" cx="640.2" cy="3699.7" rx="26.8" ry="26.8"/>
		
			<ellipse transform="matrix(0.8267 -0.5626 0.5626 0.8267 -1791.7217 817.4525)" fill="#FFEDE9" cx="431.2" cy="3317.3" rx="26.8" ry="26.8"/>
		
			<ellipse transform="matrix(0.7643 -0.6449 0.6449 0.7643 -2077.5249 1022.0215)" fill="#FFEDE9" cx="359.2" cy="3352.7" rx="13.4" ry="13.4"/>
		
			<ellipse transform="matrix(0.8334 -0.5527 0.5527 0.8334 -1757.9155 844.5238)" fill="#FFEDE9" cx="521.7" cy="3337.8" rx="26.8" ry="26.8"/>
		
			<ellipse transform="matrix(0.8683 -0.4961 0.4961 0.8683 -1613.108 728.6063)" fill="#FFEDE9" cx="565.4" cy="3401.7" rx="26.8" ry="26.8"/>
		
			<ellipse transform="matrix(0.9992 -3.886368e-02 3.886368e-02 0.9992 -133.7991 20.8471)" fill="#FFEDE9" cx="469.3" cy="3451.9" rx="26.8" ry="26.8"/>
		
			<ellipse transform="matrix(0.1783 -0.984 0.984 0.1783 -3090.8164 3194.2568)" fill="#FFEDE9" cx="367.2" cy="3447.8" rx="26.8" ry="26.8"/>
		
			<ellipse transform="matrix(0.996 -8.908034e-02 8.908034e-02 0.996 -308.3651 38.6208)" fill="#FFEDE9" cx="278.5" cy="3474.1" rx="26.8" ry="26.8"/>
		
			<ellipse transform="matrix(0.1992 -0.98 0.98 0.1992 -3200.9902 3224.48)" fill="#FFEDE9" cx="372.5" cy="3570.9" rx="26.8" ry="26.8"/>
		
			<ellipse transform="matrix(0.4198 -0.9076 0.9076 0.4198 -2856.7913 2800.2336)" fill="#FFEDE9" cx="762" cy="3634.7" rx="26.8" ry="26.8"/>
		
			<ellipse transform="matrix(0.9461 -0.3238 0.3238 0.9461 -1128.6849 345.6342)" fill="#FFEDE9" cx="474.5" cy="3565.2" rx="30.1" ry="30.1"/>
	</g>
</g>
</svg>
