<?xml version="1.0" encoding="utf-8"?>
<!-- Generator: Adobe Illustrator 21.1.0, SVG Export Plug-In . SVG Version: 6.00 Build 0)  -->
<svg version="1.1" id="Layer_1" xmlns="http://www.w3.org/2000/svg" xmlns:xlink="http://www.w3.org/1999/xlink" x="0px" y="0px"
	 width="72px" height="17.8px" viewBox="0 0 72 17.8" enable-background="new 0 0 72 17.8" xml:space="preserve">
<g>
	<g>
		<g>
			<path fill="#49C2C3" d="M36.9,9.3c0,0.8-0.4,1.3-1.1,1.3c-0.7,0-1.1-0.5-1.1-1.3V7h-1.6v2.4c0,1.5,1,2.6,2.3,2.6
				c0.5,0,1-0.2,1.4-0.5l0,0v0.2c0,0.8-0.5,1.3-1.2,1.3c-0.5,0-0.9-0.3-1.2-0.6L33.2,13c0.5,0.8,1.3,1.2,2.5,1.2
				c1.8,0,2.8-0.9,2.8-2.5V7h-1.6L36.9,9.3z M28,9.6L28,9.6L28,9.6l-2.4-4.4h-1.7v7.1h1.6V8.6l0.1,0.1l1.9,3.6h1.1l1.9-3.5l0.1-0.1
				v3.6H32V5.2h-1.7L28,9.6z M42.9,6.8c-0.7,0-1.2,0.2-1.6,0.6l0,0V7h-1.6v7.1h1.6v-2.3l0,0c0.4,0.4,1,0.6,1.6,0.6
				c1.5,0,2.6-1.2,2.6-2.8C45.5,8,44.4,6.8,42.9,6.8z M42.6,11c-0.7,0-1.3-0.5-1.3-1.4c0-0.8,0.6-1.4,1.3-1.4c0.8,0,1.3,0.6,1.3,1.4
				C43.9,10.4,43.3,11,42.6,11z M46.3,12.2h1.6V5.2h-1.6V12.2z M64.6,6.8c-1.6,0-2.8,1.2-2.8,2.8c0,1.6,1.2,2.8,2.8,2.8
				c1.2,0,2.2-0.6,2.6-1.6l-1.5-0.3c-0.3,0.5-0.8,0.6-1.2,0.6c-0.6,0-1-0.4-1.2-1.1l0,0h3.9V9.6C67.3,8,66.2,6.8,64.6,6.8z M63.4,9
				L63.4,9c0.2-0.6,0.7-0.9,1.2-0.9c0.5,0,1,0.3,1.1,0.9l0,0H63.4z M53,7.4L53,7.4c-0.5-0.4-1-0.6-1.7-0.6c-1.5,0-2.6,1.2-2.6,2.8
				c0,1.6,1.1,2.8,2.6,2.8c0.7,0,1.2-0.2,1.6-0.6l0,0v0.5h1.6V7H53V7.4z M51.6,11c-0.8,0-1.3-0.6-1.3-1.4c0-0.8,0.5-1.4,1.3-1.4
				c0.8,0,1.3,0.6,1.3,1.4C53,10.5,52.3,11,51.6,11z M71.6,10.7c-0.2,0.1-0.5,0.2-0.8,0.2c-0.5,0-0.7-0.3-0.7-0.8V8.3h1.6V7h-1.6
				V5.2l-1.6,0.3V7h-1v1.3h1v2.1c0,1.4,0.7,2.1,2.1,2.1c0.6,0,1.1-0.2,1.4-0.4L71.6,10.7z M59,6.8c-0.6,0-1.2,0.2-1.6,0.7l-0.1,0.1
				V7h-1.6v5.3h1.6V9.8c0-1,0.4-1.5,1.1-1.5c0.6,0,0.9,0.4,0.9,1.1v2.9h1.6V9C61.1,7.7,60.2,6.8,59,6.8z"/>
		</g>
	</g>
	<g>
		<defs>
			<path id="SVGID_1_" d="M0,0v17.8h17.8V0H0z M11.3,12.2H6.5V11h4.8V12.2z M11.3,9.9h-1V7.7l0,0.1L9.2,9.9H8.6L7.5,7.8l0-0.1v2.2
				h-1V5.7h1l1.4,2.6l0,0l0,0l1.4-2.6h1V9.9z"/>
		</defs>
		<clipPath id="SVGID_2_">
			<use xlink:href="#SVGID_1_"  overflow="visible"/>
		</clipPath>
		<g clip-path="url(#SVGID_2_)">
			<defs>
				<rect id="SVGID_3_" x="-13.1" y="-10" width="42.9" height="42.9"/>
			</defs>
			<clipPath id="SVGID_4_">
				<use xlink:href="#SVGID_3_"  overflow="visible"/>
			</clipPath>
			<g clip-path="url(#SVGID_4_)">
				<rect x="-13.1" y="-10" fill="#4AC2C4" width="42.9" height="42.9"/>
				<path fill="#C1E4E2" d="M23.1,9.6C11.8,4.1,8.6,0.4,11.6,0.8c3.5,0.5-11.2-8.2-5.2-8.7S22.6-11,32.2,1.4S33.7,14.7,23.1,9.6z"/>
				<path fill="#EEEDEF" d="M11.7,24.2c-11,1.5-38-5.4-21.6-5.1s31.7-2.9,30,0S17.2,23.5,11.7,24.2z"/>
				<path fill="#4C4276" d="M19.3,5.7C7,1.5,2-6.9,9.3-6s4.6-6.5,14.1,0.8C33.3,2.4,42.7,13.8,19.3,5.7z"/>
				<g>
					<circle fill="#EEEDEF" cx="1" cy="-5.1" r="0.2"/>
					<circle fill="#EEEDEF" cx="5.8" cy="-5.1" r="0.2"/>
					<circle fill="#EEEDEF" cx="-8.5" cy="-5.1" r="0.2"/>
					<circle fill="#EEEDEF" cx="-3.7" cy="-5.1" r="0.2"/>
					<circle fill="#EEEDEF" cx="20.2" cy="-5.1" r="0.2"/>
					<circle fill="#EEEDEF" cx="25" cy="-5.1" r="0.2"/>
					<circle fill="#EEEDEF" cx="10.6" cy="-5.1" r="0.2"/>
					<circle fill="#EEEDEF" cx="15.4" cy="-5.1" r="0.2"/>
					<circle fill="#EEEDEF" cx="1" cy="-0.3" r="0.2"/>
					<circle fill="#EEEDEF" cx="5.8" cy="-0.3" r="0.2"/>
					<circle fill="#EEEDEF" cx="-8.5" cy="-0.3" r="0.2"/>
					<circle fill="#EEEDEF" cx="-3.7" cy="-0.3" r="0.2"/>
					<circle fill="#EEEDEF" cx="20.2" cy="-0.3" r="0.2"/>
					<circle fill="#EEEDEF" cx="25" cy="-0.3" r="0.2"/>
					<circle fill="#EEEDEF" cx="10.6" cy="-0.3" r="0.2"/>
					<circle fill="#EEEDEF" cx="15.4" cy="-0.3" r="0.2"/>
					<circle fill="#EEEDEF" cx="1" cy="4.5" r="0.2"/>
					<circle fill="#EEEDEF" cx="5.8" cy="4.5" r="0.2"/>
					<circle fill="#EEEDEF" cx="-8.5" cy="4.5" r="0.2"/>
					<circle fill="#EEEDEF" cx="-3.7" cy="4.5" r="0.2"/>
					<circle fill="#EEEDEF" cx="20.2" cy="4.5" r="0.2"/>
					<circle fill="#EEEDEF" cx="25" cy="4.5" r="0.2"/>
					<circle fill="#EEEDEF" cx="10.6" cy="4.5" r="0.2"/>
					<circle fill="#EEEDEF" cx="15.4" cy="4.5" r="0.2"/>
					<circle fill="#EEEDEF" cx="1" cy="9.3" r="0.2"/>
					<circle fill="#EEEDEF" cx="5.8" cy="9.3" r="0.2"/>
					<circle fill="#EEEDEF" cx="-8.5" cy="9.3" r="0.2"/>
					<circle fill="#EEEDEF" cx="-3.7" cy="9.3" r="0.2"/>
					<circle fill="#EEEDEF" cx="20.2" cy="9.3" r="0.2"/>
					<circle fill="#EEEDEF" cx="25" cy="9.3" r="0.2"/>
					<circle fill="#EEEDEF" cx="10.6" cy="9.3" r="0.2"/>
					<circle fill="#EEEDEF" cx="15.4" cy="9.3" r="0.2"/>
					<circle fill="#EEEDEF" cx="1" cy="14" r="0.2"/>
					<circle fill="#EEEDEF" cx="5.8" cy="14" r="0.2"/>
					<circle fill="#EEEDEF" cx="-8.5" cy="14" r="0.2"/>
					<circle fill="#EEEDEF" cx="-3.7" cy="14" r="0.2"/>
					<circle fill="#EEEDEF" cx="20.2" cy="14" r="0.2"/>
					<circle fill="#EEEDEF" cx="25" cy="14" r="0.2"/>
					<circle fill="#EEEDEF" cx="10.6" cy="14" r="0.2"/>
					<circle fill="#EEEDEF" cx="15.4" cy="14" r="0.2"/>
					<circle fill="#EEEDEF" cx="1" cy="18.8" r="0.2"/>
					<circle fill="#EEEDEF" cx="5.8" cy="18.8" r="0.2"/>
					<circle fill="#EEEDEF" cx="-8.5" cy="18.8" r="0.2"/>
					<circle fill="#EEEDEF" cx="-3.7" cy="18.8" r="0.2"/>
					<circle fill="#EEEDEF" cx="20.2" cy="18.8" r="0.2"/>
					<circle fill="#EEEDEF" cx="25" cy="18.8" r="0.2"/>
					<circle fill="#EEEDEF" cx="10.6" cy="18.8" r="0.2"/>
					<circle fill="#EEEDEF" cx="15.4" cy="18.8" r="0.2"/>
					<circle fill="#EEEDEF" cx="1" cy="23.6" r="0.2"/>
					<circle fill="#EEEDEF" cx="5.8" cy="23.6" r="0.2"/>
					<circle fill="#EEEDEF" cx="-8.5" cy="23.6" r="0.2"/>
					<circle fill="#EEEDEF" cx="-3.7" cy="23.6" r="0.2"/>
					<circle fill="#EEEDEF" cx="20.2" cy="23.6" r="0.2"/>
					<circle fill="#EEEDEF" cx="25" cy="23.6" r="0.2"/>
					<circle fill="#EEEDEF" cx="10.6" cy="23.6" r="0.2"/>
					<circle fill="#EEEDEF" cx="15.4" cy="23.6" r="0.2"/>
					<circle fill="#EEEDEF" cx="1" cy="28.4" r="0.2"/>
					<circle fill="#EEEDEF" cx="5.8" cy="28.4" r="0.2"/>
					<circle fill="#EEEDEF" cx="-8.5" cy="28.4" r="0.2"/>
					<circle fill="#EEEDEF" cx="-3.7" cy="28.4" r="0.2"/>
					<circle fill="#EEEDEF" cx="20.2" cy="28.4" r="0.2"/>
					<circle fill="#EEEDEF" cx="25" cy="28.4" r="0.2"/>
					<circle fill="#EEEDEF" cx="10.6" cy="28.4" r="0.2"/>
					<circle fill="#EEEDEF" cx="15.4" cy="28.4" r="0.2"/>
				</g>
				<path fill="#E4AFC5" d="M-8.9,4.7c7.1,0.4,9.1,5.8,14.6,7.8s18.3,5.7,10.1,8.3s-14,1.8-20.3,0c-6.3-1.8-27.4-8.3-16-11.6
					C-14.6,7.5-14.8,4.3-8.9,4.7z"/>
				<path fill="#D5335D" d="M23.8,30.7c-6.5,1-15.8-1.2-3.2-6.1s13-2.5,11.2,0.5C29.9,28.2,27.5,30.1,23.8,30.7z"/>
			</g>
		</g>
	</g>
</g>
</svg>
