<?xml version="1.0" encoding="utf-8"?>
<!-- Generator: Adobe Illustrator 21.1.0, SVG Export Plug-In . SVG Version: 6.00 Build 0)  -->
<svg version="1.1" id="Layer_1" xmlns="http://www.w3.org/2000/svg" xmlns:xlink="http://www.w3.org/1999/xlink" x="0px" y="0px"
	 width="72px" height="72px" viewBox="0 0 72 72" enable-background="new 0 0 72 72" xml:space="preserve">
<g>
	<defs>
		<path id="SVGID_1_" d="M0,0v72h72V0H0z M45.7,49.1H26.3v-4.6h19.4V49.1z M45.7,40h-3.9v-8.8l-0.1,0.3L37.3,40h-2.5l-4.4-8.6
			l-0.1-0.3V40h-3.9V22.9h4L36,33.5l0.1,0.1l0.1-0.1l5.7-10.7h4V40z"/>
	</defs>
	<clipPath id="SVGID_2_">
		<use xlink:href="#SVGID_1_"  overflow="visible"/>
	</clipPath>
	<g clip-path="url(#SVGID_2_)">
		<defs>
			<rect id="SVGID_3_" x="-53.1" y="-40.3" width="173.3" height="173.3"/>
		</defs>
		<clipPath id="SVGID_4_">
			<use xlink:href="#SVGID_3_"  overflow="visible"/>
		</clipPath>
		<g clip-path="url(#SVGID_4_)">
			<rect x="-53.1" y="-40.3" fill="#4AC2C4" width="173.3" height="173.3"/>
			<path fill="#C1E4E2" d="M93.4,38.8C47.5,16.6,34.9,1.8,46.6,3.3C60.7,5.2,1.5-30,25.7-31.9S91.1-44.3,129.9,5.7
				S135.9,59.4,93.4,38.8z"/>
			<path fill="#EEEDEF" d="M47.1,97.8c-44.2,6-153.3-21.7-87.1-20.7c66.2,1,128.1-11.7,121.1,0S69.4,94.7,47.1,97.8z"/>
			<path fill="#4C4276" d="M78,23.1C28.2,5.9,7.9-28,37.6-24.1s18.4-26.3,57,3.3C134.5,9.8,172.5,55.7,78,23.1z"/>
			<g>
				<circle fill="#EEEDEF" cx="4.2" cy="-20.6" r="1"/>
				<circle fill="#EEEDEF" cx="23.5" cy="-20.6" r="1"/>
				<circle fill="#EEEDEF" cx="-34.4" cy="-20.6" r="1"/>
				<circle fill="#EEEDEF" cx="-15.1" cy="-20.6" r="1"/>
				<circle fill="#EEEDEF" cx="81.4" cy="-20.6" r="1"/>
				<circle fill="#EEEDEF" cx="100.7" cy="-20.6" r="1"/>
				<circle fill="#EEEDEF" cx="42.8" cy="-20.6" r="1"/>
				<circle fill="#EEEDEF" cx="62.1" cy="-20.6" r="1"/>
				<circle fill="#EEEDEF" cx="4.2" cy="-1.2" r="1"/>
				<circle fill="#EEEDEF" cx="23.5" cy="-1.2" r="1"/>
				<circle fill="#EEEDEF" cx="-34.4" cy="-1.2" r="1"/>
				<circle fill="#EEEDEF" cx="-15.1" cy="-1.2" r="1"/>
				<circle fill="#EEEDEF" cx="81.4" cy="-1.2" r="1"/>
				<circle fill="#EEEDEF" cx="100.7" cy="-1.2" r="1"/>
				<circle fill="#EEEDEF" cx="42.8" cy="-1.2" r="1"/>
				<circle fill="#EEEDEF" cx="62.1" cy="-1.2" r="1"/>
				<circle fill="#EEEDEF" cx="4.2" cy="18.1" r="1"/>
				<circle fill="#EEEDEF" cx="23.5" cy="18.1" r="1"/>
				<circle fill="#EEEDEF" cx="-34.4" cy="18.1" r="1"/>
				<circle fill="#EEEDEF" cx="-15.1" cy="18.1" r="1"/>
				<circle fill="#EEEDEF" cx="81.4" cy="18.1" r="1"/>
				<circle fill="#EEEDEF" cx="100.7" cy="18.1" r="1"/>
				<circle fill="#EEEDEF" cx="42.8" cy="18.1" r="1"/>
				<circle fill="#EEEDEF" cx="62.1" cy="18.1" r="1"/>
				<circle fill="#EEEDEF" cx="4.2" cy="37.4" r="1"/>
				<circle fill="#EEEDEF" cx="23.5" cy="37.4" r="1"/>
				<circle fill="#EEEDEF" cx="-34.4" cy="37.4" r="1"/>
				<circle fill="#EEEDEF" cx="-15.1" cy="37.4" r="1"/>
				<circle fill="#EEEDEF" cx="81.4" cy="37.4" r="1"/>
				<circle fill="#EEEDEF" cx="100.7" cy="37.4" r="1"/>
				<circle fill="#EEEDEF" cx="42.8" cy="37.4" r="1"/>
				<circle fill="#EEEDEF" cx="62.1" cy="37.4" r="1"/>
				<circle fill="#EEEDEF" cx="4.2" cy="56.7" r="1"/>
				<circle fill="#EEEDEF" cx="23.5" cy="56.7" r="1"/>
				<circle fill="#EEEDEF" cx="-34.4" cy="56.7" r="1"/>
				<circle fill="#EEEDEF" cx="-15.1" cy="56.7" r="1"/>
				<circle fill="#EEEDEF" cx="81.4" cy="56.7" r="1"/>
				<circle fill="#EEEDEF" cx="100.7" cy="56.7" r="1"/>
				<circle fill="#EEEDEF" cx="42.8" cy="56.7" r="1"/>
				<circle fill="#EEEDEF" cx="62.1" cy="56.7" r="1"/>
				<circle fill="#EEEDEF" cx="4.2" cy="76" r="1"/>
				<circle fill="#EEEDEF" cx="23.5" cy="76" r="1"/>
				<circle fill="#EEEDEF" cx="-34.4" cy="76" r="1"/>
				<circle fill="#EEEDEF" cx="-15.1" cy="76" r="1"/>
				<circle fill="#EEEDEF" cx="81.4" cy="76" r="1"/>
				<circle fill="#EEEDEF" cx="100.7" cy="76" r="1"/>
				<circle fill="#EEEDEF" cx="42.8" cy="76" r="1"/>
				<circle fill="#EEEDEF" cx="62.1" cy="76" r="1"/>
				<circle fill="#EEEDEF" cx="4.2" cy="95.3" r="1"/>
				<circle fill="#EEEDEF" cx="23.5" cy="95.3" r="1"/>
				<circle fill="#EEEDEF" cx="-34.4" cy="95.3" r="1"/>
				<circle fill="#EEEDEF" cx="-15.1" cy="95.3" r="1"/>
				<circle fill="#EEEDEF" cx="81.4" cy="95.3" r="1"/>
				<circle fill="#EEEDEF" cx="100.7" cy="95.3" r="1"/>
				<circle fill="#EEEDEF" cx="42.8" cy="95.3" r="1"/>
				<circle fill="#EEEDEF" cx="62.1" cy="95.3" r="1"/>
				<circle fill="#EEEDEF" cx="4.2" cy="114.6" r="1"/>
				<circle fill="#EEEDEF" cx="23.5" cy="114.6" r="1"/>
				<circle fill="#EEEDEF" cx="-34.4" cy="114.6" r="1"/>
				<circle fill="#EEEDEF" cx="-15.1" cy="114.6" r="1"/>
				<circle fill="#EEEDEF" cx="81.4" cy="114.6" r="1"/>
				<circle fill="#EEEDEF" cx="100.7" cy="114.6" r="1"/>
				<circle fill="#EEEDEF" cx="42.8" cy="114.6" r="1"/>
				<circle fill="#EEEDEF" cx="62.1" cy="114.6" r="1"/>
			</g>
			<path fill="#E4AFC5" d="M-36.1,18.8c28.5,1.6,36.9,23.5,59,31.5s73.8,22.8,40.9,33.5s-56.4,7.4-81.8,0
				c-25.5-7.4-110.4-33.5-64.4-47C-58.9,30.1-59.6,17.5-36.1,18.8z"/>
			<path fill="#D5335D" d="M96,124c-26.3,4.1-63.8-4.9-13.1-24.5s52.5-10.2,45.2,2.1S111.2,121.7,96,124z"/>
		</g>
	</g>
</g>
</svg>
