<?xml version="1.0" encoding="utf-8"?>
<!-- Generator: Adobe Illustrator 21.1.0, SVG Export Plug-In . SVG Version: 6.00 Build 0)  -->
<svg version="1.1" id="Layer_1" xmlns="http://www.w3.org/2000/svg" xmlns:xlink="http://www.w3.org/1999/xlink" x="0px" y="0px"
	 width="4000px" height="4000px" viewBox="0 0 4000 4000" enable-background="new 0 0 4000 4000" xml:space="preserve">
<g>
	<defs>
		<rect id="SVGID_1_" width="4000" height="4000"/>
	</defs>
	<clipPath id="SVGID_2_">
		<use xlink:href="#SVGID_1_"  overflow="visible"/>
	</clipPath>
	<g clip-path="url(#SVGID_2_)">
		<rect fill="#47C1C3" width="4000" height="4000"/>
		<path fill="#C0E4E2" d="M3380,1827.3c-1059.5-513.9-1351.1-855.9-1079-819.6c325.4,43.4-1041.1-768.2-484-813.5
			s1509.3-285.7,2405.7,868S4360.3,2302.8,3380,1827.3z"/>
		<path fill="#EEEDEF" d="M2311.2,3187c-1020.8,137.8-3538.4-500.7-2009.8-476.8c1528.6,23.9,2956.8-269.2,2794.2-0.7
			S2827.2,3117.4,2311.2,3187z"/>
		<path fill="#4B4175" d="M3024.7,1463.4C1874.5,1066.5,1407.7,285,2093,374.1s424-606.5,1314.7,77.1
			C4327.6,1157.1,5205.2,2215.9,3024.7,1463.4z"/>
		<g>
			<circle fill="#EEEDEF" cx="1320.9" cy="456.5" r="22.3"/>
			<circle fill="#EEEDEF" cx="1766.6" cy="456.5" r="22.3"/>
			<circle fill="#EEEDEF" cx="429.7" cy="456.5" r="22.3"/>
			<circle fill="#EEEDEF" cx="875.3" cy="456.5" r="22.3"/>
			<circle fill="#EEEDEF" cx="3103.5" cy="456.5" r="22.3"/>
			<circle fill="#EEEDEF" cx="3549.1" cy="456.5" r="22.3"/>
			<circle fill="#EEEDEF" cx="2212.2" cy="456.5" r="22.3"/>
			<circle fill="#EEEDEF" cx="2657.8" cy="456.5" r="22.3"/>
			<circle fill="#EEEDEF" cx="1320.9" cy="902.2" r="22.3"/>
			<circle fill="#EEEDEF" cx="1766.6" cy="902.2" r="22.3"/>
			<circle fill="#EEEDEF" cx="429.7" cy="902.2" r="22.3"/>
			<circle fill="#EEEDEF" cx="875.3" cy="902.2" r="22.3"/>
			<circle fill="#EEEDEF" cx="3103.5" cy="902.2" r="22.3"/>
			<circle fill="#EEEDEF" cx="3549.1" cy="902.2" r="22.3"/>
			<circle fill="#EEEDEF" cx="2212.2" cy="902.2" r="22.3"/>
			<circle fill="#EEEDEF" cx="2657.8" cy="902.2" r="22.3"/>
			<circle fill="#EEEDEF" cx="1320.9" cy="1347.8" r="22.3"/>
			<circle fill="#EEEDEF" cx="1766.6" cy="1347.8" r="22.3"/>
			<circle fill="#EEEDEF" cx="429.7" cy="1347.8" r="22.3"/>
			<circle fill="#EEEDEF" cx="875.3" cy="1347.8" r="22.3"/>
			<circle fill="#EEEDEF" cx="3103.5" cy="1347.8" r="22.3"/>
			<circle fill="#EEEDEF" cx="3549.1" cy="1347.8" r="22.3"/>
			<circle fill="#EEEDEF" cx="2212.2" cy="1347.8" r="22.3"/>
			<circle fill="#EEEDEF" cx="2657.8" cy="1347.8" r="22.3"/>
			<circle fill="#EEEDEF" cx="1320.9" cy="1793.4" r="22.3"/>
			<circle fill="#EEEDEF" cx="1766.6" cy="1793.4" r="22.3"/>
			<circle fill="#EEEDEF" cx="429.7" cy="1793.4" r="22.3"/>
			<circle fill="#EEEDEF" cx="875.3" cy="1793.4" r="22.3"/>
			<circle fill="#EEEDEF" cx="3103.5" cy="1793.4" r="22.3"/>
			<circle fill="#EEEDEF" cx="3549.1" cy="1793.4" r="22.3"/>
			<circle fill="#EEEDEF" cx="2212.2" cy="1793.4" r="22.3"/>
			<circle fill="#EEEDEF" cx="2657.8" cy="1793.4" r="22.3"/>
			<circle fill="#EEEDEF" cx="1320.9" cy="2239.1" r="22.3"/>
			<circle fill="#EEEDEF" cx="1766.6" cy="2239.1" r="22.3"/>
			<circle fill="#EEEDEF" cx="429.7" cy="2239.1" r="22.3"/>
			<circle fill="#EEEDEF" cx="875.3" cy="2239.1" r="22.3"/>
			<circle fill="#EEEDEF" cx="3103.5" cy="2239.1" r="22.3"/>
			<circle fill="#EEEDEF" cx="3549.1" cy="2239.1" r="22.3"/>
			<circle fill="#EEEDEF" cx="2212.2" cy="2239.1" r="22.3"/>
			<circle fill="#EEEDEF" cx="2657.8" cy="2239.1" r="22.3"/>
			<circle fill="#EEEDEF" cx="1320.9" cy="2684.7" r="22.3"/>
			<circle fill="#EEEDEF" cx="1766.6" cy="2684.7" r="22.3"/>
			<circle fill="#EEEDEF" cx="429.7" cy="2684.7" r="22.3"/>
			<circle fill="#EEEDEF" cx="875.3" cy="2684.7" r="22.3"/>
			<circle fill="#EEEDEF" cx="3103.5" cy="2684.7" r="22.3"/>
			<circle fill="#EEEDEF" cx="3549.1" cy="2684.7" r="22.3"/>
			<circle fill="#EEEDEF" cx="2212.2" cy="2684.7" r="22.3"/>
			<circle fill="#EEEDEF" cx="2657.8" cy="2684.7" r="22.3"/>
			<circle fill="#EEEDEF" cx="1320.9" cy="3130.3" r="22.3"/>
			<circle fill="#EEEDEF" cx="1766.6" cy="3130.3" r="22.3"/>
			<circle fill="#EEEDEF" cx="429.7" cy="3130.3" r="22.3"/>
			<circle fill="#EEEDEF" cx="875.3" cy="3130.3" r="22.3"/>
			<circle fill="#EEEDEF" cx="3103.5" cy="3130.3" r="22.3"/>
			<circle fill="#EEEDEF" cx="3549.1" cy="3130.3" r="22.3"/>
			<circle fill="#EEEDEF" cx="2212.2" cy="3130.3" r="22.3"/>
			<circle fill="#EEEDEF" cx="2657.8" cy="3130.3" r="22.3"/>
			<circle fill="#EEEDEF" cx="1320.9" cy="3575.9" r="22.3"/>
			<circle fill="#EEEDEF" cx="1766.6" cy="3575.9" r="22.3"/>
			<circle fill="#EEEDEF" cx="429.7" cy="3575.9" r="22.3"/>
			<circle fill="#EEEDEF" cx="875.3" cy="3575.9" r="22.3"/>
			<circle fill="#EEEDEF" cx="3103.5" cy="3575.9" r="22.3"/>
			<circle fill="#EEEDEF" cx="3549.1" cy="3575.9" r="22.3"/>
			<circle fill="#EEEDEF" cx="2212.2" cy="3575.9" r="22.3"/>
			<circle fill="#EEEDEF" cx="2657.8" cy="3575.9" r="22.3"/>
		</g>
		<path fill="#E4B0C5" d="M391.2,1365.2c657.6,37.6,851.5,541.9,1362.4,727.7S3456.7,2619.3,2698,2867s-1300.5,170.3-1888.8,0
			s-2547.3-774.1-1486.3-1083.8C-135.8,1625.2-150.7,1334.3,391.2,1365.2z"/>
		<path fill="#D5315C" d="M3439,3792.4c-606.9,93.5-1473.1-113.4-302-565.9s1210.5-236.1,1043.3,49.2
			C4013.1,3561,3789.9,3738.3,3439,3792.4z"/>
	</g>
</g>
</svg>
