<?xml version="1.0" encoding="utf-8"?>
<!-- Generator: Adobe Illustrator 21.1.0, SVG Export Plug-In . SVG Version: 6.00 Build 0)  -->
<svg version="1.1" id="Layer_1" xmlns="http://www.w3.org/2000/svg" xmlns:xlink="http://www.w3.org/1999/xlink" x="0px" y="0px"
	 width="72px" height="17.8px" viewBox="0 0 72 17.8" enable-background="new 0 0 72 17.8" xml:space="preserve">
<g>
	<g>
		<g>
			<path fill="#9292A8" d="M28,9.6L28,9.6L28,9.6l-2.4-4.4h-1.7v7.1h1.6V8.6l0.1,0.1l1.9,3.6h1.1l1.9-3.5l0.1-0.1v3.6H32V5.2h-1.7
				L28,9.6z M36.9,9.3c0,0.8-0.4,1.3-1.1,1.3c-0.7,0-1.1-0.5-1.1-1.3V7h-1.6v2.4c0,1.5,1,2.6,2.3,2.6c0.5,0,1-0.2,1.4-0.5l0,0v0.2
				c0,0.8-0.5,1.3-1.2,1.3c-0.5,0-0.9-0.3-1.2-0.6L33.2,13c0.5,0.8,1.3,1.2,2.5,1.2c1.8,0,2.8-0.9,2.8-2.5V7h-1.6L36.9,9.3z
				 M42.9,6.8c-0.7,0-1.2,0.2-1.6,0.6l0,0V7h-1.6v7.1h1.6v-2.3l0,0c0.4,0.4,1,0.6,1.6,0.6c1.5,0,2.6-1.2,2.6-2.8
				C45.5,8,44.4,6.8,42.9,6.8z M42.6,11c-0.7,0-1.3-0.5-1.3-1.4c0-0.8,0.6-1.4,1.3-1.4c0.8,0,1.3,0.6,1.3,1.4
				C43.9,10.4,43.3,11,42.6,11z M71.6,10.7c-0.2,0.1-0.5,0.2-0.8,0.2c-0.5,0-0.7-0.3-0.7-0.8V8.3h1.6V7h-1.6V5.2l-1.6,0.3V7h-1v1.3
				h1v2.1c0,1.4,0.7,2.1,2.1,2.1c0.6,0,1.1-0.2,1.4-0.4L71.6,10.7z M59,6.8c-0.6,0-1.2,0.2-1.6,0.7l-0.1,0.1V7h-1.6v5.3h1.6V9.8
				c0-1,0.4-1.5,1.1-1.5c0.6,0,0.9,0.4,0.9,1.1v2.9h1.6V9C61.1,7.7,60.2,6.8,59,6.8z M64.6,6.8c-1.6,0-2.8,1.2-2.8,2.8
				c0,1.6,1.2,2.8,2.8,2.8c1.2,0,2.2-0.6,2.6-1.6l-1.5-0.3c-0.3,0.5-0.8,0.6-1.2,0.6c-0.6,0-1-0.4-1.2-1.1l0,0h3.9V9.6
				C67.3,8,66.2,6.8,64.6,6.8z M63.4,9L63.4,9c0.2-0.6,0.7-0.9,1.2-0.9c0.5,0,1,0.3,1.1,0.9l0,0H63.4z M46.3,12.2h1.6V5.2h-1.6V12.2
				z M53,7.4L53,7.4c-0.5-0.4-1-0.6-1.7-0.6c-1.5,0-2.6,1.2-2.6,2.8c0,1.6,1.1,2.8,2.6,2.8c0.7,0,1.2-0.2,1.6-0.6l0,0v0.5h1.6V7H53
				V7.4z M51.6,11c-0.8,0-1.3-0.6-1.3-1.4c0-0.8,0.5-1.4,1.3-1.4c0.8,0,1.3,0.6,1.3,1.4C53,10.5,52.3,11,51.6,11z"/>
		</g>
	</g>
	<g>
		<g>
			<path fill="#9292A8" d="M0,0v17.8h17.8V0H0z M11.3,12.2H6.5V11h4.8V12.2z M11.3,9.9h-1V7.7l0,0.1L9.2,9.9H8.6L7.5,7.8l0-0.1v2.2
				h-1V5.7h1l1.4,2.6l0,0l0,0l1.4-2.6h1V9.9z"/>
		</g>
	</g>
</g>
</svg>
