<svg id="Layer_1" data-name="Layer 1" xmlns="http://www.w3.org/2000/svg" viewBox="0 0 72 13.61"><defs><style>.cls-1{fill:#22282b;}</style></defs><title>Artboard 1</title><path class="cls-1" d="M6.16,6.59l0,.07,0-.07L2.51,0H0V10.58H2.46V5.1l.08.16,2.79,5.33H6.91l2.78-5.3.08-.16v5.46h2.46V0H9.73ZM28.48,2.44A3.55,3.55,0,0,0,26,3.3L26,3.37V2.68H23.49V13.29H26V9.89L26,10a3.55,3.55,0,0,0,2.46.86,4,4,0,0,0,3.86-4.19A4,4,0,0,0,28.48,2.44ZM28,8.75a2,2,0,0,1-2-2.11,2,2,0,0,1,2-2.11,2,2,0,0,1,2,2.11A2,2,0,0,1,28,8.75ZM60.9,2.44A4.1,4.1,0,0,0,56.7,6.63a4.09,4.09,0,0,0,4.18,4.19A4,4,0,0,0,64.79,8.4L62.61,8a1.89,1.89,0,0,1-3.49-.66V7.24H65V6.63A4,4,0,0,0,60.9,2.44ZM59.15,5.77l0-.06A1.79,1.79,0,0,1,60.9,4.42a1.64,1.64,0,0,1,1.65,1.29l0,.06Zm-39.71.48c0,1.16-.61,1.88-1.6,1.88s-1.61-.72-1.61-1.88V2.68h-2.4V6.25c0,2.28,1.43,3.87,3.47,3.87a3.08,3.08,0,0,0,2.07-.75l.07-.06v.32a1.78,1.78,0,0,1-1.8,2,2.24,2.24,0,0,1-1.8-1L14,11.74a4.11,4.11,0,0,0,3.69,1.87c2.63,0,4.2-1.41,4.2-3.78V2.68H19.44Zm33.15-3.8a3.25,3.25,0,0,0-2.42,1l-.08.08V2.68H47.63v7.91h2.46V6.92c0-1.47.6-2.27,1.7-2.27A1.45,1.45,0,0,1,53.2,6.26v4.32h2.44V5.72A3,3,0,0,0,52.58,2.44ZM33.52,10.58H36V0H33.52Zm10-7.22-.07-.07A3.55,3.55,0,0,0,41,2.44a4,4,0,0,0-3.86,4.19A4,4,0,0,0,41,10.82,3.55,3.55,0,0,0,43.46,10l.07-.07v.69H46V2.68H43.53Zm-2,5.38a2,2,0,0,1-2-2.11,2,2,0,0,1,2-2.11,2,2,0,0,1,2,2.11A2,2,0,0,1,41.53,8.75Zm29.91-.41a2.66,2.66,0,0,1-1.14.3c-.74,0-1.11-.41-1.11-1.21V4.61h2.36V2.68H69.19V0L66.73.51V2.68H65.28V4.61h1.45V7.68a2.83,2.83,0,0,0,3.14,3.14A4.26,4.26,0,0,0,72,10.26Z"/></svg>