<?xml version="1.0" encoding="utf-8"?>
<!-- Generator: Adobe Illustrator 21.1.0, SVG Export Plug-In . SVG Version: 6.00 Build 0)  -->
<svg version="1.1" id="Layer_1" xmlns="http://www.w3.org/2000/svg" xmlns:xlink="http://www.w3.org/1999/xlink" x="0px" y="0px"
	 width="72px" height="17.8px" viewBox="0 0 72 17.8" enable-background="new 0 0 72 17.8" xml:space="preserve">
<g>
	<g>
		<g>
			<path fill="#7C5FA6" d="M28,9.6L28,9.6L28,9.6l-2.4-4.4h-1.7v7.1h1.6V8.6l0.1,0.1l1.9,3.6h1.1l1.9-3.5l0.1-0.1v3.6H32V5.2h-1.7
				L28,9.6z M46.3,12.2h1.6V5.2h-1.6V12.2z M42.9,6.8c-0.7,0-1.2,0.2-1.6,0.6l0,0V7h-1.6v7.1h1.6v-2.3l0,0c0.4,0.4,1,0.6,1.6,0.6
				c1.5,0,2.6-1.2,2.6-2.8C45.5,8,44.4,6.8,42.9,6.8z M42.6,11c-0.7,0-1.3-0.5-1.3-1.4c0-0.8,0.6-1.4,1.3-1.4c0.8,0,1.3,0.6,1.3,1.4
				C43.9,10.4,43.3,11,42.6,11z M36.9,9.3c0,0.8-0.4,1.3-1.1,1.3c-0.7,0-1.1-0.5-1.1-1.3V7h-1.6v2.4c0,1.5,1,2.6,2.3,2.6
				c0.5,0,1-0.2,1.4-0.5l0,0v0.2c0,0.8-0.5,1.3-1.2,1.3c-0.5,0-0.9-0.3-1.2-0.6L33.2,13c0.5,0.8,1.3,1.2,2.5,1.2
				c1.8,0,2.8-0.9,2.8-2.5V7h-1.6L36.9,9.3z M71.6,10.7c-0.2,0.1-0.5,0.2-0.8,0.2c-0.5,0-0.7-0.3-0.7-0.8V8.3h1.6V7h-1.6V5.2
				l-1.6,0.3V7h-1v1.3h1v2.1c0,1.4,0.7,2.1,2.1,2.1c0.6,0,1.1-0.2,1.4-0.4L71.6,10.7z M64.6,6.8c-1.6,0-2.8,1.2-2.8,2.8
				c0,1.6,1.2,2.8,2.8,2.8c1.2,0,2.2-0.6,2.6-1.6l-1.5-0.3c-0.3,0.5-0.8,0.6-1.2,0.6c-0.6,0-1-0.4-1.2-1.1l0,0h3.9V9.6
				C67.3,8,66.2,6.8,64.6,6.8z M63.4,9L63.4,9c0.2-0.6,0.7-0.9,1.2-0.9c0.5,0,1,0.3,1.1,0.9l0,0H63.4z M59,6.8
				c-0.6,0-1.2,0.2-1.6,0.7l-0.1,0.1V7h-1.6v5.3h1.6V9.8c0-1,0.4-1.5,1.1-1.5c0.6,0,0.9,0.4,0.9,1.1v2.9h1.6V9
				C61.1,7.7,60.2,6.8,59,6.8z M53,7.4L53,7.4c-0.5-0.4-1-0.6-1.7-0.6c-1.5,0-2.6,1.2-2.6,2.8c0,1.6,1.1,2.8,2.6,2.8
				c0.7,0,1.2-0.2,1.6-0.6l0,0v0.5h1.6V7H53V7.4z M51.6,11c-0.8,0-1.3-0.6-1.3-1.4c0-0.8,0.5-1.4,1.3-1.4c0.8,0,1.3,0.6,1.3,1.4
				C53,10.5,52.3,11,51.6,11z"/>
		</g>
	</g>
	<g>
		<defs>
			<path id="SVGID_1_" d="M0,0v17.8h17.8V0H0z M11.3,12.2H6.5V11h4.8V12.2z M11.3,9.9h-1V7.7l0,0.1L9.2,9.9H8.6L7.5,7.8l0-0.1v2.2
				h-1V5.7h1l1.4,2.6l0,0l0,0l1.4-2.6h1V9.9z"/>
		</defs>
		<clipPath id="SVGID_2_">
			<use xlink:href="#SVGID_1_"  overflow="visible"/>
		</clipPath>
		<g clip-path="url(#SVGID_2_)">
			<defs>
				<rect id="SVGID_3_" x="-9.5" y="-6.4" width="33.4" height="33.4"/>
			</defs>
			<clipPath id="SVGID_4_">
				<use xlink:href="#SVGID_3_"  overflow="visible"/>
			</clipPath>
			<g clip-path="url(#SVGID_4_)">
				<rect x="-9.5" y="-7.1" fill="#EED7BC" width="33.6" height="34.3"/>
				<g>
					<g>
						<circle fill="#E4AFC5" cx="0.4" cy="-6.2" r="0.4"/>
						<circle fill="#E4AFC5" cx="0.4" cy="-1.7" r="0.4"/>
						<circle fill="#E4AFC5" cx="0.4" cy="2.8" r="0.2"/>
						<circle fill="#E4AFC5" cx="0.4" cy="7.3" r="0.2"/>
						<circle fill="#E4AFC5" cx="0.4" cy="11.8" r="0.1"/>
						<circle fill="#E4AFC5" cx="0.4" cy="16.3" r="0.1"/>
						<circle fill="#E4AFC5" cx="4.9" cy="-6.2" r="0.4"/>
						<circle fill="#E4AFC5" cx="4.9" cy="-1.7" r="0.2"/>
						<circle fill="#E4AFC5" cx="4.9" cy="2.8" r="0.2"/>
						<circle fill="#E4AFC5" cx="4.9" cy="7.3" r="0.1"/>
						<circle fill="#E4AFC5" cx="4.9" cy="11.8" r="0.1"/>
						<circle fill="#E4AFC5" cx="-8.6" cy="-6.2" r="0.4"/>
						<circle fill="#E4AFC5" cx="-8.6" cy="-1.7" r="0.4"/>
						<circle fill="#E4AFC5" cx="-8.6" cy="2.8" r="0.4"/>
						<circle fill="#E4AFC5" cx="-8.6" cy="7.3" r="0.4"/>
						<circle fill="#E4AFC5" cx="-8.6" cy="11.8" r="0.2"/>
						<circle fill="#E4AFC5" cx="-8.6" cy="16.3" r="0.2"/>
						<circle fill="#E4AFC5" cx="-8.6" cy="20.8" r="0.1"/>
						<circle fill="#E4AFC5" cx="-8.6" cy="25.3" r="0.1"/>
						<circle fill="#E4AFC5" cx="-4.1" cy="-6.2" r="0.4"/>
						<circle fill="#E4AFC5" cx="-4.1" cy="-1.7" r="0.4"/>
						<circle fill="#E4AFC5" cx="-4.1" cy="2.8" r="0.4"/>
						<circle fill="#E4AFC5" cx="-4.1" cy="7.3" r="0.2"/>
						<circle fill="#E4AFC5" cx="-4.1" cy="11.8" r="0.2"/>
						<circle fill="#E4AFC5" cx="-4.1" cy="16.3" r="0.1"/>
						<circle fill="#E4AFC5" cx="-4.1" cy="20.8" r="0.1"/>
						<circle fill="#E4AFC5" cx="9.4" cy="-6.2" r="0.2"/>
						<circle fill="#E4AFC5" cx="9.4" cy="-1.7" r="0.2"/>
						<circle fill="#E4AFC5" cx="9.4" cy="2.8" r="0.1"/>
						<circle fill="#E4AFC5" cx="9.4" cy="7.3" r="0.1"/>
						<circle fill="#E4AFC5" cx="13.9" cy="-6.2" r="0.2"/>
						<circle fill="#E4AFC5" cx="13.9" cy="-1.7" r="0.1"/>
						<circle fill="#E4AFC5" cx="13.9" cy="2.8" r="0.1"/>
					</g>
				</g>
				
					<ellipse transform="matrix(0.8265 -0.563 0.563 0.8265 -5.9174 -4.0782)" fill="#4AC2C4" cx="-9.6" cy="7.6" rx="9.4" ry="7.3"/>
				<path fill="#E4AFC5" d="M-2.6,20c-0.9-1.3-0.5-5.9,0-6.8s5.5-2.1,5.5-2.1s5.6,1.2,5.8,2.1c0.3,0.9-2.6,8.2-4.7,8.2
					S-2.6,20-2.6,20z"/>
				<path fill="#4C4276" d="M4.8,28.2c1-0.7,3.7-2.6,4.2-2.9c0.5-0.4,2.6-0.1,3.1-0.4c0.5-0.3,1.3-1.7,1.7-1.7c0.4,0,3.1,0.1,3.8,0
					s0.6-1,1.1-1c1.4,0,2-1.3,2.4-1.4c0.4-0.1,2.2-0.1,2.7,0c0.5,0.1,0.9-1.3,1.3-0.8s0,8.1,0,8.1H4.8z"/>
				<path fill="#EBB025" d="M16.3,6.3c0,0,5.1,0.4,3.5,5.5l2,0.5c0,0,1.4-2.9-0.4-5.5s-4.7-2.5-4.7-2.5L16.3,6.3z"/>
				<path fill="#EBB025" d="M-11.7,18.9c0,0,9,3,9.8,3.9s4.1,5.4,4.1,5.4h-13.8V18.9z"/>
				<path fill="#4C4276" d="M5.4,4.4C0.5,3.7-5.9,2.1-6.1,1.2c-0.2-0.9,2.3-4.6,2.8-4.7C-2.1-3.8,6.8,0.2,6.8,0.2l3.5,1.7
					c0,0,6.3,2.6,4.3,2.9s-2.3,1-4.3,0.7S8,4.8,5.4,4.4z"/>
				<path fill="#4AC2C4" d="M1-7.1c0.6,0.8,2.3,3.6,3.8,4s5.5,1.8,7,2.3s4.4,3.5,9.9,4.1l5.2,0.4V-7.1H1z"/>
				<path fill="#4AC2C4" d="M12.3,21.7c0,0-2-5.4,2.6-7s6.4,2.4,6.4,2.4L12.3,21.7z"/>
				<polygon fill="#EBB025" points="1.6,-3.2 1.6,2.6 6.1,-1.2 				"/>
				<g>
					
						<ellipse transform="matrix(0.7071 -0.7071 0.7071 0.7071 -22.3253 6.892504e-02)" fill="#EBB025" cx="-11.1" cy="27" rx="0.4" ry="0.4"/>
					
						<ellipse transform="matrix(0.7071 -0.7071 0.7071 0.7071 -19.1446 1.3864)" fill="#EBB025" cx="-7.9" cy="23.8" rx="0.4" ry="0.4"/>
					
						<ellipse transform="matrix(0.7071 -0.7071 0.7071 0.7071 -15.9638 2.7039)" fill="#EBB025" cx="-4.7" cy="20.6" rx="0.2" ry="0.2"/>
					
						<ellipse transform="matrix(0.7071 -0.7071 0.7071 0.7071 -12.7831 4.0214)" fill="#EBB025" cx="-1.5" cy="17.4" rx="0.2" ry="0.2"/>
					
						<ellipse transform="matrix(0.7071 -0.7071 0.7071 0.7071 -9.6024 5.3389)" fill="#EBB025" cx="1.6" cy="14.3" rx="0.1" ry="0.1"/>
					
						<ellipse transform="matrix(0.7071 -0.7071 0.7071 0.7071 -6.4216 6.6564)" fill="#EBB025" cx="4.8" cy="11.1" rx="0.1" ry="0.1"/>
					
						<ellipse transform="matrix(0.7071 -0.7071 0.7071 0.7071 -21.0078 -3.1118)" fill="#EBB025" cx="-14.3" cy="23.8" rx="0.4" ry="0.4"/>
					
						<ellipse transform="matrix(0.7071 -0.7071 0.7071 0.7071 -17.8271 -1.7943)" fill="#EBB025" cx="-11.1" cy="20.6" rx="0.2" ry="0.2"/>
					
						<ellipse transform="matrix(0.7071 -0.7071 0.7071 0.7071 -14.6463 -0.4768)" fill="#EBB025" cx="-7.9" cy="17.4" rx="0.2" ry="0.2"/>
					
						<ellipse transform="matrix(0.7071 -0.7071 0.7071 0.7071 -11.4656 0.8407)" fill="#EBB025" cx="-4.7" cy="14.3" rx="0.1" ry="0.1"/>
					
						<ellipse transform="matrix(0.7071 -0.7071 0.7071 0.7071 -8.2849 2.1582)" fill="#EBB025" cx="-1.5" cy="11.1" rx="0.1" ry="0.1"/>
					
						<ellipse transform="matrix(0.7071 -0.7071 0.7071 0.7071 -24.9603 6.4304)" fill="#EBB025" cx="-4.7" cy="33.3" rx="0.4" ry="0.4"/>
					
						<ellipse transform="matrix(0.7071 -0.7071 0.7071 0.7071 -21.7796 7.7479)" fill="#EBB025" cx="-1.5" cy="30.2" rx="0.4" ry="0.4"/>
					
						<ellipse transform="matrix(0.7071 -0.7071 0.7071 0.7071 -18.5988 9.0654)" fill="#EBB025" cx="1.6" cy="27" rx="0.4" ry="0.4"/>
					
						<ellipse transform="matrix(0.7071 -0.7071 0.7071 0.7071 -15.4181 10.3829)" fill="#EBB025" cx="4.8" cy="23.8" rx="0.4" ry="0.4"/>
					
						<ellipse transform="matrix(0.7071 -0.7071 0.7071 0.7071 -12.2374 11.7004)" fill="#EBB025" cx="8" cy="20.6" rx="0.2" ry="0.2"/>
					
						<ellipse transform="matrix(0.7071 -0.7071 0.7071 0.7071 -9.0566 13.0179)" fill="#EBB025" cx="11.2" cy="17.4" rx="0.2" ry="0.2"/>
					
						<ellipse transform="matrix(0.7071 -0.7071 0.7071 0.7071 -5.8759 14.3354)" fill="#EBB025" cx="14.4" cy="14.3" rx="0.1" ry="0.1"/>
					
						<ellipse transform="matrix(0.7071 -0.7071 0.7071 0.7071 -2.6952 15.6529)" fill="#EBB025" cx="17.5" cy="11.1" rx="0.1" ry="0.1"/>
					
						<ellipse transform="matrix(0.7071 -0.7071 0.7071 0.7071 -23.6428 3.2497)" fill="#EBB025" cx="-7.9" cy="30.2" rx="0.4" ry="0.4"/>
					
						<ellipse transform="matrix(0.7071 -0.7071 0.7071 0.7071 -20.4621 4.5672)" fill="#EBB025" cx="-4.7" cy="27" rx="0.4" ry="0.4"/>
					
						<ellipse transform="matrix(0.7071 -0.7071 0.7071 0.7071 -17.2813 5.8847)" fill="#EBB025" cx="-1.5" cy="23.8" rx="0.4" ry="0.4"/>
					
						<ellipse transform="matrix(0.7071 -0.7071 0.7071 0.7071 -14.1006 7.2022)" fill="#EBB025" cx="1.6" cy="20.6" rx="0.2" ry="0.2"/>
					
						<ellipse transform="matrix(0.7071 -0.7071 0.7071 0.7071 -10.9199 8.5197)" fill="#EBB025" cx="4.8" cy="17.4" rx="0.2" ry="0.2"/>
					
						<ellipse transform="matrix(0.7071 -0.7071 0.7071 0.7071 -7.7391 9.8372)" fill="#EBB025" cx="8" cy="14.3" rx="0.1" ry="0.1"/>
					
						<ellipse transform="matrix(0.7071 -0.7071 0.7071 0.7071 -4.5584 11.1547)" fill="#EBB025" cx="11.2" cy="11.1" rx="0.1" ry="0.1"/>
					
						<ellipse transform="matrix(0.7071 -0.7071 0.7071 0.7071 -19.6903 -6.2925)" fill="#EBB025" cx="-17.4" cy="20.6" rx="0.2" ry="0.2"/>
					
						<ellipse transform="matrix(0.7071 -0.7071 0.7071 0.7071 -16.5096 -4.975)" fill="#EBB025" cx="-14.3" cy="17.4" rx="0.2" ry="0.2"/>
					
						<ellipse transform="matrix(0.7071 -0.7071 0.7071 0.7071 -13.3288 -3.6575)" fill="#EBB025" cx="-11.1" cy="14.3" rx="0.1" ry="0.1"/>
					
						<ellipse transform="matrix(0.7071 -0.7071 0.7071 0.7071 -10.1481 -2.34)" fill="#EBB025" cx="-7.9" cy="11.1" rx="0.1" ry="0.1"/>
					
						<ellipse transform="matrix(0.7071 -0.7071 0.7071 0.7071 -18.3728 -9.4733)" fill="#EBB025" cx="-20.6" cy="17.4" rx="0.2" ry="0.2"/>
					
						<ellipse transform="matrix(0.7071 -0.7071 0.7071 0.7071 -15.1921 -8.1558)" fill="#EBB025" cx="-17.4" cy="14.3" rx="0.1" ry="0.1"/>
					
						<ellipse transform="matrix(0.7071 -0.7071 0.7071 0.7071 -12.0113 -6.8383)" fill="#EBB025" cx="-14.3" cy="11.1" rx="0.1" ry="0.1"/>
				</g>
				<path fill="#E4AFC5" d="M9.7,0.5C7.9,0,5.1-2.6,10.5-3c5.4-0.5,10.8-0.6,10.8-0.6s-6.8,1.7-1.9,6.3C19.4,2.8,13.9,1.8,9.7,0.5z"
					/>
			</g>
		</g>
	</g>
</g>
</svg>
