<?xml version="1.0" encoding="utf-8"?>
<!-- Generator: Adobe Illustrator 21.1.0, SVG Export Plug-In . SVG Version: 6.00 Build 0)  -->
<svg version="1.1" id="Layer_1" xmlns="http://www.w3.org/2000/svg" xmlns:xlink="http://www.w3.org/1999/xlink" x="0px" y="0px"
	 width="72px" height="72px" viewBox="0 0 72 72" enable-background="new 0 0 72 72" xml:space="preserve">
<g>
	<defs>
		<path id="SVGID_1_" d="M0,0v72h72V0H0z M45.7,49.1H26.3v-4.6h19.4V49.1z M45.7,40h-3.9v-8.8l-0.1,0.3L37.3,40h-2.5l-4.4-8.6
			l-0.1-0.3V40h-3.9V22.9h4L36,33.5l0.1,0.1l0.1-0.1l5.7-10.7h4V40z"/>
	</defs>
	<clipPath id="SVGID_2_">
		<use xlink:href="#SVGID_1_"  overflow="visible"/>
	</clipPath>
	<g clip-path="url(#SVGID_2_)">
		<defs>
			<rect id="SVGID_3_" x="-38.3" y="-25.8" width="134.6" height="134.6"/>
		</defs>
		<clipPath id="SVGID_4_">
			<use xlink:href="#SVGID_3_"  overflow="visible"/>
		</clipPath>
		<g clip-path="url(#SVGID_4_)">
			<rect x="-38.5" y="-28.8" fill="#EED7BC" width="135.5" height="138.5"/>
			<g>
				<g>
					<circle fill="#E4AFC5" cx="1.6" cy="-24.9" r="1.8"/>
					<circle fill="#E4AFC5" cx="1.6" cy="-6.7" r="1.8"/>
					<circle fill="#E4AFC5" cx="1.6" cy="11.4" r="0.9"/>
					<circle fill="#E4AFC5" cx="1.6" cy="29.6" r="0.9"/>
					<circle fill="#E4AFC5" cx="1.6" cy="47.7" r="0.6"/>
					<circle fill="#E4AFC5" cx="1.6" cy="65.9" r="0.3"/>
					<circle fill="#E4AFC5" cx="19.8" cy="-24.9" r="1.8"/>
					<circle fill="#E4AFC5" cx="19.8" cy="-6.7" r="0.9"/>
					<circle fill="#E4AFC5" cx="19.8" cy="11.4" r="0.9"/>
					<circle fill="#E4AFC5" cx="19.8" cy="29.6" r="0.6"/>
					<circle fill="#E4AFC5" cx="19.8" cy="47.7" r="0.3"/>
					<circle fill="#E4AFC5" cx="-34.7" cy="-24.9" r="1.8"/>
					<circle fill="#E4AFC5" cx="-34.7" cy="-6.7" r="1.8"/>
					<circle fill="#E4AFC5" cx="-34.7" cy="11.4" r="1.8"/>
					<circle fill="#E4AFC5" cx="-34.7" cy="29.6" r="1.8"/>
					<circle fill="#E4AFC5" cx="-34.7" cy="47.7" r="0.9"/>
					<circle fill="#E4AFC5" cx="-34.7" cy="65.9" r="0.9"/>
					<circle fill="#E4AFC5" cx="-34.7" cy="84.1" r="0.6"/>
					<circle fill="#E4AFC5" cx="-34.7" cy="102.2" r="0.3"/>
					<circle fill="#E4AFC5" cx="-16.5" cy="-24.9" r="1.8"/>
					<circle fill="#E4AFC5" cx="-16.5" cy="-6.7" r="1.8"/>
					<circle fill="#E4AFC5" cx="-16.5" cy="11.4" r="1.8"/>
					<circle fill="#E4AFC5" cx="-16.5" cy="29.6" r="0.9"/>
					<circle fill="#E4AFC5" cx="-16.5" cy="47.7" r="0.9"/>
					<circle fill="#E4AFC5" cx="-16.5" cy="65.9" r="0.6"/>
					<circle fill="#E4AFC5" cx="-16.5" cy="84.1" r="0.3"/>
					<circle fill="#E4AFC5" cx="38" cy="-24.9" r="0.9"/>
					<circle fill="#E4AFC5" cx="38" cy="-6.7" r="0.9"/>
					<circle fill="#E4AFC5" cx="38" cy="11.4" r="0.6"/>
					<circle fill="#E4AFC5" cx="38" cy="29.6" r="0.3"/>
					<circle fill="#E4AFC5" cx="56.1" cy="-24.9" r="0.9"/>
					<circle fill="#E4AFC5" cx="56.1" cy="-6.7" r="0.6"/>
					<circle fill="#E4AFC5" cx="56.1" cy="11.4" r="0.3"/>
				</g>
			</g>
			
				<ellipse transform="matrix(0.8265 -0.563 0.563 0.8265 -23.8808 -16.4573)" fill="#4AC2C4" cx="-38.6" cy="30.5" rx="38" ry="29.6"/>
			<path fill="#E4AFC5" d="M-10.4,80.7c-3.7-5.1-2.2-23.8,0-27.4c2.2-3.6,22.2-8.4,22.2-8.4s22.4,5,23.6,8.4
				c1.2,3.4-10.6,32.9-18.9,32.9S-10.4,80.7-10.4,80.7z"/>
			<path fill="#4C4276" d="M19.4,113.7c4.2-2.7,14.8-10.3,16.9-11.8s10.5-0.3,12.6-1.4s5.3-7,6.9-7c1.6,0.1,12.6,0.4,15.3,0
				c2.6-0.4,2.3-4.2,4.5-4.1c5.5,0.2,8.2-5.2,9.7-5.5c1.6-0.3,9-0.2,11.1,0c2.1,0.2,3.7-5.3,5.3-3c1.6,2.2,0,32.8,0,32.8H19.4z"/>
			<path fill="#EBB025" d="M65.9,25.3c0,0,20.4,1.7,14.3,22.3l8.1,1.9c0,0,5.8-11.6-1.4-22.2c-7.3-10.6-19-10.3-19-10.3L65.9,25.3z"
				/>
			<path fill="#EBB025" d="M-47.4,76.3c0,0,36.4,12.2,39.3,15.8s16.5,21.6,16.5,21.6h-55.9V76.3z"/>
			<path fill="#4C4276" d="M21.9,17.9C2.1,14.7-23.8,8.4-24.7,4.9c-0.9-3.5,9.4-18.6,11.3-19.1c5-1.2,40.6,14.9,40.6,14.9l14.1,6.8
				c0,0,25.3,10.4,17.3,11.6s-9.3,3.9-17.2,2.6S32.2,19.5,21.9,17.9z"/>
			<path fill="#4AC2C4" d="M4.2-28.8c2.2,3.1,9.4,14.6,15.2,16.2s22.3,7.4,28.1,9.2s17.8,14.1,40.1,16.4l21,1.8v-43.6H4.2z"/>
			<path fill="#4AC2C4" d="M49.5,87.6c0,0-7.9-21.8,10.5-28.4s25.9,9.5,25.9,9.5L49.5,87.6z"/>
			<polygon fill="#EBB025" points="6.6,-12.9 6.6,10.5 24.6,-4.9 			"/>
			<g>
				
					<ellipse transform="matrix(0.7071 -0.7071 0.7071 0.7071 -90.0955 0.2788)" fill="#EBB025" cx="-44.7" cy="108.9" rx="1.8" ry="1.8"/>
				
					<ellipse transform="matrix(0.7071 -0.7071 0.7071 0.7071 -77.2596 5.5956)" fill="#EBB025" cx="-31.9" cy="96.1" rx="1.8" ry="1.8"/>
				
					<ellipse transform="matrix(0.7071 -0.7071 0.7071 0.7071 -64.4238 10.9124)" fill="#EBB025" cx="-19" cy="83.2" rx="0.9" ry="0.9"/>
				
					<ellipse transform="matrix(0.7071 -0.7071 0.7071 0.7071 -51.5879 16.2292)" fill="#EBB025" cx="-6.2" cy="70.4" rx="0.9" ry="0.9"/>
				
					<ellipse transform="matrix(0.7071 -0.7071 0.7071 0.7071 -38.752 21.5459)" fill="#EBB025" cx="6.6" cy="57.6" rx="0.6" ry="0.6"/>
				
					<ellipse transform="matrix(0.7071 -0.7071 0.7071 0.7071 -25.9161 26.8627)" fill="#EBB025" cx="19.5" cy="44.7" rx="0.3" ry="0.3"/>
				
					<ellipse transform="matrix(0.7071 -0.7071 0.7071 0.7071 -84.7787 -12.5571)" fill="#EBB025" cx="-57.5" cy="96.1" rx="1.8" ry="1.8"/>
				
					<ellipse transform="matrix(0.7071 -0.7071 0.7071 0.7071 -71.9428 -7.2403)" fill="#EBB025" cx="-44.7" cy="83.2" rx="0.9" ry="0.9"/>
				
					<ellipse transform="matrix(0.7071 -0.7071 0.7071 0.7071 -59.107 -1.9235)" fill="#EBB025" cx="-31.9" cy="70.4" rx="0.9" ry="0.9"/>
				
					<ellipse transform="matrix(0.7071 -0.7071 0.7071 0.7071 -46.2711 3.3933)" fill="#EBB025" cx="-19" cy="57.6" rx="0.6" ry="0.6"/>
				
					<ellipse transform="matrix(0.7071 -0.7071 0.7071 0.7071 -33.4352 8.7101)" fill="#EBB025" cx="-6.2" cy="44.7" rx="0.3" ry="0.3"/>
				
					<ellipse transform="matrix(0.7071 -0.7071 0.7071 0.7071 -100.7291 25.9505)" fill="#EBB025" cx="-19" cy="134.6" rx="1.8" ry="1.8"/>
				
					<ellipse transform="matrix(0.7071 -0.7071 0.7071 0.7071 -87.8932 31.2673)" fill="#EBB025" cx="-6.2" cy="121.7" rx="1.8" ry="1.8"/>
				
					<ellipse transform="matrix(0.7071 -0.7071 0.7071 0.7071 -75.0574 36.5841)" fill="#EBB025" cx="6.6" cy="108.9" rx="1.8" ry="1.8"/>
				
					<ellipse transform="matrix(0.7071 -0.7071 0.7071 0.7071 -62.2215 41.9009)" fill="#EBB025" cx="19.5" cy="96.1" rx="1.8" ry="1.8"/>
				
					<ellipse transform="matrix(0.7071 -0.7071 0.7071 0.7071 -49.3856 47.2177)" fill="#EBB025" cx="32.3" cy="83.2" rx="0.9" ry="0.9"/>
				
					<ellipse transform="matrix(0.7071 -0.7071 0.7071 0.7071 -36.5497 52.5345)" fill="#EBB025" cx="45.1" cy="70.4" rx="0.9" ry="0.9"/>
				
					<ellipse transform="matrix(0.7071 -0.7071 0.7071 0.7071 -23.7139 57.8513)" fill="#EBB025" cx="58" cy="57.6" rx="0.6" ry="0.6"/>
				
					<ellipse transform="matrix(0.7071 -0.7071 0.7071 0.7071 -10.878 63.1681)" fill="#EBB025" cx="70.8" cy="44.7" rx="0.3" ry="0.3"/>
				
					<ellipse transform="matrix(0.7071 -0.7071 0.7071 0.7071 -95.4123 13.1146)" fill="#EBB025" cx="-31.9" cy="121.7" rx="1.8" ry="1.8"/>
				
					<ellipse transform="matrix(0.7071 -0.7071 0.7071 0.7071 -82.5764 18.4314)" fill="#EBB025" cx="-19" cy="108.9" rx="1.8" ry="1.8"/>
				
					<ellipse transform="matrix(0.7071 -0.7071 0.7071 0.7071 -69.7406 23.7482)" fill="#EBB025" cx="-6.2" cy="96.1" rx="1.8" ry="1.8"/>
				
					<ellipse transform="matrix(0.7071 -0.7071 0.7071 0.7071 -56.9047 29.065)" fill="#EBB025" cx="6.6" cy="83.2" rx="0.9" ry="0.9"/>
				
					<ellipse transform="matrix(0.7071 -0.7071 0.7071 0.7071 -44.0688 34.3818)" fill="#EBB025" cx="19.5" cy="70.4" rx="0.9" ry="0.9"/>
				
					<ellipse transform="matrix(0.7071 -0.7071 0.7071 0.7071 -31.2329 39.6986)" fill="#EBB025" cx="32.3" cy="57.6" rx="0.6" ry="0.6"/>
				
					<ellipse transform="matrix(0.7071 -0.7071 0.7071 0.7071 -18.3971 45.0154)" fill="#EBB025" cx="45.1" cy="44.7" rx="0.3" ry="0.3"/>
				
					<ellipse transform="matrix(0.7071 -0.7071 0.7071 0.7071 -79.4619 -25.393)" fill="#EBB025" cx="-70.4" cy="83.2" rx="0.9" ry="0.9"/>
				
					<ellipse transform="matrix(0.7071 -0.7071 0.7071 0.7071 -66.6261 -20.0762)" fill="#EBB025" cx="-57.5" cy="70.4" rx="0.9" ry="0.9"/>
				
					<ellipse transform="matrix(0.7071 -0.7071 0.7071 0.7071 -53.7902 -14.7594)" fill="#EBB025" cx="-44.7" cy="57.6" rx="0.6" ry="0.6"/>
				
					<ellipse transform="matrix(0.7071 -0.7071 0.7071 0.7071 -40.9543 -9.4426)" fill="#EBB025" cx="-31.9" cy="44.7" rx="0.3" ry="0.3"/>
				
					<ellipse transform="matrix(0.7071 -0.7071 0.7071 0.7071 -74.1451 -38.2289)" fill="#EBB025" cx="-83.2" cy="70.4" rx="0.9" ry="0.9"/>
				
					<ellipse transform="matrix(0.7071 -0.7071 0.7071 0.7071 -61.3093 -32.9121)" fill="#EBB025" cx="-70.4" cy="57.6" rx="0.6" ry="0.6"/>
				
					<ellipse transform="matrix(0.7071 -0.7071 0.7071 0.7071 -48.4734 -27.5953)" fill="#EBB025" cx="-57.5" cy="44.7" rx="0.3" ry="0.3"/>
			</g>
			<path fill="#E4AFC5" d="M39,2c-7.1-2.2-18.3-12.4,3.4-14.2c21.8-1.8,43.5-2.3,43.5-2.3s-27.6,6.7-7.7,25.6
				C78.2,11.1,56.1,7.3,39,2z"/>
		</g>
	</g>
</g>
</svg>
