<?xml version="1.0" encoding="utf-8"?>
<!-- Generator: Adobe Illustrator 21.1.0, SVG Export Plug-In . SVG Version: 6.00 Build 0)  -->
<svg version="1.1" id="Layer_1" xmlns="http://www.w3.org/2000/svg" xmlns:xlink="http://www.w3.org/1999/xlink" x="0px" y="0px"
	 width="4000px" height="4000px" viewBox="0 0 4000 4000" enable-background="new 0 0 4000 4000" xml:space="preserve">
<g>
	<defs>
		<rect id="SVGID_1_" width="4000" height="4000"/>
	</defs>
	<clipPath id="SVGID_2_">
		<use xlink:href="#SVGID_1_"  overflow="visible"/>
	</clipPath>
	<g clip-path="url(#SVGID_2_)">
		<rect x="-5.8" y="-89.4" fill="#EDD7BC" width="4024.4" height="4115.4"/>
		<g>
			<g>
				<circle fill="#E4B0C5" cx="1187.6" cy="28.4" r="53.9"/>
				<circle fill="#E4B0C5" cx="1187.6" cy="567.7" r="53.9"/>
				<circle fill="#E4B0C5" cx="1187.6" cy="1107" r="26.9"/>
				<circle fill="#E4B0C5" cx="1187.6" cy="1646.3" r="26.9"/>
				<circle fill="#E4B0C5" cx="1187.6" cy="2185.6" r="18"/>
				<circle fill="#E4B0C5" cx="1187.6" cy="2724.9" r="9"/>
				<circle fill="#E4B0C5" cx="1726.9" cy="28.4" r="53.9"/>
				<circle fill="#E4B0C5" cx="1726.9" cy="567.7" r="26.9"/>
				<circle fill="#E4B0C5" cx="1726.9" cy="1107" r="26.9"/>
				<circle fill="#E4B0C5" cx="1726.9" cy="1646.3" r="18"/>
				<circle fill="#E4B0C5" cx="1726.9" cy="2185.6" r="9"/>
				<circle fill="#E4B0C5" cx="109" cy="28.4" r="53.9"/>
				<circle fill="#E4B0C5" cx="109" cy="567.7" r="53.9"/>
				<circle fill="#E4B0C5" cx="109" cy="1107" r="53.9"/>
				<circle fill="#E4B0C5" cx="109" cy="1646.3" r="53.9"/>
				<circle fill="#E4B0C5" cx="109" cy="2185.6" r="26.9"/>
				<circle fill="#E4B0C5" cx="109" cy="2724.9" r="26.9"/>
				<circle fill="#E4B0C5" cx="109" cy="3264.2" r="18"/>
				<circle fill="#E4B0C5" cx="109" cy="3803.5" r="9"/>
				<circle fill="#E4B0C5" cx="648.3" cy="28.4" r="53.9"/>
				<circle fill="#E4B0C5" cx="648.3" cy="567.7" r="53.9"/>
				<circle fill="#E4B0C5" cx="648.3" cy="1107" r="53.9"/>
				<circle fill="#E4B0C5" cx="648.3" cy="1646.3" r="26.9"/>
				<circle fill="#E4B0C5" cx="648.3" cy="2185.6" r="26.9"/>
				<circle fill="#E4B0C5" cx="648.3" cy="2724.9" r="18"/>
				<circle fill="#E4B0C5" cx="648.3" cy="3264.2" r="9"/>
				<circle fill="#E4B0C5" cx="2266.2" cy="28.4" r="26.9"/>
				<circle fill="#E4B0C5" cx="2266.2" cy="567.7" r="26.9"/>
				<circle fill="#E4B0C5" cx="2266.2" cy="1107" r="18"/>
				<circle fill="#E4B0C5" cx="2266.2" cy="1646.3" r="9"/>
				<circle fill="#E4B0C5" cx="2805.5" cy="28.4" r="26.9"/>
				<circle fill="#E4B0C5" cx="2805.5" cy="567.7" r="18"/>
				<circle fill="#E4B0C5" cx="2805.5" cy="1107" r="9"/>
			</g>
		</g>
		
			<ellipse transform="matrix(0.8265 -0.563 0.563 0.8265 -943.7712 285.2286)" fill="#47C1C3" cx="-9.2" cy="1673.6" rx="1129.1" ry="878.1"/>
		<path fill="#E4B0C5" d="M829,3164c-111.2-151.3-64.2-706.3,0-814.5s660.3-250.8,660.3-250.8s666.3,148.7,701.3,250.8
			c35.1,102.1-315.6,977.7-561.1,978.3C1384.1,3328.3,829,3164,829,3164z"/>
		<path fill="#4B4175" d="M1713.6,4146.5c125.2-78.9,438.3-306.3,501-349.2c62.6-42.8,313.1-10.2,375.7-42.2
			c62.6-32,156.5-209,203.5-206.6s375.7,13.2,454,0c78.3-13.2,68.4-124.1,133-122.3c164.5,4.6,242.7-155.1,289.6-163.9
			c47-8.8,266.1-6.8,328.7,0c62.6,6.8,109.6-156.4,156.5-90.4c47,65.9,0,974.5,0,974.5H1713.6z"/>
		<path fill="#ECB027" d="M3097.2,1519c0,0,607.1,50.4,424.6,662.4l241.2,57.6c0,0,173.5-345.4-43.1-658.9s-564.4-305.5-564.4-305.5
			L3097.2,1519z"/>
		<path fill="#ECB027" d="M-268.9,3034.9c0,0,1080.7,361.3,1169,470c88.3,108.7,491.4,641.5,491.4,641.5H-268.9V3034.9z"/>
		<path fill="#4B4175" d="M1789.8,1297.9C1200.2,1204.8,431.9,1017,406.2,913.4C380.4,809.8,686.9,360.8,743,346.9
			c147.1-36.6,1206.7,442.7,1206.7,442.7l418.2,201.8c0,0,751.6,309.4,515,344.7c-236.6,35.3-277.7,116.8-512.2,78.1
			C2136.2,1375.4,2094.7,1346,1789.8,1297.9z"/>
		<path fill="#47C1C3" d="M1264.5-89.4C1330.7,1.7,1542.6,345,1714.8,391s662.2,219,834.4,272.5c172.2,53.5,529.8,418,1192,487.7
			l622.5,53.9V-89.4H1264.5z"/>
		<path fill="#47C1C3" d="M2607.8,3369.4c0,0-235.4-648.5,311.3-845.1s769.4,283.3,769.4,283.3L2607.8,3369.4z"/>
		<polygon fill="#ECB027" points="1335.7,384.9 1335.7,1080 1868.5,620.4 		"/>
		<g>
			
				<ellipse transform="matrix(0.7071 -0.7071 0.7071 0.7071 -2885.6199 1038.1277)" fill="#ECB027" cx="-189.7" cy="4002.3" rx="53.9" ry="53.9"/>
			
				<ellipse transform="matrix(0.7071 -0.7071 0.7071 0.7071 -2504.2737 1196.0863)" fill="#ECB027" cx="191.7" cy="3621" rx="53.9" ry="53.9"/>
			
				<ellipse transform="matrix(0.7071 -0.7071 0.7071 0.7071 -2122.9277 1354.045)" fill="#ECB027" cx="573" cy="3239.6" rx="26.9" ry="26.9"/>
			
				<ellipse transform="matrix(0.7071 -0.7071 0.7071 0.7071 -1741.5815 1512.0038)" fill="#ECB027" cx="954.4" cy="2858.3" rx="26.9" ry="26.9"/>
			
				<ellipse transform="matrix(0.7071 -0.7071 0.7071 0.7071 -1360.2355 1669.9625)" fill="#ECB027" cx="1335.7" cy="2476.9" rx="18" ry="18"/>
			
				<ellipse transform="matrix(0.7071 -0.7071 0.7071 0.7071 -978.8893 1827.9213)" fill="#ECB027" cx="1717.1" cy="2095.6" rx="9" ry="9"/>
			
				<ellipse transform="matrix(0.7071 -0.7071 0.7071 0.7071 -2727.6611 656.7815)" fill="#ECB027" cx="-571" cy="3621" rx="53.9" ry="53.9"/>
			
				<ellipse transform="matrix(0.7071 -0.7071 0.7071 0.7071 -2346.3149 814.7402)" fill="#ECB027" cx="-189.7" cy="3239.6" rx="26.9" ry="26.9"/>
			
				<ellipse transform="matrix(0.7071 -0.7071 0.7071 0.7071 -1964.969 972.699)" fill="#ECB027" cx="191.7" cy="2858.3" rx="26.9" ry="26.9"/>
			
				<ellipse transform="matrix(0.7071 -0.7071 0.7071 0.7071 -1583.6228 1130.6577)" fill="#ECB027" cx="573" cy="2476.9" rx="18" ry="18"/>
			
				<ellipse transform="matrix(0.7071 -0.7071 0.7071 0.7071 -1202.2767 1288.6165)" fill="#ECB027" cx="954.4" cy="2095.6" rx="9" ry="9"/>
			
				<ellipse transform="matrix(0.7071 -0.7071 0.7071 0.7071 -3201.5374 1800.8198)" fill="#ECB027" cx="573" cy="4765" rx="53.9" ry="53.9"/>
			
				<ellipse transform="matrix(0.7071 -0.7071 0.7071 0.7071 -2820.1912 1958.7786)" fill="#ECB027" cx="954.4" cy="4383.7" rx="53.9" ry="53.9"/>
			
				<ellipse transform="matrix(0.7071 -0.7071 0.7071 0.7071 -2438.8452 2116.7373)" fill="#ECB027" cx="1335.7" cy="4002.3" rx="53.9" ry="53.9"/>
			
				<ellipse transform="matrix(0.7071 -0.7071 0.7071 0.7071 -2057.499 2274.696)" fill="#ECB027" cx="1717.1" cy="3621" rx="53.9" ry="53.9"/>
			
				<ellipse transform="matrix(0.7071 -0.7071 0.7071 0.7071 -1676.153 2432.6548)" fill="#ECB027" cx="2098.4" cy="3239.6" rx="26.9" ry="26.9"/>
			
				<ellipse transform="matrix(0.7071 -0.7071 0.7071 0.7071 -1294.8068 2590.6135)" fill="#ECB027" cx="2479.7" cy="2858.3" rx="26.9" ry="26.9"/>
			
				<ellipse transform="matrix(0.7071 -0.7071 0.7071 0.7071 -913.4607 2748.5723)" fill="#ECB027" cx="2861.1" cy="2476.9" rx="18" ry="18"/>
			
				<ellipse transform="matrix(0.7071 -0.7071 0.7071 0.7071 -532.1146 2906.531)" fill="#ECB027" cx="3242.4" cy="2095.6" rx="9" ry="9"/>
			
				<ellipse transform="matrix(0.7071 -0.7071 0.7071 0.7071 -3043.5786 1419.4738)" fill="#ECB027" cx="191.7" cy="4383.7" rx="53.9" ry="53.9"/>
			
				<ellipse transform="matrix(0.7071 -0.7071 0.7071 0.7071 -2662.2324 1577.4325)" fill="#ECB027" cx="573" cy="4002.3" rx="53.9" ry="53.9"/>
			
				<ellipse transform="matrix(0.7071 -0.7071 0.7071 0.7071 -2280.8865 1735.3912)" fill="#ECB027" cx="954.4" cy="3621" rx="53.9" ry="53.9"/>
			
				<ellipse transform="matrix(0.7071 -0.7071 0.7071 0.7071 -1899.5403 1893.35)" fill="#ECB027" cx="1335.7" cy="3239.6" rx="26.9" ry="26.9"/>
			
				<ellipse transform="matrix(0.7071 -0.7071 0.7071 0.7071 -1518.1942 2051.3086)" fill="#ECB027" cx="1717.1" cy="2858.3" rx="26.9" ry="26.9"/>
			
				<ellipse transform="matrix(0.7071 -0.7071 0.7071 0.7071 -1136.848 2209.2673)" fill="#ECB027" cx="2098.4" cy="2476.9" rx="18" ry="18"/>
			
				<ellipse transform="matrix(0.7071 -0.7071 0.7071 0.7071 -755.502 2367.2261)" fill="#ECB027" cx="2479.7" cy="2095.6" rx="9" ry="9"/>
			
				<ellipse transform="matrix(0.7071 -0.7071 0.7071 0.7071 -2569.7024 275.4354)" fill="#ECB027" cx="-952.4" cy="3239.6" rx="26.9" ry="26.9"/>
			
				<ellipse transform="matrix(0.7071 -0.7071 0.7071 0.7071 -2188.3564 433.3941)" fill="#ECB027" cx="-571" cy="2858.3" rx="26.9" ry="26.9"/>
			
				<ellipse transform="matrix(0.7071 -0.7071 0.7071 0.7071 -1807.0103 591.3529)" fill="#ECB027" cx="-189.7" cy="2476.9" rx="18" ry="18"/>
			
				<ellipse transform="matrix(0.7071 -0.7071 0.7071 0.7071 -1425.6641 749.3116)" fill="#ECB027" cx="191.7" cy="2095.6" rx="9" ry="9"/>
			
				<ellipse transform="matrix(0.7071 -0.7071 0.7071 0.7071 -2411.7437 -105.9107)" fill="#ECB027" cx="-1333.7" cy="2858.3" rx="26.9" ry="26.9"/>
			
				<ellipse transform="matrix(0.7071 -0.7071 0.7071 0.7071 -2030.3976 52.048)" fill="#ECB027" cx="-952.4" cy="2476.9" rx="18" ry="18"/>
			
				<ellipse transform="matrix(0.7071 -0.7071 0.7071 0.7071 -1649.0515 210.0068)" fill="#ECB027" cx="-571" cy="2095.6" rx="9" ry="9"/>
		</g>
		<path fill="#E4B0C5" d="M2297.9,828c-210.3-65.1-544.7-367.8,100.6-421.8c646.8-54.1,1293.3-69.1,1293.3-69.1
			s-819.1,200-229.9,761.2C3461.9,1098.3,2805.7,985.3,2297.9,828z"/>
	</g>
</g>
</svg>
