<?xml version="1.0" encoding="utf-8"?>
<!-- Generator: Adobe Illustrator 23.0.1, SVG Export Plug-In . SVG Version: 6.00 Build 0)  -->
<svg version="1.1" id="Layer_1" xmlns="http://www.w3.org/2000/svg" xmlns:xlink="http://www.w3.org/1999/xlink" x="0px" y="0px"
	 viewBox="0 0 72 17.8" enable-background="new 0 0 72 17.8" xml:space="preserve">
<g>
	<g>
		<g>
			<path fill="#4AC2C4" d="M42.9,6.8c-0.7,0-1.2,0.2-1.6,0.6l0,0V7h-1.6v7.1h1.6v-2.3l0,0c0.4,0.4,1,0.6,1.6,0.6
				c1.5,0,2.6-1.2,2.6-2.8C45.5,8,44.4,6.8,42.9,6.8z M42.6,11c-0.7,0-1.3-0.5-1.3-1.4c0-0.8,0.6-1.4,1.3-1.4c0.8,0,1.3,0.6,1.3,1.4
				C43.9,10.4,43.3,11,42.6,11z M36.9,9.3c0,0.8-0.4,1.3-1.1,1.3c-0.7,0-1.1-0.5-1.1-1.3V7h-1.6v2.4c0,1.5,1,2.6,2.3,2.6
				c0.5,0,1-0.2,1.4-0.5l0,0v0.2c0,0.8-0.5,1.3-1.2,1.3c-0.5,0-0.9-0.3-1.2-0.6L33.2,13c0.5,0.8,1.3,1.2,2.5,1.2
				c1.8,0,2.8-0.9,2.8-2.5V7h-1.6L36.9,9.3z M28,9.6L28,9.6L28,9.6l-2.4-4.4h-1.7v7.1h1.6V8.6l0.1,0.1l1.9,3.6h1.1l1.9-3.5l0.1-0.1
				v3.6H32V5.2h-1.7L28,9.6z M71.6,10.7c-0.2,0.1-0.5,0.2-0.8,0.2c-0.5,0-0.7-0.3-0.7-0.8V8.3h1.6V7h-1.6V5.2l-1.6,0.3V7h-1v1.3h1
				v2.1c0,1.4,0.7,2.1,2.1,2.1c0.6,0,1.1-0.2,1.4-0.4L71.6,10.7z M64.6,6.8c-1.6,0-2.8,1.2-2.8,2.8c0,1.6,1.2,2.8,2.8,2.8
				c1.2,0,2.2-0.6,2.6-1.6l-1.5-0.3c-0.3,0.5-0.8,0.6-1.2,0.6c-0.6,0-1-0.4-1.2-1.1l0,0h3.9V9.6C67.3,8,66.2,6.8,64.6,6.8z M63.4,9
				L63.4,9c0.2-0.6,0.7-0.9,1.2-0.9c0.5,0,1,0.3,1.1,0.9l0,0H63.4z M59,6.8c-0.6,0-1.2,0.2-1.6,0.7l-0.1,0.1V7h-1.6v5.3h1.6V9.8
				c0-1,0.4-1.5,1.1-1.5c0.6,0,0.9,0.4,0.9,1.1v2.9h1.6V9C61.1,7.7,60.2,6.8,59,6.8z M46.3,12.2h1.6V5.2h-1.6V12.2z M53,7.4L53,7.4
				c-0.5-0.4-1-0.6-1.7-0.6c-1.5,0-2.6,1.2-2.6,2.8c0,1.6,1.1,2.8,2.6,2.8c0.7,0,1.2-0.2,1.6-0.6l0,0v0.5h1.6V7H53V7.4z M51.6,11
				c-0.8,0-1.3-0.6-1.3-1.4c0-0.8,0.5-1.4,1.3-1.4c0.8,0,1.3,0.6,1.3,1.4C53,10.5,52.3,11,51.6,11z"/>
		</g>
	</g>
	<g>
		<defs>
			<path id="SVGID_1_" d="M0,0v17.8h17.8V0H0z M11.3,12.2H6.5V11h4.8V12.2z M11.3,9.9h-1V7.7l0,0.1L9.2,9.9H8.6L7.5,7.8l0-0.1v2.2
				h-1V5.7h1l1.4,2.6l0,0l0,0l1.4-2.6h1V9.9z"/>
		</defs>
		<clipPath id="SVGID_2_">
			<use xlink:href="#SVGID_1_"  overflow="visible"/>
		</clipPath>
		<g clip-path="url(#SVGID_2_)">
			<defs>
				<rect id="SVGID_3_" x="0" y="0" width="17.8" height="17.8"/>
			</defs>
			<clipPath id="SVGID_4_">
				<use xlink:href="#SVGID_3_"  overflow="visible"/>
			</clipPath>
			<g clip-path="url(#SVGID_4_)">
				<g>
					<polygon fill="#4AC2C4" points="14.8,28.8 11.9,24.3 14.4,13.4 25.9,14.6 29.4,17.7 17.9,17.9 					"/>
					<polygon fill="#048859" points="25.9,14.6 20.9,9.7 10.7,9.1 9.2,20 11.9,24.3 14.4,13.4 					"/>
					<polygon fill="#4BB763" points="9.2,20 6,14.9 7.6,5.7 18.2,7 20.9,9.7 10.7,9.1 					"/>
					<polygon fill="#D6E7A9" points="18.2,33.5 14.8,28.8 17.9,17.9 29.4,17.7 34.6,22.2 23,23.3 					"/>
					<polygon fill="#0F446C" points="3.4,10.9 6,14.9 7.6,5.7 18.2,7 15.1,3.7 4.5,2.2 					"/>
					<polygon fill="#397ABE" points="3.4,10.9 1.3,7.7 1.7,-1.7 12.9,1.4 15.1,3.7 4.5,2.2 					"/>
					<polygon fill="#4AC2C4" points="12.9,1.4 8.6,-2.9 -0.4,-4.3 -1.3,3.2 1.3,7.7 1.7,-1.7 					"/>
					<polygon fill="#117E80" points="-3.9,-1.2 -1.3,3.2 -0.4,-4.3 8.6,-2.9 5.1,-6.8 -2.9,-8.1 					"/>
					<polygon fill="#2B2B49" points="-3.9,-1.2 -6.4,-5.7 -4.7,-11.4 2,-10.2 5.1,-6.8 -2.9,-8.1 					"/>
					<polygon fill="#EDF4DB" points="-7,-7.1 -6.4,-5.7 -4.7,-11.4 2,-10.2 1.1,-11.3 -5.1,-12.4 					"/>
				</g>
				<g>
					<polygon fill="#EBB025" points="-3.9,32.3 -5.6,27.4 -0.8,17.4 10.1,21 12.8,24.8 1.6,22.5 					"/>
					<polygon fill="#4AC2C4" points="10.1,21 6.4,15.2 -3.4,12.4 -7.3,22.6 -5.6,27.4 -0.8,17.4 					"/>
					<polygon fill="#2B2B49" points="-7.3,22.6 -9.9,15.3 -7.2,5.6 2.6,8.9 6.4,15.2 -3.4,12.4 					"/>
					<polygon fill="#EDF4DB" points="-1.6,37.7 -3.9,32.3 1.6,22.5 12.8,24.8 16.8,30.4 5.3,28.9 					"/>
					<polygon fill="#048859" points="-10.9,12.8 -9.9,15.3 -7.2,5.6 2.6,8.9 2,8.1 -7.9,4.3 					"/>
					<polygon fill="#D6E7A9" points="-10.9,12.8 -12.2,8.9 -9.7,-0.2 0.4,5.4 2,8.1 -7.9,4.3 					"/>
					<polygon fill="#4BB763" points="0.4,5.4 -2.8,0.2 -11.2,-3.2 -13.8,4 -12.2,8.9 -9.7,-0.2 					"/>
					<polygon fill="#048859" points="-15.3,-0.9 -13.8,4 -11.2,-3.2 -2.8,0.2 -5.3,-4.3 -12.8,-7.3 					"/>
					<polygon fill="#2B2B49" points="-15.3,-0.9 -16.7,-5.8 -13.8,-10.9 -7.5,-8.3 -5.3,-4.3 -12.8,-7.3 					"/>
					<polygon fill="#EDF4DB" points="-17,-7.3 -16.7,-5.8 -13.8,-10.9 -7.5,-8.3 -8.2,-9.6 -13.9,-12.1 					"/>
				</g>
				<g>
					<polygon fill="#4BB763" points="31,21.9 27.4,18.1 27.9,7 39.3,6 43.2,8.4 32.1,10.7 					"/>
					<polygon fill="#2B2B49" points="39.3,6 33.5,2.1 23.4,3.5 23.9,14.4 27.4,18.1 27.9,7 					"/>
					<polygon fill="#D6E7A9" points="23.9,14.4 18.6,8.8 18,-0.2 29.3,-0.9 33.5,2.1 23.4,3.5 					"/>
					<polygon fill="#EDF4DB" points="35.2,25.9 31,21.9 32.1,10.7 43.2,8.4 49.2,11.9 38,15.1 					"/>
					<polygon fill="#397ABE" points="16.7,6.9 18.6,8.8 18,-0.2 29.3,-0.9 26.7,-2.6 16,-2.2 					"/>
					<polygon fill="#0F446C" points="16.7,6.9 14,3.8 12.6,-5.5 24.1,-4.4 26.7,-2.6 16,-2.2 					"/>
					<polygon fill="#2B2B49" points="24.1,-4.4 19.2,-7.9 10.1,-7.6 10.6,-0.1 14,3.8 12.6,-5.5 					"/>
					<polygon fill="#EBB025" points="7.2,-3.9 10.6,-0.1 10.1,-7.6 19.2,-7.9 15,-11.1 7,-10.9 					"/>
					<polygon fill="#2B2B49" points="7.2,-3.9 4,-7.9 4.6,-13.8 11.4,-13.8 15,-11.1 7,-10.9 					"/>
					<polygon fill="#EDF4DB" points="3.1,-9.2 4,-7.9 4.6,-13.8 11.4,-13.8 10.2,-14.8 4,-14.7 					"/>
				</g>
			</g>
		</g>
	</g>
</g>
</svg>
