<?xml version="1.0" encoding="utf-8"?>
<!-- Generator: Adobe Illustrator 23.0.1, SVG Export Plug-In . SVG Version: 6.00 Build 0)  -->
<svg version="1.1" id="Layer_1" xmlns="http://www.w3.org/2000/svg" xmlns:xlink="http://www.w3.org/1999/xlink" x="0px" y="0px"
	 viewBox="0 0 72 72" enable-background="new 0 0 72 72" xml:space="preserve">
<g>
	<defs>
		<path id="SVGID_1_" d="M0,0v72h72V0H0z M45.7,49.1H26.3v-4.6h19.4V49.1z M45.7,40h-3.9v-8.8l-0.1,0.3L37.3,40h-2.5l-4.4-8.6
			l-0.1-0.3V40h-3.9V22.9h4L36,33.5l0.1,0.1l0.1-0.1l5.7-10.7h4V40z"/>
	</defs>
	<clipPath id="SVGID_2_">
		<use xlink:href="#SVGID_1_"  overflow="visible"/>
	</clipPath>
	<g clip-path="url(#SVGID_2_)">
		<defs>
			<rect id="SVGID_3_" x="0" y="0" width="72" height="72"/>
		</defs>
		<clipPath id="SVGID_4_">
			<use xlink:href="#SVGID_3_"  overflow="visible"/>
		</clipPath>
		<g clip-path="url(#SVGID_4_)">
			<g>
				<polygon fill="#4AC2C4" points="59.6,116 48.2,98.2 58.3,54.2 104.5,58.8 118.6,71.4 72.4,72.2 				"/>
				<polygon fill="#048859" points="104.5,58.8 84.5,39 43.3,36.9 37.1,80.7 48.2,98.2 58.3,54.2 				"/>
				<polygon fill="#4BB763" points="37.1,80.7 24.4,60.1 30.5,23.1 73.6,28.3 84.5,39 43.3,36.9 				"/>
				<polygon fill="#D6E7A9" points="73.6,135.1 59.6,116 72.4,72.2 118.6,71.4 139.6,89.7 92.7,94.2 				"/>
				<polygon fill="#0F446C" points="13.7,43.9 24.4,60.1 30.5,23.1 73.6,28.3 60.8,14.9 18,8.9 				"/>
				<polygon fill="#397ABE" points="13.7,43.9 5.3,31.2 6.9,-6.9 51.9,5.8 60.8,14.9 18,8.9 				"/>
				<polygon fill="#4AC2C4" points="51.9,5.8 34.7,-11.7 -1.8,-17.4 -5.3,13.1 5.3,31.2 6.9,-6.9 				"/>
				<polygon fill="#117E80" points="-15.9,-4.7 -5.3,13.1 -1.8,-17.4 34.7,-11.7 20.5,-27.3 -11.7,-32.5 				"/>
				<polygon fill="#2B2B49" points="-15.9,-4.7 -25.7,-23 -18.9,-45.8 8.1,-41.1 20.5,-27.3 -11.7,-32.5 				"/>
				<polygon fill="#EDF4DB" points="-28.2,-28.7 -25.7,-23 -18.9,-45.8 8.1,-41.1 4.3,-45.6 -20.6,-50.2 				"/>
			</g>
			<g>
				<polygon fill="#EBB025" points="-15.6,130.4 -22.7,110.5 -3.1,70.1 40.7,84.9 51.5,100.3 6.6,90.7 				"/>
				<polygon fill="#4AC2C4" points="40.7,84.9 25.7,61.2 -13.7,50 -29.5,91 -22.7,110.5 -3.1,70.1 				"/>
				<polygon fill="#2B2B49" points="-29.5,91 -40,61.8 -28.9,22.7 10.3,36.1 25.7,61.2 -13.7,50 				"/>
				<polygon fill="#EDF4DB" points="-6.3,152 -15.6,130.4 6.6,90.7 51.5,100.3 67.8,122.7 21.3,116.6 				"/>
				<polygon fill="#048859" points="-44,51.8 -40,61.8 -28.9,22.7 10.3,36.1 8.1,32.5 -32,17.2 				"/>
				<polygon fill="#D6E7A9" points="-44,51.8 -49.4,36 -39.3,-0.6 1.5,21.7 8.1,32.5 -32,17.2 				"/>
				<polygon fill="#4BB763" points="1.5,21.7 -11.2,1 -45.4,-12.7 -55.6,16 -49.4,36 -39.3,-0.6 				"/>
				<polygon fill="#048859" points="-61.9,-3.5 -55.6,16 -45.4,-12.7 -11.2,1 -21.5,-17.4 -51.6,-29.6 				"/>
				<polygon fill="#2B2B49" points="-61.9,-3.5 -67.3,-23.5 -55.6,-44.1 -30.4,-33.5 -21.5,-17.4 -51.6,-29.6 				"/>
				<polygon fill="#EDF4DB" points="-68.4,-29.6 -67.3,-23.5 -55.6,-44.1 -30.4,-33.5 -33.2,-38.7 -56.3,-48.7 				"/>
			</g>
			<g>
				<polygon fill="#4BB763" points="125,88.5 110.6,73.1 112.4,28.2 158.5,24.3 174.5,34.1 129.5,43.3 				"/>
				<polygon fill="#2B2B49" points="158.5,24.3 135.2,8.6 94.6,14 96.5,58 110.6,73.1 112.4,28.2 				"/>
				<polygon fill="#D6E7A9" points="96.5,58 75.2,35.4 72.8,-0.6 118.2,-3.4 135.2,8.6 94.6,14 				"/>
				<polygon fill="#EDF4DB" points="142.2,104.6 125,88.5 129.5,43.3 174.5,34.1 198.4,48.1 153.4,61.1 				"/>
				<polygon fill="#397ABE" points="67.6,27.8 75.2,35.4 72.8,-0.6 118.2,-3.4 107.6,-10.7 64.8,-8.7 				"/>
				<polygon fill="#0F446C" points="67.6,27.8 56.3,15.4 51,-22.1 97.3,-18 107.6,-10.7 64.8,-8.7 				"/>
				<polygon fill="#2B2B49" points="97.3,-18 77.3,-31.9 40.6,-30.8 42.7,-0.3 56.3,15.4 51,-22.1 				"/>
				<polygon fill="#EBB025" points="29.1,-15.8 42.7,-0.3 40.6,-30.8 77.3,-31.9 60.6,-44.6 28.1,-43.8 				"/>
				<polygon fill="#2B2B49" points="29.1,-15.8 16.2,-31.9 18.6,-55.5 46,-55.8 60.6,-44.6 28.1,-43.8 				"/>
				<polygon fill="#EDF4DB" points="12.7,-37.1 16.2,-31.9 18.6,-55.5 46,-55.8 41.3,-59.5 16.2,-59.4 				"/>
			</g>
		</g>
	</g>
</g>
</svg>
