<?xml version="1.0" encoding="utf-8"?>
<!-- Generator: Adobe Illustrator 23.0.1, SVG Export Plug-In . SVG Version: 6.00 Build 0)  -->
<svg version="1.1" id="Layer_1" xmlns="http://www.w3.org/2000/svg" xmlns:xlink="http://www.w3.org/1999/xlink" x="0px" y="0px"
	 viewBox="0 0 4000 4000" enable-background="new 0 0 4000 4000" xml:space="preserve">
<g>
	<defs>
		<rect id="SVGID_1_" x="0" width="4000" height="4000"/>
	</defs>
	<clipPath id="SVGID_2_">
		<use xlink:href="#SVGID_1_"  overflow="visible"/>
	</clipPath>
	<g clip-path="url(#SVGID_2_)">
		<g>
			<polygon fill="#47C1C3" points="3312.2,6446.9 2677.2,5454.3 3238.7,3010.8 5806.4,3266.3 6588.3,3967.1 4021.9,4013.1 			"/>
			<polygon fill="#078758" points="5806.4,3266.3 4693.7,2164.7 2406.5,2049.1 2061.5,4481.6 2677.2,5454.3 3238.7,3010.8 			"/>
			<polygon fill="#4AB763" points="2061.5,4481.6 1353.1,3339.6 1694.1,1282.3 4089,1569.7 4693.7,2164.7 2406.5,2049.1 			"/>
			<polygon fill="#D6EDA9" points="4089.2,7506.5 3312.2,6446.9 4021.9,4013.1 6588.3,3967.1 7756.7,4982.9 5149.7,5232.9 			"/>
			<polygon fill="#0F436B" points="760.3,2437 1353.1,3339.6 1694.1,1282.3 4089,1569.7 3375.5,825.8 1002,493.9 			"/>
			<polygon fill="#247BD1" points="760.3,2437 292.1,1733 383.8,-383.3 2884.5,320.8 3375.5,825.8 1002,493.9 			"/>
			<polygon fill="#47C1C3" points="2884.5,320.8 1928.7,-649 -100.6,-965.2 -297.2,727.4 292.1,1733 383.8,-383.3 			"/>
			<polygon fill="#0D7D7F" points="-882.2,-259.6 -297.2,727.4 -100.6,-965.2 1928.7,-649 1139.6,-1518.5 -652.1,-1806.7 			"/>
			<polygon fill="#2A2A49" points="-882.2,-259.6 -1428.1,-1277.6 -1051.3,-2547 452.6,-2282.6 1139.6,-1518.5 -652.1,-1806.7 			
				"/>
			<polygon fill="#EDF9DB" points="-1564.9,-1596.5 -1428.1,-1277.6 -1051.3,-2547 452.6,-2282.6 236.4,-2534.5 -1142.9,-2786.3 			
				"/>
		</g>
		<g>
			<polygon fill="#ECB027" points="-867.4,7242.8 -1261.4,6138.6 -171.4,3894.8 2261.2,4715.8 2862.9,5569.9 364.2,5041.4 			"/>
			<polygon fill="#47C1C3" points="2261.2,4715.8 1428.3,3399.3 -763.6,2776.4 -1641.3,5057.9 -1261.4,6138.6 -171.4,3894.8 			"/>
			<polygon fill="#2A2A49" points="-1641.3,5057.9 -2224.1,3432.3 -1605.9,1262.6 572.1,2005.6 1428.3,3399.3 -763.6,2776.4 			"/>
			<polygon fill="#EDF9DB" points="-350.7,8443.7 -867.4,7242.8 364.2,5041.4 2862.9,5569.9 3768.9,6815.7 1185.3,6476 			"/>
			<polygon fill="#078758" points="-2445.8,2875.5 -2224.1,3432.3 -1605.9,1262.6 572.1,2005.6 449.2,1806.7 -1778.1,954.9 			"/>
			<polygon fill="#D6EDA9" points="-2445.8,2875.5 -2743.1,1997.8 -2181.6,-33.7 85.8,1207.4 449.2,1806.7 -1778.1,954.9 			"/>
			<polygon fill="#4AB763" points="85.8,1207.4 -624.4,53.6 -2521.3,-706.1 -3090,891.2 -2743.1,1997.8 -2181.6,-33.7 			"/>
			<polygon fill="#078758" points="-3436.8,-196.5 -3090,891.2 -2521.3,-706.1 -624.4,53.6 -1195.3,-965.7 -2868.2,-1645.2 			"/>
			<polygon fill="#2A2A49" points="-3436.8,-196.5 -3738.8,-1305.4 -3090,-2452.1 -1690.8,-1859.9 -1195.3,-965.7 -2868.2,-1645.2 
							"/>
			<polygon fill="#EDF9DB" points="-3800.2,-1645.2 -3738.8,-1305.4 -3090,-2452.1 -1690.8,-1859.9 -1844.2,-2152.5 
				-3125.4,-2704.6 			"/>
		</g>
		<g>
			<polygon fill="#4AB763" points="6944,4916.5 6141.8,4061.6 6245.1,1569.1 8803.2,1350.4 9695.9,1893.2 7194.1,2406.5 			"/>
			<polygon fill="#2A2A49" points="8803.2,1350.4 7513.8,476 5255.5,780.3 5362,3222.6 6141.8,4061.6 6245.1,1569.1 			"/>
			<polygon fill="#D6EDA9" points="5362,3222.6 4178.5,1964.9 4046.5,-33.8 6564.3,-191.3 7513.8,476 5255.5,780.3 			"/>
			<polygon fill="#EDF9DB" points="7897.4,5811.2 6944,4916.5 7194.1,2406.5 9695.9,1893.2 11024,2673.5 8519.7,3393.8 			"/>
			<polygon fill="#247BD1" points="3752.8,1543 4178.5,1964.9 4046.5,-33.8 6564.3,-191.3 5980.1,-593 3598,-484.4 			"/>
			<polygon fill="#0F436B" points="3752.8,1543 3129.7,857 2833.3,-1229.6 5407.6,-997.4 5980.1,-593 3598,-484.4 			"/>
			<polygon fill="#2A2A49" points="5407.6,-997.4 4295.8,-1771.5 2253.2,-1710.5 2369.8,-18.9 3129.7,857 2833.3,-1229.6 			"/>
			<polygon fill="#ECB027" points="1617.5,-877.6 2369.8,-18.9 2253.2,-1710.5 4295.8,-1771.5 3365.3,-2477.9 1560.2,-2432.9 			"/>
			<polygon fill="#2A2A49" points="1617.5,-877.6 897.7,-1773.7 1034.7,-3084.1 2553.9,-3099.9 3365.3,-2477.9 1560.2,-2432.9 			
				"/>
			<polygon fill="#EDF9DB" points="705.8,-2060.7 897.7,-1773.7 1034.7,-3084.1 2553.9,-3099.9 2296.4,-3306.9 901.4,-3301.4 			"/>
		</g>
	</g>
</g>
</svg>
