<?xml version="1.0" encoding="utf-8"?>
<!-- Generator: Adobe Illustrator 21.1.0, SVG Export Plug-In . SVG Version: 6.00 Build 0)  -->
<svg version="1.1" id="Layer_1" xmlns="http://www.w3.org/2000/svg" xmlns:xlink="http://www.w3.org/1999/xlink" x="0px" y="0px"
	 width="72px" height="17.8px" viewBox="0 0 72 17.8" enable-background="new 0 0 72 17.8" xml:space="preserve">
<g>
	<g>
		<g>
			<path fill="#D5325C" d="M59,6.8c-0.6,0-1.2,0.2-1.6,0.7l-0.1,0.1V7h-1.6v5.3h1.6V9.8c0-1,0.4-1.5,1.1-1.5c0.6,0,0.9,0.4,0.9,1.1
				v2.9h1.6V9C61.1,7.7,60.2,6.8,59,6.8z M71.6,10.7c-0.2,0.1-0.5,0.2-0.8,0.2c-0.5,0-0.7-0.3-0.7-0.8V8.3h1.6V7h-1.6V5.2l-1.6,0.3
				V7h-1v1.3h1v2.1c0,1.4,0.7,2.1,2.1,2.1c0.6,0,1.1-0.2,1.4-0.4L71.6,10.7z M42.9,6.8c-0.7,0-1.2,0.2-1.6,0.6l0,0V7h-1.6v7.1h1.6
				v-2.3l0,0c0.4,0.4,1,0.6,1.6,0.6c1.5,0,2.6-1.2,2.6-2.8C45.5,8,44.4,6.8,42.9,6.8z M42.6,11c-0.7,0-1.3-0.5-1.3-1.4
				c0-0.8,0.6-1.4,1.3-1.4c0.8,0,1.3,0.6,1.3,1.4C43.9,10.4,43.3,11,42.6,11z M28,9.6L28,9.6L28,9.6l-2.4-4.4h-1.7v7.1h1.6V8.6
				l0.1,0.1l1.9,3.6h1.1l1.9-3.5l0.1-0.1v3.6H32V5.2h-1.7L28,9.6z M36.9,9.3c0,0.8-0.4,1.3-1.1,1.3c-0.7,0-1.1-0.5-1.1-1.3V7h-1.6
				v2.4c0,1.5,1,2.6,2.3,2.6c0.5,0,1-0.2,1.4-0.5l0,0v0.2c0,0.8-0.5,1.3-1.2,1.3c-0.5,0-0.9-0.3-1.2-0.6L33.2,13
				c0.5,0.8,1.3,1.2,2.5,1.2c1.8,0,2.8-0.9,2.8-2.5V7h-1.6L36.9,9.3z M53,7.4L53,7.4c-0.5-0.4-1-0.6-1.7-0.6c-1.5,0-2.6,1.2-2.6,2.8
				c0,1.6,1.1,2.8,2.6,2.8c0.7,0,1.2-0.2,1.6-0.6l0,0v0.5h1.6V7H53V7.4z M51.6,11c-0.8,0-1.3-0.6-1.3-1.4c0-0.8,0.5-1.4,1.3-1.4
				c0.8,0,1.3,0.6,1.3,1.4C53,10.5,52.3,11,51.6,11z M46.3,12.2h1.6V5.2h-1.6V12.2z M64.6,6.8c-1.6,0-2.8,1.2-2.8,2.8
				c0,1.6,1.2,2.8,2.8,2.8c1.2,0,2.2-0.6,2.6-1.6l-1.5-0.3c-0.3,0.5-0.8,0.6-1.2,0.6c-0.6,0-1-0.4-1.2-1.1l0,0h3.9V9.6
				C67.3,8,66.2,6.8,64.6,6.8z M63.4,9L63.4,9c0.2-0.6,0.7-0.9,1.2-0.9c0.5,0,1,0.3,1.1,0.9l0,0H63.4z"/>
		</g>
	</g>
	<g>
		<defs>
			<path id="SVGID_1_" d="M0,0v17.8h17.8V0H0z M11.3,12.2H6.5V11h4.8V12.2z M11.3,9.9h-1V7.7l0,0.1L9.2,9.9H8.6L7.5,7.8l0-0.1v2.2
				h-1V5.7h1l1.4,2.6l0,0l0,0l1.4-2.6h1V9.9z"/>
		</defs>
		<clipPath id="SVGID_2_">
			<use xlink:href="#SVGID_1_"  overflow="visible"/>
		</clipPath>
		<g clip-path="url(#SVGID_2_)">
			<defs>
				<rect id="SVGID_3_" x="-13.5" y="-20.6" width="44.9" height="44.9"/>
			</defs>
			<clipPath id="SVGID_4_">
				<use xlink:href="#SVGID_3_"  overflow="visible"/>
			</clipPath>
			<g clip-path="url(#SVGID_4_)">
				<polygon fill="#4C4275" points="-58.3,49.3 74.6,49.3 74.6,16 				"/>
				<polygon fill="#C1E4E2" points="-63.5,-3.4 57.8,-37.9 -63.5,-37.9 				"/>
				<path fill="#E4AFC5" d="M-52,38.9l-1.8-8.3c4.9-1,7.7-1.1,10.1-1.1c2.3,0,4.3,0,8.4-0.9c4.1-0.9,5.9-1.7,8-2.6
					c2.2-1,4.7-2.1,9.6-3.1s7.7-1.1,10.1-1.1c2.3,0,4.3,0,8.4-0.9c4.1-0.9,5.9-1.7,8-2.6c2.2-1,4.7-2.1,9.6-3.1s7.7-1.1,10.1-1.1
					c2.3,0,4.3,0,8.4-0.9c4.1-0.9,5.9-1.7,8-2.6c2.2-1,4.7-2.1,9.6-3.1c4.9-1,7.7-1.1,10.1-1.1c2.3,0,4.3,0,8.4-0.9l1.8,8.3
					c-4.9,1-7.7,1.1-10.1,1.1c-2.3,0-4.3,0-8.4,0.9c-4.1,0.9-5.9,1.7-8,2.6c-2.2,1-4.7,2.1-9.6,3.1c-4.9,1-7.7,1.1-10.1,1.1
					c-2.3,0-4.3,0-8.4,0.9c-4.1,0.9-5.9,1.7-8,2.6c-2.2,1-4.7,2.1-9.6,3.1c-4.9,1-7.7,1.1-10.1,1.1c-2.3,0-4.3,0-8.4,0.9
					c-4.1,0.9-5.9,1.7-8,2.6c-2.2,1-4.7,2.1-9.6,3.1c-4.9,1-7.7,1.1-10.1,1.1C-46,38-47.9,38-52,38.9z"/>
				<path fill="#4C4276" d="M-49.7,50l-1.8-8.3c4.9-1,7.7-1.1,10.1-1.1c2.3,0,4.3,0,8.4-0.9c4.1-0.9,5.9-1.7,8-2.6
					c2.2-1,4.7-2.1,9.6-3.1c4.9-1,7.7-1.1,10.1-1.1c2.3,0,4.3,0,8.4-0.9c4.1-0.9,5.9-1.7,8-2.6c2.2-1,4.7-2.1,9.6-3.1
					c4.9-1,7.7-1.1,10.1-1.1c2.3,0,4.3,0,8.4-0.9c4.1-0.9,5.9-1.7,8-2.6c2.2-1,4.7-2.1,9.6-3.1c4.9-1,7.7-1.1,10.1-1.1
					c2.3,0,4.3,0,8.4-0.9l1.8,8.3c-4.9,1-7.7,1.1-10.1,1.1c-2.3,0-4.3,0-8.4,0.9c-4.1,0.9-5.9,1.7-8,2.6c-2.2,1-4.7,2.1-9.6,3.1
					c-4.9,1-7.7,1.1-10.1,1.1c-2.3,0-4.3,0-8.4,0.9s-5.9,1.7-8,2.6c-2.2,1-4.7,2.1-9.6,3.1c-4.9,1-7.7,1.1-10.1,1.1
					c-2.3,0-4.3,0-8.4,0.9c-4.1,0.9-5.9,1.7-8,2.6c-2.2,1-4.7,2.1-9.6,3.1s-7.7,1.1-10.1,1.1C-43.6,49.1-45.6,49.1-49.7,50z"/>
				<path fill="#C1E4E2" d="M-54.4,27.7l-1.8-8.3c4.9-1,7.7-1.1,10.1-1.1c2.3,0,4.3,0,8.4-0.9s5.9-1.7,8-2.6c2.2-1,4.7-2.1,9.6-3.1
					c4.9-1,7.7-1.1,10.1-1.1c2.3,0,4.3,0,8.4-0.9c4.1-0.9,5.9-1.7,8-2.6c2.2-1,4.7-2.1,9.6-3.1s7.7-1.1,10.1-1.1
					c2.3,0,4.3,0,8.4-0.9c4.1-0.9,5.9-1.7,8-2.6c2.2-1,4.7-2.1,9.6-3.1c4.9-1,7.7-1.1,10.1-1.1c2.3,0,4.3,0,8.4-0.9L72.3,3
					C67.4,4,64.6,4,62.2,4.1c-2.3,0-4.3,0-8.4,0.9c-4.1,0.9-5.9,1.7-8,2.6c-2.2,1-4.7,2.1-9.6,3.1c-4.9,1-7.7,1.1-10.1,1.1
					c-2.3,0-4.3,0-8.4,0.9c-4.1,0.9-5.9,1.7-8,2.6c-2.2,1-4.7,2.1-9.6,3.1c-4.9,1-7.7,1.1-10.1,1.1c-2.3,0-4.3,0-8.4,0.9
					c-4.1,0.9-5.9,1.7-8,2.6c-2.2,1-4.7,2.1-9.6,3.1c-4.9,1-7.7,1.1-10.1,1.1C-48.3,26.9-50.3,26.9-54.4,27.7z"/>
				<path fill="#E4AFC5" d="M-56.7,16.6l-1.8-8.3c4.9-1,7.7-1.1,10.1-1.1c2.3,0,4.3,0,8.4-0.9c4.1-0.9,5.9-1.7,8-2.6
					c2.2-1,4.7-2.1,9.6-3.1c4.9-1,7.7-1.1,10.1-1.1c2.3,0,4.3,0,8.4-0.9c4.1-0.9,5.9-1.7,8-2.6c2.2-1,4.7-2.1,9.6-3.1S21.3-8,23.8-8
					C26-8,28-8,32.1-8.9c4.1-0.9,5.9-1.7,8-2.6c2.2-1,4.7-2,9.6-3.1c4.9-1,7.7-1.1,10.1-1.1c2.3,0,4.3,0,8.4-0.9l1.8,8.3
					c-4.9,1-7.7,1.1-10.1,1.1c-2.3,0-4.3,0-8.4,0.9c-4.1,0.9-5.9,1.7-8,2.6c-2.2,1-4.7,2.1-9.6,3.1c-4.9,1-7.7,1.1-10.1,1.1
					c-2.3,0-4.3,0-8.4,0.9c-4.1,0.9-5.9,1.7-8,2.6C5.2,4.9,2.7,6-2.2,7.1c-4.9,1-7.7,1.1-10.1,1.1c-2.3,0-4.3,0-8.4,0.9
					c-4.1,0.9-5.9,1.7-8,2.6c-2.2,1-4.7,2.1-9.6,3.1c-4.9,1-7.7,1.1-10.1,1.1C-50.6,15.7-52.6,15.7-56.7,16.6z"/>
				<path fill="#4AC2C4" d="M-58.7,7.3L-60.4-1c4.9-1,7.7-1.1,10.1-1.1c2.3,0,4.3,0,8.4-0.9c4.1-0.9,5.9-1.7,8-2.6
					c2.2-1,4.7-2.1,9.6-3.1c4.9-1,7.7-1.1,10.1-1.1c2.3,0,4.3,0,8.4-0.9c4.1-0.9,5.9-1.7,8-2.6c2.2-1,4.7-2.1,9.6-3.1
					c4.9-1,7.7-1.1,10.1-1.1c2.3,0,4.3,0,8.4-0.9c4.1-0.9,5.9-1.7,8-2.6c2.2-1,4.7-2.1,9.6-3.1c4.9-1,7.7-1.1,10.1-1.1
					c2.3,0,4.3,0,8.4-0.9l1.8,8.3c-4.9,1-7.7,1.1-10.1,1.1c-2.3,0-4.3,0-8.4,0.9c-4.1,0.9-5.9,1.7-8,2.6c-2.2,1-4.7,2-9.6,3.1
					c-4.9,1-7.7,1.1-10.1,1.1c-2.3,0-4.3,0-8.4,0.9C9.4-7,7.6-6.2,5.5-5.3c-2.2,1-4.7,2.1-9.6,3.1c-4.9,1-7.7,1.1-10.1,1.1
					c-2.3,0-4.3,0-8.4,0.9c-4.1,0.9-5.9,1.7-8,2.6c-2.2,1-4.7,2.1-9.6,3.1s-7.7,1.1-10.1,1.1C-52.6,6.5-54.6,6.5-58.7,7.3z"/>
				<path fill="#C1E4E2" d="M-61.4-5.7l-1.8-8.3c4.9-1,7.7-1.1,10.1-1.1c2.3,0,4.3,0,8.4-0.9c4.1-0.9,5.9-1.7,8-2.6
					c2.2-1,4.7-2.1,9.6-3.1c4.9-1,7.7-1.1,10.1-1.1c2.3,0,4.3,0,8.4-0.9c4.1-0.9,5.9-1.7,8-2.6c2.2-1,4.7-2.1,9.6-3.1
					c4.9-1,7.7-1.1,10.1-1.1c2.3,0,4.3,0,8.4-0.9c4.1-0.9,5.9-1.7,8-2.6c2.2-1,4.7-2.1,9.6-3.1c4.9-1,7.7-1.1,10.1-1.1
					c2.3,0,4.3,0,8.4-0.9l1.8,8.3c-4.9,1-7.7,1.1-10.1,1.1c-2.3,0-4.3,0-8.4,0.9s-5.9,1.7-8,2.6c-2.2,1-4.7,2.1-9.6,3.1
					c-4.9,1-7.7,1.1-10.1,1.1c-2.3,0-4.3,0-8.4,0.9s-5.9,1.7-8,2.6c-2.2,1-4.7,2.1-9.6,3.1s-7.7,1.1-10.1,1.1c-2.3,0-4.3,0-8.4,0.9
					c-4.1,0.9-5.9,1.7-8,2.6c-2.2,1-4.7,2.1-9.6,3.1c-4.9,1-7.7,1.1-10.1,1.1C-55.3-6.5-57.3-6.5-61.4-5.7z"/>
				<path fill="#E4AFC5" d="M-51,43.5l-1.8-8.3c4.9-1,7.7-1.1,10.1-1.1c2.3,0,4.3,0,8.4-0.9c4.1-0.9,5.9-1.7,8-2.6
					c2.2-1,4.7-2.1,9.6-3.1s7.7-1.1,10.1-1.1c2.3,0,4.3,0,8.4-0.9c4.1-0.9,5.9-1.7,8-2.6c2.2-1,4.7-2.1,9.6-3.1
					c4.9-1,7.7-1.1,10.1-1.1c2.3,0,4.3,0,8.4-0.9c4.1-0.9,5.9-1.7,8-2.6c2.2-1,4.7-2.1,9.6-3.1c4.9-1,7.7-1.1,10.1-1.1
					c2.3,0,4.3,0,8.4-0.9l1.8,8.3c-4.9,1-7.7,1.1-10.1,1.1c-2.3,0-4.3,0-8.4,0.9s-5.9,1.7-8,2.6c-2.2,1-4.7,2.1-9.6,3.1
					c-4.9,1-7.7,1.1-10.1,1.1c-2.3,0-4.3,0-8.4,0.9s-5.9,1.7-8,2.6c-2.2,1-4.7,2.1-9.6,3.1C-1.5,35-4.2,35-6.6,35
					c-2.3,0-4.3,0-8.4,0.9c-4.1,0.9-5.9,1.7-8,2.6c-2.2,1-4.7,2.1-9.6,3.1c-4.9,1-7.7,1.1-10.1,1.1C-45,42.6-47,42.6-51,43.5z"/>
				<path fill="#D5335D" d="M-53.1,33.8l-1.6-7.4c4.9-1,7.5-1,10-1.1c2.2,0,4.3,0,8.5-0.9c4.1-0.9,6.1-1.7,8.1-2.6
					c2.3-1,4.7-2,9.6-3.1c4.9-1,7.5-1,10-1.1c2.2,0,4.3,0,8.5-0.9c4.1-0.9,6.1-1.7,8.1-2.6c2.3-1,4.7-2,9.6-3.1c4.9-1,7.5-1,10-1.1
					c2.2,0,4.3,0,8.5-0.9C40.1,8.3,42,7.5,44,6.6c2.3-1,4.7-2,9.6-3.1c4.9-1,7.5-1,10-1.1c2.2,0,4.3,0,8.5-0.9L73.6,9
					c-4.9,1-7.5,1-10,1.1c-2.2,0-4.3,0-8.5,0.9c-4.1,0.9-6.1,1.7-8.1,2.6c-2.3,1-4.7,2-9.6,3.1c-4.9,1-7.5,1-10,1.1
					c-2.2,0-4.3,0-8.5,0.9c-4.1,0.9-6.1,1.7-8.1,2.6c-2.3,1-4.7,2-9.6,3.1c-4.9,1-7.5,1-10,1.1c-2.2,0-4.3,0-8.5,0.9
					c-4.1,0.9-6.1,1.7-8.1,2.6c-2.3,1-4.7,2-9.6,3.1c-4.9,1-7.5,1-10,1.1C-46.9,32.9-49,32.9-53.1,33.8z"/>
				<path fill="#B298BC" d="M-58.4,8.7l-1.2-5.6c4.8-1,7.3-1,9.8-1c2.3,0,4.4,0,8.6-0.9c4.2-0.9,6.2-1.7,8.3-2.7c2.3-1,4.6-2,9.4-3
					c4.8-1,7.3-1,9.8-1c2.3,0,4.4,0,8.6-0.9S1.2-8.1,3.2-9c2.3-1,4.6-2,9.4-3c4.8-1,7.3-1,9.8-1c2.3,0,4.4,0,8.6-0.9
					c4.2-0.9,6.2-1.7,8.3-2.7c2.3-1,4.6-2,9.4-3c4.8-1,7.3-1,9.8-1c2.3,0,4.4,0,8.6-0.9l1.2,5.6c-4.8,1-7.3,1-9.8,1
					c-2.3,0-4.4,0-8.6,0.9s-6.2,1.7-8.3,2.7c-2.3,1-4.6,2-9.4,3c-4.8,1-7.3,1-9.8,1c-2.3,0-4.4,0-8.6,0.9C9.6-5.6,7.6-4.7,5.5-3.8
					c-2.3,1-4.6,2-9.4,3c-4.8,1-7.3,1-9.8,1c-2.3,0-4.4,0-8.6,0.9c-4.2,0.9-6.2,1.7-8.3,2.7c-2.3,1-4.6,2-9.4,3c-4.8,1-7.3,1-9.8,1
					C-52,7.8-54.1,7.8-58.4,8.7z"/>
				<path fill="#4C4276" d="M-56,20.1l-1.3-6c4.8-1,7.4-1,9.8-1c2.3,0,4.4,0,8.6-0.9c4.2-0.9,6.2-1.7,8.2-2.6c2.3-1,4.6-2,9.4-3
					c4.8-1,7.4-1,9.8-1c2.3,0,4.4,0,8.6-0.9c4.2-0.9,6.2-1.7,8.2-2.6c2.3-1,4.6-2,9.4-3s7.4-1,9.8-1c2.3,0,4.4,0,8.6-0.9
					c4.2-0.9,6.2-1.7,8.2-2.6c2.3-1,4.6-2,9.4-3s7.4-1,9.8-1c2.3,0,4.4,0,8.6-0.9l1.3,6c-4.8,1-7.4,1-9.8,1c-2.3,0-4.4,0-8.6,0.9
					C48-1.8,46.1-1,44-0.1c-2.3,1-4.6,2-9.4,3c-4.8,1-7.4,1-9.8,1c-2.3,0-4.4,0-8.6,0.9S10,6.6,7.9,7.5c-2.3,1-4.6,2-9.4,3
					c-4.8,1-7.4,1-9.8,1c-2.3,0-4.4,0-8.6,0.9c-4.2,0.9-6.2,1.7-8.2,2.6c-2.3,1-4.6,2-9.4,3c-4.8,1-7.4,1-9.8,1
					C-49.6,19.2-51.8,19.2-56,20.1z"/>
				<path fill="#7C5FA6" d="M-60.3-0.6l-1.2-5.6c4.8-1,7.3-1,9.8-1c2.3,0,4.4,0,8.6-0.9c4.2-0.9,6.2-1.7,8.3-2.7c2.3-1,4.6-2,9.4-3
					c4.8-1,7.3-1,9.8-1c2.3,0,4.4,0,8.6-0.9c4.2-0.9,6.2-1.7,8.3-2.7c2.3-1,4.6-2,9.4-3s7.3-1,9.8-1c2.3,0,4.4,0,8.6-0.9
					c4.2-0.9,6.2-1.7,8.3-2.7c2.3-1,4.6-2,9.4-3c4.8-1,7.3-1,9.8-1c2.3,0,4.4,0,8.6-0.9l1.2,5.6c-4.8,1-7.3,1-9.8,1
					c-2.3,0-4.4,0-8.6,0.9c-4.2,0.9-6.2,1.7-8.3,2.7c-2.3,1-4.6,2-9.4,3c-4.8,1-7.3,1-9.8,1c-2.3,0-4.4,0-8.6,0.9
					c-4.2,0.9-6.2,1.7-8.3,2.7c-2.3,1-4.6,2-9.4,3c-4.8,1-7.3,1-9.8,1c-2.3,0-4.4,0-8.6,0.9c-4.2,0.9-6.2,1.7-8.3,2.7
					c-2.3,1-4.6,2-9.4,3s-7.3,1-9.8,1C-54-1.5-56.1-1.4-60.3-0.6z"/>
			</g>
		</g>
	</g>
</g>
</svg>
