<?xml version="1.0" encoding="utf-8"?>
<!-- Generator: Adobe Illustrator 21.1.0, SVG Export Plug-In . SVG Version: 6.00 Build 0)  -->
<svg version="1.1" id="Layer_1" xmlns="http://www.w3.org/2000/svg" xmlns:xlink="http://www.w3.org/1999/xlink" x="0px" y="0px"
	 width="72px" height="72px" viewBox="0 0 72 72" enable-background="new 0 0 72 72" xml:space="preserve">
<g>
	<defs>
		<path id="SVGID_1_" d="M0,0v72h72V0H0z M45.7,49.1H26.3v-4.6h19.4V49.1z M45.7,40h-3.9v-8.8l-0.1,0.3L37.3,40h-2.5l-4.4-8.6
			l-0.1-0.3V40h-3.9V22.9h4L36,33.5l0.1,0.1l0.1-0.1l5.7-10.7h4V40z"/>
	</defs>
	<clipPath id="SVGID_2_">
		<use xlink:href="#SVGID_1_"  overflow="visible"/>
	</clipPath>
	<g clip-path="url(#SVGID_2_)">
		<defs>
			<rect id="SVGID_3_" x="-54.6" y="-83.2" width="181.3" height="181.3"/>
		</defs>
		<clipPath id="SVGID_4_">
			<use xlink:href="#SVGID_3_"  overflow="visible"/>
		</clipPath>
		<g clip-path="url(#SVGID_4_)">
			<polygon fill="#4C4275" points="-235.4,199 301.1,199 301.1,64.7 			"/>
			<polygon fill="#C1E4E2" points="-256.4,-13.8 233.3,-153.1 -256.4,-153.1 			"/>
			<path fill="#E4AFC5" d="M-209.9,156.8l-7.1-33.7c19.9-4.2,30.9-4.2,40.6-4.3c9.2,0,17.2-0.1,33.7-3.6
				c16.5-3.5,23.8-6.7,32.3-10.3c8.9-3.9,19-8.3,38.9-12.5c19.9-4.2,30.9-4.2,40.6-4.3c9.2,0,17.2-0.1,33.7-3.6
				c16.5-3.5,23.8-6.7,32.3-10.4c8.9-3.9,19-8.3,38.9-12.5s30.9-4.2,40.6-4.3c9.2,0,17.2-0.1,33.7-3.6c16.5-3.5,23.8-6.7,32.3-10.4
				c8.9-3.9,19-8.3,38.9-12.5c19.9-4.2,30.9-4.2,40.6-4.3c9.2,0,17.2-0.1,33.7-3.6l7.1,33.7c-19.9,4.2-30.9,4.2-40.6,4.3
				c-9.2,0-17.2,0.1-33.7,3.6c-16.5,3.5-23.8,6.7-32.3,10.4c-8.9,3.9-19,8.3-38.9,12.5c-19.9,4.2-30.9,4.2-40.6,4.3
				c-9.2,0-17.2,0.1-33.7,3.6C64.8,99,57.4,102.2,49,105.9c-8.9,3.9-19,8.3-38.9,12.5c-19.9,4.2-30.9,4.2-40.6,4.3
				c-9.2,0-17.2,0.1-33.7,3.6s-23.8,6.7-32.3,10.3c-8.9,3.9-19,8.3-38.9,12.5c-19.9,4.2-30.9,4.2-40.6,4.3
				C-185.4,153.3-193.4,153.4-209.9,156.8z"/>
			<path fill="#4C4276" d="M-200.4,201.8l-7.1-33.7c19.9-4.2,30.9-4.2,40.6-4.3c9.2,0,17.2-0.1,33.7-3.6
				c16.5-3.5,23.8-6.7,32.3-10.3c8.9-3.9,19-8.3,38.9-12.5c19.9-4.2,30.9-4.2,40.6-4.3c9.2,0,17.2-0.1,33.7-3.6
				c16.5-3.5,23.8-6.7,32.3-10.4c8.9-3.9,19-8.3,38.9-12.5c19.9-4.2,30.9-4.2,40.6-4.3c9.2,0,17.2-0.1,33.7-3.6
				c16.5-3.5,23.8-6.7,32.3-10.4c8.9-3.9,19-8.3,38.9-12.5c19.9-4.2,30.9-4.2,40.6-4.3c9.2,0,17.2-0.1,33.7-3.6l7.1,33.7
				c-19.9,4.2-30.9,4.2-40.6,4.3c-9.2,0-17.2,0.1-33.7,3.6c-16.5,3.5-23.8,6.7-32.3,10.4c-8.9,3.9-19,8.3-38.9,12.5
				c-19.9,4.2-30.9,4.2-40.6,4.3c-9.2,0-17.2,0.1-33.7,3.6s-23.8,6.7-32.3,10.4c-8.9,3.9-19,8.3-38.9,12.5
				c-19.9,4.2-30.9,4.2-40.6,4.3c-9.2,0-17.2,0.1-33.7,3.6c-16.5,3.5-23.8,6.7-32.3,10.3c-8.9,3.9-19,8.3-38.9,12.5
				c-19.9,4.2-30.9,4.2-40.6,4.3C-176,198.3-184,198.3-200.4,201.8z"/>
			<path fill="#C1E4E2" d="M-219.4,111.9l-7.1-33.7c19.9-4.2,30.9-4.2,40.6-4.3c9.2,0,17.2-0.1,33.7-3.6
				c16.5-3.5,23.8-6.7,32.3-10.3c8.9-3.9,19-8.3,38.9-12.5c19.9-4.2,30.9-4.2,40.6-4.3c9.2,0,17.2-0.1,33.7-3.6
				c16.5-3.5,23.8-6.7,32.3-10.4c8.9-3.9,19-8.3,38.9-12.5s30.9-4.2,40.6-4.3c9.2,0,17.2-0.1,33.7-3.6c16.5-3.5,23.8-6.7,32.3-10.4
				c8.9-3.9,19-8.3,38.9-12.5c19.9-4.2,30.9-4.2,40.6-4.3c9.2,0,17.2-0.1,33.7-3.6l7.1,33.7c-19.9,4.2-30.9,4.2-40.6,4.3
				c-9.2,0-17.2,0.1-33.7,3.6c-16.5,3.5-23.8,6.7-32.3,10.4c-8.9,3.9-19,8.3-38.9,12.5c-19.9,4.2-30.9,4.2-40.6,4.3
				c-9.2,0-17.2,0.1-33.7,3.6C55.3,54.1,48,57.2,39.5,60.9c-8.9,3.9-19,8.3-38.9,12.5c-19.9,4.2-30.9,4.2-40.6,4.3
				c-9.2,0-17.2,0.1-33.7,3.6c-16.5,3.5-23.8,6.7-32.3,10.3c-8.9,3.9-19,8.3-38.9,12.5c-19.9,4.2-30.9,4.2-40.6,4.3
				C-194.9,108.4-202.9,108.5-219.4,111.9z"/>
			<path fill="#E4AFC5" d="M-228.8,67l-7.1-33.7c19.9-4.2,30.9-4.2,40.6-4.3c9.2,0,17.2-0.1,33.7-3.6c16.5-3.5,23.8-6.7,32.3-10.3
				c8.9-3.9,19-8.3,38.9-12.5c19.9-4.2,30.9-4.2,40.6-4.3c9.2,0,17.2-0.1,33.7-3.6C0.5-8.7,7.8-11.9,16.3-15.5
				c8.9-3.9,19-8.3,38.9-12.5s30.9-4.2,40.6-4.3c9.2,0,17.2-0.1,33.7-3.6c16.5-3.5,23.8-6.7,32.3-10.4c8.9-3.9,19-8.3,38.9-12.5
				c19.9-4.2,30.9-4.2,40.6-4.3c9.2,0,17.2-0.1,33.7-3.6l7.1,33.7c-19.9,4.2-30.9,4.2-40.6,4.3c-9.2,0-17.2,0.1-33.7,3.6
				c-16.5,3.5-23.8,6.7-32.3,10.4c-8.9,3.9-19,8.3-38.9,12.5C116.8,2,105.8,2.1,96,2.1c-9.2,0-17.2,0.1-33.7,3.6
				C45.8,9.1,38.5,12.3,30,16c-8.9,3.9-19,8.3-38.9,12.5c-19.9,4.2-30.9,4.2-40.6,4.3c-9.2,0-17.2,0.1-33.7,3.6
				c-16.5,3.5-23.8,6.7-32.3,10.3c-8.9,3.9-19,8.3-38.9,12.5c-19.9,4.2-30.9,4.2-40.6,4.3C-204.4,63.5-212.4,63.5-228.8,67z"/>
			<path fill="#4AC2C4" d="M-236.7,29.6l-7.1-33.7c19.9-4.2,30.9-4.2,40.6-4.3c9.2,0,17.2-0.1,33.7-3.6c16.5-3.5,23.8-6.7,32.3-10.3
				c8.9-3.9,19-8.3,38.9-12.5c19.9-4.2,30.9-4.2,40.6-4.3c9.2,0,17.2-0.1,33.7-3.6C-7.4-46.1-0.1-49.3,8.4-53
				c8.9-3.9,19-8.3,38.9-12.5c19.9-4.2,30.9-4.2,40.6-4.3c9.2,0,17.2-0.1,33.7-3.6c16.5-3.5,23.8-6.7,32.3-10.4
				c8.9-3.9,19-8.3,38.9-12.5c19.9-4.2,30.9-4.2,40.6-4.3c9.2,0,17.2-0.1,33.7-3.6l7.1,33.7c-19.9,4.2-30.9,4.2-40.6,4.3
				c-9.2,0-17.2,0.1-33.7,3.6c-16.5,3.5-23.8,6.7-32.3,10.4c-8.9,3.9-19,8.3-38.9,12.5c-19.9,4.2-30.9,4.2-40.6,4.3
				c-9.2,0-17.2,0.1-33.7,3.6c-16.5,3.5-23.8,6.7-32.3,10.4c-8.9,3.9-19,8.3-38.9,12.5c-19.9,4.2-30.9,4.2-40.6,4.3
				c-9.2,0-17.2,0.1-33.7,3.6c-16.5,3.5-23.8,6.7-32.3,10.3c-8.9,3.9-19,8.3-38.9,12.5S-193.3,26-203,26
				C-212.3,26-220.2,26.1-236.7,29.6z"/>
			<path fill="#C1E4E2" d="M-247.8-22.8l-7.1-33.7c19.9-4.2,30.9-4.2,40.6-4.3c9.2,0,17.2-0.1,33.7-3.6c16.5-3.5,23.8-6.7,32.3-10.3
				c8.9-3.9,19-8.3,38.9-12.5c19.9-4.2,30.9-4.2,40.6-4.3c9.2,0,17.2-0.1,33.7-3.6c16.5-3.5,23.8-6.7,32.3-10.4
				c8.9-3.9,19-8.3,38.9-12.5c19.9-4.2,30.9-4.2,40.6-4.3c9.2,0,17.2-0.1,33.7-3.6c16.5-3.5,23.8-6.7,32.3-10.4
				c8.9-3.9,19-8.3,38.9-12.5c19.9-4.2,30.9-4.2,40.6-4.3c9.2,0,17.2-0.1,33.7-3.6l7.1,33.7c-19.9,4.2-30.9,4.2-40.6,4.3
				c-9.2,0-17.2,0.1-33.7,3.6c-16.5,3.5-23.8,6.7-32.3,10.4c-8.9,3.9-19,8.3-38.9,12.5c-19.9,4.2-30.9,4.2-40.6,4.3
				c-9.2,0-17.2,0.1-33.7,3.6c-16.5,3.5-23.8,6.7-32.3,10.4c-8.9,3.9-19,8.3-38.9,12.5s-30.9,4.2-40.6,4.3c-9.2,0-17.2,0.1-33.7,3.6
				c-16.5,3.5-23.8,6.7-32.3,10.3c-8.9,3.9-19,8.3-38.9,12.5c-19.9,4.2-30.9,4.2-40.6,4.3C-223.3-26.4-231.3-26.3-247.8-22.8z"/>
			<path fill="#E4AFC5" d="M-206,175.6l-7.1-33.7c19.9-4.2,30.9-4.2,40.6-4.3c9.2,0,17.2-0.1,33.7-3.6c16.5-3.5,23.8-6.7,32.3-10.3
				c8.9-3.9,19-8.3,38.9-12.5c19.9-4.2,30.9-4.2,40.6-4.3c9.2,0,17.2-0.1,33.7-3.6c16.5-3.5,23.8-6.7,32.3-10.4
				c8.9-3.9,19-8.3,38.9-12.5c19.9-4.2,30.9-4.2,40.6-4.3c9.2,0,17.2-0.1,33.7-3.6c16.5-3.5,23.8-6.7,32.3-10.4
				c8.9-3.9,19-8.3,38.9-12.5c19.9-4.2,30.9-4.2,40.6-4.3c9.2,0,17.2-0.1,33.7-3.6l7.1,33.7c-19.9,4.2-30.9,4.2-40.6,4.3
				c-9.2,0-17.2,0.1-33.7,3.6c-16.5,3.5-23.8,6.7-32.3,10.4c-8.9,3.9-19,8.3-38.9,12.5c-19.9,4.2-30.9,4.2-40.6,4.3
				c-9.2,0-17.2,0.1-33.7,3.6c-16.5,3.5-23.8,6.7-32.3,10.4c-8.9,3.9-19,8.3-38.9,12.5s-30.9,4.2-40.6,4.3c-9.2,0-17.2,0.1-33.7,3.6
				c-16.5,3.5-23.8,6.7-32.3,10.3c-8.9,3.9-19,8.3-38.9,12.5c-19.9,4.2-30.9,4.2-40.6,4.3C-181.5,172.1-189.5,172.1-206,175.6z"/>
			<path fill="#D5335D" d="M-214.2,136.3l-6.3-29.9c19.7-4.2,30.2-4.2,40.3-4.3c9,0,17.4-0.1,34.1-3.6c16.7-3.5,24.4-6.9,32.7-10.5
				c9.3-4,18.8-8.2,38.6-12.3c19.7-4.2,30.2-4.2,40.3-4.3c9,0,17.4-0.1,34.1-3.6c16.7-3.5,24.4-6.9,32.7-10.5
				c9.3-4,18.8-8.2,38.6-12.3c19.7-4.2,30.2-4.2,40.3-4.3c9,0,17.4-0.1,34.1-3.6c16.7-3.5,24.4-6.9,32.7-10.5
				c9.3-4,18.8-8.2,38.6-12.3c19.7-4.2,30.2-4.2,40.3-4.3c9,0,17.4-0.1,34.1-3.6l6.3,29.9c-19.7,4.2-30.2,4.2-40.3,4.3
				c-9,0-17.4,0.1-34.1,3.6c-16.7,3.5-24.4,6.9-32.7,10.5c-9.3,4-18.8,8.2-38.6,12.3c-19.7,4.2-30.2,4.2-40.3,4.3
				c-9,0-17.4,0.1-34.1,3.6c-16.7,3.5-24.4,6.9-32.7,10.5c-9.3,4-18.8,8.2-38.6,12.3c-19.7,4.2-30.2,4.2-40.3,4.3
				c-9,0-17.4,0.1-34.1,3.6c-16.7,3.5-24.4,6.9-32.7,10.5c-9.3,4-18.8,8.2-38.6,12.3c-19.7,4.2-30.2,4.2-40.3,4.3
				C-189.1,132.7-197.6,132.7-214.2,136.3z"/>
			<path fill="#B298BC" d="M-235.5,35.2l-4.7-22.4c19.3-4.1,29.6-4.1,39.5-4.2c9.2,0,17.8-0.1,34.9-3.7c17.1-3.6,25-7,33.4-10.7
				c9.1-4,18.5-8,37.8-12.1c19.3-4.1,29.6-4.1,39.5-4.2c9.2,0,17.8-0.1,34.9-3.7s25-7,33.4-10.7c9.1-4,18.5-8,37.8-12.1
				c19.3-4.1,29.6-4.1,39.5-4.2c9.2,0,17.8-0.1,34.9-3.7c17.1-3.6,25-7,33.4-10.7c9.1-4,18.5-8,37.8-12.1
				c19.3-4.1,29.6-4.1,39.5-4.2c9.2,0,17.8-0.1,34.9-3.7l4.7,22.4c-19.3,4.1-29.6,4.1-39.5,4.2c-9.2,0-17.8,0.1-34.9,3.7
				s-25,7-33.4,10.7c-9.1,4-18.5,8-37.8,12.1c-19.3,4.1-29.6,4.1-39.5,4.2c-9.2,0-17.8,0.1-34.9,3.7c-17.1,3.6-25,7-33.4,10.7
				c-9.1,4-18.5,8-37.8,12.1c-19.3,4.1-29.6,4.1-39.5,4.2c-9.2,0-17.8,0.1-34.9,3.7c-17.1,3.6-25,7-33.4,10.7
				c-9.1,4-18.5,8-37.8,12.1c-19.3,4.1-29.6,4.1-39.5,4.2C-209.8,31.5-218.5,31.6-235.5,35.2z"/>
			<path fill="#4C4276" d="M-225.9,81l-5.1-24.3c19.4-4.1,29.7-4.1,39.7-4.2c9.1,0,17.7-0.1,34.7-3.7c17-3.6,24.9-7,33.2-10.6
				c9.1-4,18.6-8.1,38-12.2c19.4-4.1,29.7-4.1,39.7-4.2c9.1,0,17.7-0.1,34.7-3.7c17-3.6,24.9-7,33.2-10.6c9.1-4,18.6-8.1,38-12.2
				s29.7-4.1,39.7-4.2c9.1,0,17.7-0.1,34.7-3.7c17-3.6,24.9-7,33.2-10.6c9.1-4,18.6-8.1,38-12.2s29.7-4.1,39.7-4.2
				c9.1,0,17.7-0.1,34.7-3.7l5.1,24.3c-19.4,4.1-29.7,4.1-39.7,4.2c-9.1,0-17.7,0.1-34.7,3.7c-17,3.6-24.9,7-33.2,10.6
				c-9.1,4-18.6,8.1-38,12.2C120.2,15.9,109.9,16,100,16c-9.1,0-17.7,0.1-34.7,3.7s-24.9,7-33.2,10.6c-9.1,4-18.6,8.1-38,12.2
				c-19.4,4.1-29.7,4.1-39.7,4.2c-9.1,0-17.7,0.1-34.7,3.7c-17,3.6-24.9,7-33.2,10.6c-9.1,4-18.6,8.1-38,12.2
				c-19.4,4.1-29.7,4.1-39.7,4.2C-200.3,77.4-208.9,77.5-225.9,81z"/>
			<path fill="#7C5FA6" d="M-243.4-2.3l-4.7-22.4c19.3-4.1,29.6-4.1,39.5-4.2c9.2,0,17.8-0.1,34.9-3.7c17.1-3.6,25-7,33.4-10.7
				c9.1-4,18.5-8,37.8-12.1c19.3-4.1,29.6-4.1,39.5-4.2c9.2,0,17.8-0.1,34.9-3.7c17.1-3.6,25-7,33.4-10.7c9.1-4,18.5-8,37.8-12.1
				s29.6-4.1,39.5-4.2c9.2,0,17.8-0.1,34.9-3.7c17.1-3.6,25-7,33.4-10.7c9.1-4,18.5-8,37.8-12.1c19.3-4.1,29.6-4.1,39.5-4.2
				c9.2,0,17.8-0.1,34.9-3.7l4.7,22.4c-19.3,4.1-29.6,4.1-39.5,4.2c-9.2,0-17.8,0.1-34.9,3.7c-17.1,3.6-25,7-33.4,10.7
				c-9.1,4-18.5,8-37.8,12.1c-19.3,4.1-29.6,4.1-39.5,4.2c-9.2,0-17.8,0.1-34.9,3.7c-17.1,3.6-25,7-33.4,10.7
				c-9.1,4-18.5,8-37.8,12.1c-19.3,4.1-29.6,4.1-39.5,4.2c-9.2,0-17.8,0.1-34.9,3.7c-17.1,3.6-25,7-33.4,10.7
				c-9.1,4-18.5,8-37.8,12.1s-29.6,4.1-39.5,4.2C-217.7-5.9-226.4-5.8-243.4-2.3z"/>
		</g>
	</g>
</g>
</svg>
