<?xml version="1.0" encoding="utf-8"?>
<!-- Generator: Adobe Illustrator 21.1.0, SVG Export Plug-In . SVG Version: 6.00 Build 0)  -->
<svg version="1.1" id="Layer_1" xmlns="http://www.w3.org/2000/svg" xmlns:xlink="http://www.w3.org/1999/xlink" x="0px" y="0px"
	 width="4000px" height="4000px" viewBox="0 0 4000 4000" enable-background="new 0 0 4000 4000" xml:space="preserve">
<g>
	<defs>
		<rect id="SVGID_1_" width="4000" height="4000"/>
	</defs>
	<clipPath id="SVGID_2_">
		<use xlink:href="#SVGID_1_"  overflow="visible"/>
	</clipPath>
	<g clip-path="url(#SVGID_2_)">
		<polygon fill="#4B4174" points="-3988.7,6226.1 7849.8,6226.1 7849.8,3261.7 		"/>
		<polygon fill="#C0E4E2" points="-4452.2,1531.3 6353.8,-1543.1 -4452.2,-1543.1 		"/>
		<path fill="#E4B0C5" d="M-3425.8,5295.7l-156.5-742.8c439.3-92.6,682.4-93.7,896.8-94.8c204.1-1,380.3-1.9,744-78.5
			c363.7-76.6,525.3-146.9,712.4-228.4c196.6-85.6,419.5-182.5,858.8-275.1s682.4-93.8,896.8-94.8c204.1-1,380.3-1.9,744-78.5
			c363.7-76.6,525.3-146.9,712.5-228.4c196.6-85.6,419.5-182.5,858.8-275.1s682.3-93.7,896.8-94.8c204.1-1,380.3-1.9,744-78.5
			c363.8-76.6,525.4-146.9,712.5-228.4c196.7-85.6,419.5-182.5,858.8-275.1c439.3-92.6,682.4-93.8,896.8-94.8
			c204.1-1,380.3-1.9,744.1-78.5l156.5,742.8c-439.3,92.6-682.4,93.7-896.8,94.8c-204.1,1-380.3,1.9-744.1,78.5
			c-363.7,76.6-525.4,146.9-712.5,228.4c-196.7,85.6-419.5,182.5-858.9,275.1c-439.3,92.6-682.3,93.7-896.8,94.8
			c-204.1,1-380.3,1.9-744,78.5c-363.7,76.6-525.3,146.9-712.5,228.4c-196.6,85.6-419.5,182.5-858.8,275.1
			c-439.3,92.6-682.3,93.7-896.8,94.8c-204.1,1-380.3,1.9-744,78.5c-363.7,76.6-525.3,146.9-712.4,228.4
			c-196.6,85.6-419.5,182.5-858.8,275.1c-439.3,92.6-682.3,93.7-896.8,94.8C-2885.8,5218.2-3062,5219.1-3425.8,5295.7z"/>
		<path fill="#4B4175" d="M-3216.9,6287l-156.5-742.8c439.3-92.6,682.4-93.7,896.8-94.8c204.1-1,380.3-1.9,744-78.5
			c363.7-76.6,525.3-146.9,712.5-228.4c196.6-85.6,419.5-182.5,858.8-275.1c439.3-92.6,682.3-93.7,896.8-94.8
			c204.1-1,380.3-1.9,744-78.5c363.7-76.6,525.3-146.9,712.5-228.4c196.6-85.6,419.5-182.5,858.8-275.1
			c439.3-92.6,682.4-93.7,896.8-94.8c204.1-1,380.3-1.9,744-78.5c363.7-76.6,525.4-147,712.5-228.4
			c196.7-85.6,419.5-182.5,858.9-275.1c439.3-92.6,682.4-93.7,896.8-94.8c204.1-1,380.3-1.9,744.1-78.5l156.5,742.8
			c-439.3,92.6-682.4,93.8-896.8,94.8c-204.1,1-380.3,1.9-744.1,78.5c-363.8,76.6-525.4,147-712.5,228.4
			c-196.7,85.6-419.5,182.5-858.8,275.1c-439.3,92.6-682.3,93.7-896.8,94.8c-204.1,1-380.3,1.9-744,78.5
			c-363.7,76.6-525.3,146.9-712.5,228.4c-196.6,85.6-419.5,182.5-858.8,275.1c-439.3,92.6-682.4,93.7-896.8,94.8
			c-204.1,1-380.3,1.9-744,78.5c-363.7,76.6-525.3,146.9-712.4,228.4c-196.7,85.6-419.5,182.5-858.8,275.1
			c-439.3,92.6-682.3,93.8-896.8,94.8C-2677,6209.5-2853.2,6210.3-3216.9,6287z"/>
		<path fill="#C0E4E2" d="M-3634.6,4304.5l-156.5-742.8c439.3-92.6,682.4-93.7,896.8-94.8c204.1-1,380.3-1.9,744-78.5
			c363.7-76.6,525.3-146.9,712.4-228.4c196.6-85.6,419.5-182.5,858.8-275.1c439.3-92.6,682.3-93.7,896.8-94.8
			c204.1-1,380.3-1.9,744-78.5c363.7-76.6,525.3-146.9,712.5-228.4c196.6-85.6,419.5-182.5,858.8-275.1s682.3-93.7,896.8-94.8
			c204.1-1,380.3-1.9,744-78.5c363.7-76.6,525.4-147,712.5-228.4c196.7-85.6,419.5-182.5,858.9-275.1
			c439.3-92.6,682.4-93.7,896.8-94.8c204.1-1,380.3-1.9,744.1-78.5l156.5,742.8c-439.3,92.6-682.4,93.8-896.8,94.8
			c-204.1,1-380.3,1.9-744.1,78.5c-363.8,76.6-525.4,147-712.5,228.4c-196.7,85.6-419.5,182.5-858.8,275.1
			c-439.3,92.6-682.4,93.8-896.8,94.8c-204.1,1-380.3,1.9-744,78.5c-363.7,76.6-525.3,146.9-712.5,228.4
			c-196.6,85.6-419.5,182.5-858.8,275.1c-439.3,92.6-682.4,93.7-896.8,94.8c-204.1,1-380.3,1.9-744,78.5
			c-363.7,76.6-525.3,146.9-712.4,228.4c-196.6,85.6-419.5,182.5-858.8,275.1c-439.3,92.6-682.4,93.8-896.8,94.8
			C-3094.6,4227-3270.9,4227.9-3634.6,4304.5z"/>
		<path fill="#E4B0C5" d="M-3843.4,3313.3l-156.5-742.8c439.3-92.6,682.4-93.7,896.8-94.8c204.1-1,380.3-1.9,744-78.5
			c363.7-76.6,525.3-146.9,712.4-228.4c196.6-85.6,419.5-182.5,858.8-275.1c439.3-92.6,682.4-93.7,896.8-94.8
			c204.1-1,380.3-1.9,744-78.5c363.7-76.6,525.3-146.9,712.5-228.4c196.6-85.6,419.5-182.5,858.8-275.1s682.3-93.7,896.8-94.8
			c204.1-1,380.3-1.9,744-78.5c363.8-76.6,525.4-146.9,712.5-228.4c196.7-85.6,419.5-182.5,858.8-275.1
			c439.3-92.6,682.4-93.8,896.8-94.8c204.1-1,380.3-1.9,744.1-78.5l156.5,742.8c-439.3,92.6-682.4,93.7-896.8,94.8
			c-204.1,1-380.3,1.9-744.1,78.5c-363.7,76.6-525.4,146.9-712.5,228.4c-196.7,85.6-419.5,182.5-858.9,275.1
			c-439.3,92.6-682.3,93.8-896.8,94.8c-204.1,1-380.3,1.9-744,78.5c-363.7,76.6-525.3,146.9-712.5,228.4
			c-196.6,85.6-419.5,182.5-858.8,275.1c-439.3,92.6-682.3,93.7-896.8,94.8c-204.1,1-380.3,1.9-744,78.5
			c-363.7,76.6-525.3,146.9-712.4,228.4c-196.6,85.6-419.5,182.5-858.8,275.1c-439.3,92.6-682.4,93.7-896.8,94.8
			C-3303.5,3235.8-3479.7,3236.7-3843.4,3313.3z"/>
		<path fill="#47C1C3" d="M-4017.5,2487.3l-156.5-742.8c439.3-92.6,682.4-93.7,896.8-94.8c204.1-1,380.3-1.9,744-78.5
			c363.7-76.6,525.3-146.9,712.5-228.4c196.6-85.6,419.5-182.5,858.8-275.1c439.3-92.6,682.3-93.7,896.8-94.8
			c204.1-1,380.3-1.9,744-78.5c363.7-76.6,525.3-146.9,712.5-228.4c196.6-85.6,419.5-182.5,858.8-275.1
			c439.3-92.6,682.3-93.7,896.8-94.8c204.1-1,380.3-1.9,744-78.5c363.7-76.6,525.4-146.9,712.5-228.4
			c196.7-85.6,419.5-182.5,858.9-275.1c439.3-92.6,682.4-93.8,896.8-94.8c204.1-1,380.3-1.9,744.1-78.5l156.5,742.8
			c-439.3,92.6-682.4,93.8-896.8,94.8c-204.1,1-380.3,1.9-744.1,78.5c-363.8,76.6-525.4,146.9-712.5,228.4
			c-196.7,85.5-419.5,182.5-858.8,275.1c-439.3,92.6-682.4,93.8-896.8,94.8c-204.1,1-380.3,1.9-744,78.5
			c-363.7,76.6-525.3,146.9-712.5,228.4c-196.6,85.6-419.5,182.5-858.8,275.1c-439.3,92.6-682.4,93.7-896.8,94.8
			c-204.1,1-380.3,1.9-744,78.5c-363.7,76.6-525.3,146.9-712.4,228.4c-196.7,85.6-419.5,182.5-858.8,275.1s-682.3,93.8-896.8,94.8
			C-3477.5,2409.8-3653.7,2410.7-4017.5,2487.3z"/>
		<path fill="#C0E4E2" d="M-4261.1,1330.9l-156.5-742.8c439.3-92.6,682.3-93.7,896.8-94.8c204.1-1,380.3-1.9,744-78.5
			c363.7-76.6,525.3-146.9,712.4-228.4c196.6-85.6,419.5-182.5,858.8-275.1c439.3-92.6,682.4-93.8,896.8-94.8
			c204.1-1,380.3-1.9,744-78.5c363.7-76.6,525.3-146.9,712.5-228.4c196.6-85.6,419.5-182.5,858.8-275.1
			c439.3-92.6,682.3-93.7,896.8-94.8c204.1-1,380.3-1.9,744-78.5c363.8-76.6,525.4-146.9,712.5-228.4
			c196.7-85.6,419.5-182.5,858.8-275.1c439.3-92.6,682.4-93.8,896.8-94.8c204.1-1,380.3-1.9,744.1-78.5l156.5,742.8
			c-439.3,92.6-682.4,93.7-896.8,94.8c-204.1,1-380.3,1.9-744.1,78.5S4849.8-552.4,4662.7-471c-196.7,85.6-419.5,182.5-858.8,275.1
			c-439.3,92.6-682.3,93.7-896.8,94.8c-204.1,1-380.3,1.9-744,78.5s-525.3,146.9-712.5,228.4c-196.6,85.6-419.5,182.5-858.8,275.1
			S-90.6,574.6-305,575.6c-204.1,1-380.3,1.9-744,78.5c-363.7,76.6-525.3,146.9-712.4,228.4c-196.6,85.6-419.5,182.5-858.8,275.1
			c-439.3,92.6-682.4,93.8-896.8,94.8C-3721.2,1253.4-3897.4,1254.2-4261.1,1330.9z"/>
		<path fill="#E4B0C5" d="M-3338.8,5708.7l-156.5-742.8c439.3-92.6,682.3-93.7,896.8-94.8c204.1-1,380.3-1.9,744-78.5
			c363.7-76.6,525.3-146.9,712.4-228.4c196.7-85.6,419.5-182.5,858.8-275.1c439.3-92.6,682.3-93.8,896.8-94.8
			c204.1-1,380.3-1.9,744-78.5c363.7-76.6,525.3-146.9,712.5-228.4c196.6-85.6,419.5-182.5,858.8-275.1
			c439.3-92.6,682.4-93.7,896.8-94.8c204.1-1,380.3-1.9,744-78.5c363.7-76.6,525.4-147,712.5-228.4
			c196.7-85.6,419.5-182.5,858.8-275.1c439.3-92.6,682.4-93.8,896.8-94.8c204.1-1,380.3-1.9,744.1-78.5l156.5,742.8
			c-439.3,92.6-682.4,93.8-896.8,94.8c-204.1,1-380.3,1.9-744.1,78.5c-363.7,76.6-525.4,146.9-712.5,228.4
			c-196.7,85.6-419.5,182.5-858.9,275.1c-439.3,92.6-682.3,93.7-896.8,94.8c-204.1,1-380.3,1.9-744,78.5
			c-363.7,76.6-525.3,146.9-712.5,228.4c-196.6,85.6-419.5,182.5-858.8,275.1c-439.3,92.6-682.3,93.7-896.8,94.8
			c-204.1,1-380.3,1.9-744,78.5c-363.7,76.6-525.3,146.9-712.5,228.4c-196.6,85.6-419.5,182.5-858.8,275.1
			c-439.3,92.6-682.4,93.8-896.8,94.8C-2798.8,5631.3-2975,5632.1-3338.8,5708.7z"/>
		<path fill="#D5315C" d="M-3521.5,4841.5l-139.1-660.3c435.1-91.7,665.5-92.8,888.3-93.9c197.8-1,384.6-1.9,752.5-79.4
			c367.9-77.5,539.2-152,720.6-231c204.3-88.9,415.6-180.8,850.7-272.5c435.1-91.7,665.5-92.8,888.3-93.9
			c197.8-1,384.6-1.9,752.5-79.4c367.9-77.5,539.2-152,720.6-231c204.3-88.9,415.6-180.8,850.7-272.5
			c435.1-91.7,665.5-92.8,888.3-93.9c197.8-1,384.6-1.9,752.5-79.4c368-77.5,539.3-152.1,720.6-231
			c204.3-88.9,415.6-180.8,850.7-272.5c435.1-91.7,665.5-92.8,888.3-93.9c197.8-1,384.6-1.9,752.6-79.4l139.1,660.3
			c-435.1,91.7-665.5,92.8-888.3,93.9c-197.8,1-384.6,1.9-752.6,79.4c-367.9,77.5-539.3,152.1-720.6,231
			c-204.3,88.9-415.6,180.8-850.7,272.5c-435.1,91.7-665.5,92.8-888.3,93.9c-197.8,1-384.6,1.9-752.5,79.4
			c-367.9,77.5-539.2,152-720.6,231c-204.3,88.9-415.6,180.8-850.7,272.5c-435.1,91.7-665.5,92.8-888.3,93.9
			c-197.8,1-384.6,1.9-752.5,79.4c-367.9,77.5-539.2,152-720.6,231c-204.3,88.9-415.6,180.8-850.7,272.5
			c-435.1,91.7-665.5,92.8-888.3,93.9C-2966.7,4763-3153.6,4763.9-3521.5,4841.5z"/>
		<path fill="#B298BD" d="M-3991.4,2611.3l-104.3-495.2c426.7-89.9,652.7-91,871.3-92.1c202.2-1,393.2-1.9,769.5-81.2
			c376.3-79.3,551.4-155.5,736.8-236.1c200.4-87.2,407.7-177.4,834.4-267.3c426.7-89.9,652.7-91,871.3-92.1
			c202.2-1,393.2-1.9,769.5-81.2s551.4-155.5,736.9-236.1c200.4-87.2,407.7-177.4,834.4-267.3c426.7-89.9,652.7-91,871.3-92.1
			c202.2-1,393.2-1.9,769.5-81.2c376.3-79.3,551.5-155.5,736.9-236.2c200.5-87.2,407.7-177.4,834.5-267.3
			c426.7-89.9,652.8-91,871.4-92.1c202.2-1,393.2-1.9,769.5-81.2l104.3,495.2c-426.7,89.9-652.8,91-871.4,92.1
			c-202.2,1-393.2,1.9-769.5,81.2c-376.4,79.3-551.5,155.5-736.9,236.2c-200.5,87.2-407.7,177.4-834.5,267.3
			c-426.7,89.9-652.7,91-871.3,92.1c-202.2,1-393.2,1.9-769.5,81.2c-376.3,79.3-551.4,155.5-736.9,236.1
			c-200.4,87.2-407.7,177.4-834.4,267.3c-426.7,89.9-652.7,91-871.3,92.1c-202.2,1-393.2,1.9-769.5,81.2
			c-376.3,79.3-551.4,155.5-736.8,236.1c-200.4,87.2-407.7,177.4-834.4,267.3c-426.7,89.9-652.7,91-871.3,92.1
			C-3424,2531.1-3615,2532-3991.4,2611.3z"/>
		<path fill="#4B4175" d="M-3778.2,3623.1l-113-536.5c428.8-90.3,655.9-91.5,875.6-92.5c201.1-1,391-1.9,765.2-80.8
			c374.2-78.8,548.4-154.6,732.8-234.8c201.4-87.6,409.7-178.3,838.5-268.6c428.8-90.3,655.9-91.5,875.6-92.5
			c201.1-1,391-1.9,765.2-80.8c374.2-78.8,548.4-154.6,732.8-234.9c201.4-87.6,409.7-178.2,838.5-268.6
			c428.8-90.3,655.9-91.5,875.6-92.5c201.1-1,391-1.9,765.2-80.8c374.3-78.9,548.4-154.6,732.8-234.9
			c201.4-87.6,409.7-178.3,838.5-268.6s656-91.5,875.6-92.5c201.1-1,391-1.9,765.3-80.8l113,536.5c-428.8,90.4-656,91.5-875.6,92.5
			c-201.1,1-391,1.9-765.3,80.8c-374.2,78.9-548.4,154.6-732.8,234.9c-201.4,87.6-409.7,178.3-838.5,268.6
			c-428.8,90.3-655.9,91.5-875.6,92.5c-201.1,1-391,1.9-765.2,80.8s-548.4,154.6-732.8,234.9c-201.4,87.6-409.7,178.2-838.5,268.6
			c-428.8,90.3-655.9,91.5-875.6,92.5c-201.1,1-391,1.9-765.2,80.8c-374.2,78.8-548.4,154.6-732.8,234.8
			c-201.4,87.6-409.7,178.2-838.5,268.6c-428.8,90.3-655.9,91.5-875.6,92.5C-3214,3543.4-3403.9,3544.3-3778.2,3623.1z"/>
		<path fill="#7B5EA7" d="M-4165.4,1785.3l-104.3-495.2c426.7-89.9,652.7-91,871.3-92.1c202.2-1,393.2-1.9,769.5-81.2
			c376.3-79.3,551.4-155.5,736.8-236.1c200.4-87.2,407.7-177.4,834.4-267.3c426.7-89.9,652.7-91,871.3-92.1
			c202.2-1,393.2-1.9,769.5-81.2c376.3-79.3,551.4-155.5,736.9-236.1c200.4-87.2,407.7-177.4,834.4-267.3s652.7-91,871.3-92.1
			c202.2-1,393.2-1.9,769.5-81.2c376.3-79.3,551.5-155.5,736.9-236.2c200.5-87.2,407.7-177.4,834.5-267.3
			c426.7-89.9,652.8-91,871.4-92.1c202.2-1,393.2-1.9,769.5-81.2l104.3,495.2c-426.7,89.9-652.8,91-871.4,92.1
			c-202.2,1-393.2,1.9-769.5,81.2c-376.3,79.3-551.5,155.5-736.9,236.2c-200.5,87.2-407.7,177.4-834.5,267.3
			c-426.7,89.9-652.7,91-871.3,92.1c-202.2,1-393.2,1.9-769.5,81.2c-376.3,79.3-551.4,155.5-736.9,236.1
			c-200.4,87.2-407.7,177.4-834.4,267.3c-426.7,89.9-652.7,91-871.3,92.1c-202.2,1-393.2,1.9-769.5,81.2
			c-376.3,79.3-551.4,155.5-736.8,236.1c-200.4,87.2-407.7,177.4-834.4,267.3s-652.7,91-871.3,92.1
			C-3598.1,1705.1-3789.1,1706-4165.4,1785.3z"/>
	</g>
</g>
</svg>
