<?xml version="1.0" encoding="utf-8"?>
<!-- Generator: Adobe Illustrator 21.1.0, SVG Export Plug-In . SVG Version: 6.00 Build 0)  -->
<svg version="1.1" id="Layer_1" xmlns="http://www.w3.org/2000/svg" xmlns:xlink="http://www.w3.org/1999/xlink" x="0px" y="0px"
	 width="72px" height="13.6px" viewBox="0 0 72 13.6" enable-background="new 0 0 72 13.6" xml:space="preserve">
<g>
	<path fill="#F15A30" d="M6.2,6.6L6.2,6.6L6.2,6.6L2.5,0H0v10.6h2.5V5.1l0.1,0.2l2.8,5.3h1.6l2.8-5.3l0.1-0.2v5.5h2.5V0H9.7L6.2,6.6
		z M28.5,2.4c-1,0-1.8,0.3-2.5,0.9L26,3.4V2.7h-2.5v10.6H26V9.9L26,10c0.6,0.6,1.5,0.9,2.5,0.9c2.2,0,3.9-1.8,3.9-4.2
		C32.3,4.2,30.7,2.4,28.5,2.4z M28,8.7c-1,0-2-0.8-2-2.1c0-1.2,0.9-2.1,2-2.1c1.2,0,2,0.9,2,2.1C29.9,7.9,29.1,8.7,28,8.7z
		 M60.9,2.4c-2.4,0-4.2,1.8-4.2,4.2c0,2.4,1.8,4.2,4.2,4.2c1.9,0,3.2-0.9,3.9-2.4L62.6,8c-0.5,0.8-1.2,0.9-1.7,0.9
		c-0.9,0-1.6-0.6-1.8-1.6l0-0.1H65V6.6C64.9,4.2,63.3,2.4,60.9,2.4z M59.1,5.8L59.1,5.8c0.3-0.9,1.1-1.3,1.7-1.3
		c0.8,0,1.4,0.5,1.7,1.3l0,0.1H59.1z M19.4,6.2c0,1.2-0.6,1.9-1.6,1.9c-1,0-1.6-0.7-1.6-1.9V2.7h-2.4v3.6c0,2.3,1.4,3.9,3.5,3.9
		c0.8,0,1.5-0.3,2.1-0.8l0.1-0.1v0.3c0,1.2-0.7,2-1.8,2c-0.8,0-1.3-0.4-1.8-1L14,11.7c0.7,1.2,2,1.9,3.7,1.9c2.6,0,4.2-1.4,4.2-3.8
		V2.7h-2.4L19.4,6.2z M52.6,2.4c-1,0-1.8,0.3-2.4,1l-0.1,0.1V2.7h-2.5v7.9h2.5V6.9c0-1.5,0.6-2.3,1.7-2.3c0.8,0,1.4,0.7,1.4,1.6v4.3
		h2.4V5.7C55.6,3.8,54.4,2.4,52.6,2.4z M33.5,10.6H36V0h-2.5V10.6z M43.5,3.4L43.5,3.4C42.8,2.7,42,2.4,41,2.4
		c-2.2,0-3.9,1.8-3.9,4.2c0,2.4,1.7,4.2,3.9,4.2c1,0,1.8-0.3,2.5-0.9l0.1-0.1v0.7H46V2.7h-2.5V3.4z M41.5,8.7c-1.2,0-2-0.9-2-2.1
		c0-1.2,0.8-2.1,2-2.1c1.1,0,2,0.9,2,2.1C43.5,8,42.5,8.7,41.5,8.7z M71.4,8.3c-0.3,0.2-0.8,0.3-1.1,0.3c-0.7,0-1.1-0.4-1.1-1.2V4.6
		h2.4V2.7h-2.4V0l-2.5,0.5v2.2h-1.4v1.9h1.4v3.1c0,2,1.1,3.1,3.1,3.1c0.9,0,1.6-0.3,2.1-0.6L71.4,8.3z"/>
</g>
</svg>
